{
.appVersion = "3134";
.formatVersion = 3;
DisplayStrings = (
"ʼ"
);
axes = (
{
name = Weight;
tag = wght;
}
);
classes = (
{
automatic = 1;

glyphs = (
{
glyphname = A;
layers = (
{
anchors = (
{
name = bottom;
pos = (300,0);
},
{
name = ogonek;
pos = (500,0);
},
{
name = top;
pos = (300,730);
}
);
layerId = "CCC0BD40-BA8C-414E-B576-CF0B94E6C996";
shapes = (
{
closed = 1;
nodes = (
(124,0,ls),
(136,0,o),
(143,6,o),
(146,17,cs),
(190,194,l),
(411,194,l),
(455,17,ls),
(458,6,o),
(465,0,o),
(477,0,cs),
(527,0,ls),
(541,0,o),
(547,9,o),
(544,22,cs),
(365,713,ls),
(362,724,o),
(355,730,o),
(343,730,cs),
(258,730,ls),
(246,730,o),
(239,724,o),
(236,713,cs),
(56,22,ls),
(53,9,o),
(59,0,o),
(73,0,cs)
);
},
{
closed = 1;
nodes = (
(264,496,ls),
(275,538,o),
(283,575,o),
(289,603,cs),
(293,622,o),
(307,622,o),
(311,603,cs),
(317,575,o),
(325,538,o),
(336,495,cs),
(392,270,l),
(208,270,l)
);
}
);
width = 600;
},
{
anchors = (
{
name = bottom;
pos = (300,0);
},
{
name = ogonek;
pos = (495,0);
},
{
name = top;
pos = (300,730);
}
);
layerId = "EDF5EB54-295C-4C90-9A2F-67CD82979CFF";
shapes = (
{
closed = 1;
nodes = (
(109,0,ls),
(114,0,o),
(119,2,o),
(120,8,cs),
(174,210,l),
(424,210,l),
(478,8,ls),
(479,2,o),
(484,0,o),
(489,0,cs),
(514,0,ls),
(523,0,o),
(529,8,o),
(527,17,cs),
(333,722,ls),
(332,727,o),
(327,730,o),
(322,730,cs),
(278,730,ls),
(273,730,o),
(268,727,o),
(267,722,cs),
(73,17,ls),
(71,8,o),
(77,0,o),
(86,0,cs)
);
},
{
closed = 1;
nodes = (
(266,550,ls),
(278,595,o),
(287,632,o),
(293,657,cs),
(296,669,o),
(304,669,o),
(307,657,cs),
(312,632,o),
(321,595,o),
(333,550,cs),
(412,255,l),
(186,255,l)
);
}
);
width = 600;
},
{
anchors = (
{
name = bottom;
pos = (300,0);
},
{
name = ogonek;
pos = (465,0);
},
{
name = top;
pos = (300,730);
}
);
layerId = "9ADF6715-3D0F-493D-8567-18A6FBCFC567";
shapes = (
{
closed = 1;
nodes = (
(153,0,ls),
(170,0,o),
(180,9,o),
(183,25,cs),
(213,165,l),
(387,165,l),
(417,25,ls),
(420,9,o),
(430,0,o),
(447,0,cs),
(543,0,ls),
(562,0,o),
(572,11,o),
(567,31,cs),
(400,706,ls),
(396,723,o),
(385,730,o),
(369,730,cs),
(229,730,ls),
(213,730,o),
(202,723,o),
(198,706,cs),
(33,31,ls),
(28,11,o),
(38,0,o),
(57,0,cs)
);
},
{
closed = 1;
nodes = (
(275,462,ls),
(279,484,o),
(284,507,o),
(288,529,cs),
(292,550,o),
(311,536,o),
(317,509,cs),
(320,493,o),
(323,477,o),
(326,461,cs),
(361,285,l),
(238,285,l)
);
}
);
width = 600;
}
);
unicode = 65;
},
{
glyphname = Aogonek;
layers = (
{
layerId = "EDF5EB54-295C-4C90-9A2F-67CD82979CFF";
shapes = (
{
closed = 1;
nodes = (
(560,-195,ls),
(567,-195,o),
(572,-190,o),
(572,-183,cs),
(572,-165,ls),
(572,-158,o),
(567,-153,o),
(560,-153,cs),
(508,-153,ls),
(476,-153,o),
(457,-134,o),
(457,-103,cs),
(457,-75,o),
(480,-36,o),
(518,0,cs),
(524,5,ls),
(527,8,o),
(525,10,o),
(522,10,cs),
(495,10,ls),
(493,10,o),
(491,10,o),
(490,8,cs),
(440,-28,o),
(410,-75,o),
(410,-115,cs),
(410,-165,o),
(444,-195,o),
(499,-195,cs)
);
},
{
ref = A;
}
);
width = 600;
},
{
layerId = "CCC0BD40-BA8C-414E-B576-CF0B94E6C996";
shapes = (
{
closed = 1;
nodes = (
(565,-203,ls),
(578,-203,o),
(585,-196,o),
(585,-183,cs),
(585,-163,ls),
(585,-150,o),
(578,-143,o),
(565,-143,cs),
(525,-143,ls),
(491,-143,o),
(470,-122,o),
(470,-93,cs),
(470,-65,o),
(489,-36,o),
(534,1,cs),
(539,5,ls),
(542,8,o),
(540,10,o),
(537,10,cs),
(473,10,ls),
(471,10,o),
(469,10,o),
(468,8,cs),
(406,-35,o),
(385,-72,o),
(385,-110,cs),
(385,-164,o),
(433,-203,o),
(507,-203,cs)
);
},
{
ref = A;
}
);
width = 600;
},
{
layerId = "9ADF6715-3D0F-493D-8567-18A6FBCFC567";
shapes = (
{
closed = 1;
nodes = (
(544,-225,ls),
(562,-225,o),
(572,-215,o),
(572,-197,cs),
(572,-148,ls),
(572,-130,o),
(562,-120,o),
(544,-120,cs),
(503,-120,ls),
(474,-120,o),
(457,-103,o),
(457,-83,cs),
(457,-66,o),
(472,-42,o),
(498,-18,cs),
(525,6,ls),
(528,9,o),
(526,11,o),
(523,11,cs),
(447,11,ls),
(446,11,o),
(443,11,o),
(442,10,cs),
(375,-20,o),
(333,-69,o),
(333,-115,cs),
(333,-180,o),
(383,-225,o),
(464,-225,cs)
);
},
{
ref = A;
}
);
width = 600;
}
);
unicode = 260;
},
{
glyphname = AE;
layers = (
{
anchors = (
{
name = bottom;
pos = (300,0);
},
{
name = top;
pos = (300,730);
}
);
layerId = "9ADF6715-3D0F-493D-8567-18A6FBCFC567";
shapes = (
{
closed = 1;
nodes = (
(117,0,ls),
(134,0,o),
(144,9,o),
(147,26,cs),
(169,165,l),
(291,165,l),
(291,28,ls),
(291,10,o),
(301,0,o),
(319,0,cs),
(552,0,ls),
(570,0,o),
(580,10,o),
(580,28,cs),
(580,98,ls),
(580,116,o),
(570,126,o),
(552,126,cs),
(444,126,ls),
(426,126,o),
(416,136,o),
(416,154,cs),
(416,305,l),
(527,305,ls),
(545,305,o),
(555,315,o),
(555,333,cs),
(555,408,ls),
(555,426,o),
(545,436,o),
(527,436,cs),
(416,436,l),
(416,605,l),
(552,605,ls),
(570,605,o),
(580,615,o),
(580,633,cs),
(580,702,ls),
(580,720,o),
(570,730,o),
(552,730,cs),
(163,730,ls),
(146,730,o),
(135,721,o),
(132,705,cs),
(6,30,ls),
(2,10,o),
(12,0,o),
(31,0,cs)
);
},
{
closed = 1;
nodes = (
(238,580,ls),
(241,597,o),
(251,605,o),
(268,605,cs),
(291,605,l),
(291,270,l),
(186,270,l)
);
}
);
width = 600;
},
{
anchors = (
{
name = bottom;
pos = (300,0);
},
{
name = top;
pos = (300,730);
}
);
layerId = "CCC0BD40-BA8C-414E-B576-CF0B94E6C996";
shapes = (
{
closed = 1;
nodes = (
(103,0,ls),
(115,0,o),
(123,6,o),
(125,18,cs),
(161,203,l),
(302,203,l),
(302,20,ls),
(302,7,o),
(309,0,o),
(322,0,cs),
(550,0,ls),
(563,0,o),
(570,7,o),
(570,20,cs),
(570,62,ls),
(570,75,o),
(563,82,o),
(550,82,cs),
(408,82,ls),
(395,82,o),
(388,89,o),
(388,102,cs),
(388,338,l),
(525,338,ls),
(538,338,o),
(545,345,o),
(545,358,cs),
(545,400,ls),
(545,413,o),
(538,420,o),
(525,420,cs),
(388,420,l),
(388,648,l),
(550,648,ls),
(563,648,o),
(570,655,o),
(570,668,cs),
(570,710,ls),
(570,723,o),
(563,730,o),
(550,730,cs),
(193,730,ls),
(181,730,o),
(173,724,o),
(171,712,cs),
(34,22,ls),
(31,9,o),
(38,0,o),
(52,0,cs)
);
},
{
closed = 1;
nodes = (
(243,630,ls),
(245,642,o),
(252,648,o),
(264,648,cs),
(302,648,l),
(302,278,l),
(175,278,l)
);
}
);
width = 600;
},
{
anchors = (
{
name = bottom;
pos = (300,0);
},
{
name = top;
pos = (300,730);
}
);
layerId = "EDF5EB54-295C-4C90-9A2F-67CD82979CFF";
shapes = (
{
closed = 1;
nodes = (
(73,0,ls),
(80,0,o),
(85,3,o),
(87,10,cs),
(140,215,l),
(310,215,l),
(310,12,ls),
(310,5,o),
(315,0,o),
(322,0,cs),
(557,0,ls),
(564,0,o),
(569,5,o),
(569,12,cs),
(569,33,ls),
(569,40,o),
(564,45,o),
(557,45,cs),
(372,45,ls),
(365,45,o),
(360,50,o),
(360,57,cs),
(360,357,l),
(521,357,ls),
(528,357,o),
(533,362,o),
(533,369,cs),
(533,390,ls),
(533,397,o),
(528,402,o),
(521,402,cs),
(360,402,l),
(360,685,l),
(557,685,ls),
(564,685,o),
(569,690,o),
(569,697,cs),
(569,718,ls),
(569,725,o),
(564,730,o),
(557,730,cs),
(233,730,ls),
(226,730,o),
(221,727,o),
(219,720,cs),
(37,13,ls),
(35,4,o),
(40,0,o),
(48,0,cs)
);
},
{
closed = 1;
nodes = (
(256,675,ls),
(258,682,o),
(263,685,o),
(270,685,cs),
(310,685,l),
(310,260,l),
(153,260,l)
);
}
);
width = 600;
}
);
unicode = 198;
},
{
glyphname = B;
layers = (
{
anchors = (
{
name = bottom;
pos = (300,0);
},
{
name = top;
pos = (300,730);
}
);
layerId = "9ADF6715-3D0F-493D-8567-18A6FBCFC567";
shapes = (
{
closed = 1;
nodes = (
(310,0,ls),
(460,0,o),
(561,84,o),
(561,211,cs),
(561,304,o),
(504,378,o),
(422,387,c),
(422,389,l),
(494,399,o),
(544,459,o),
(544,542,cs),
(544,655,o),
(447,730,o),
(301,730,cs),
(94,730,ls),
(76,730,o),
(66,720,o),
(66,702,cs),
(66,28,ls),
(66,10,o),
(76,0,o),
(94,0,cs)
);
},
{
closed = 1;
nodes = (
(211,318,l),
(305,318,ls),
(370,318,o),
(410,280,o),
(410,219,cs),
(410,158,o),
(370,121,o),
(305,121,cs),
(239,121,ls),
(221,121,o),
(211,131,o),
(211,149,cs)
);
},
{
closed = 1;
nodes = (
(211,581,ls),
(211,599,o),
(221,609,o),
(239,609,cs),
(299,609,ls),
(357,609,o),
(393,577,o),
(393,523,cs),
(393,469,o),
(357,436,o),
(299,436,cs),
(211,436,l)
);
}
);
width = 600;
},
{
anchors = (
{
name = bottom;
pos = (300,0);
},
{
name = top;
pos = (300,730);
}
);
layerId = "CCC0BD40-BA8C-414E-B576-CF0B94E6C996";
shapes = (
{
closed = 1;
nodes = (
(315,0,ls),
(448,0,o),
(530,78,o),
(530,203,cs),
(530,295,o),
(471,370,o),
(385,381,c),
(385,384,l),
(461,399,o),
(513,466,o),
(513,541,cs),
(513,659,o),
(433,730,o),
(300,730,cs),
(113,730,ls),
(100,730,o),
(93,723,o),
(93,710,cs),
(93,20,ls),
(93,7,o),
(100,0,o),
(113,0,cs)
);
},
{
closed = 1;
nodes = (
(181,341,l),
(305,341,ls),
(389,341,o),
(441,286,o),
(441,206,cs),
(441,129,o),
(389,81,o),
(305,81,cs),
(201,81,ls),
(188,81,o),
(181,88,o),
(181,101,cs)
);
},
{
closed = 1;
nodes = (
(181,629,ls),
(181,642,o),
(188,649,o),
(201,649,cs),
(300,649,ls),
(377,649,o),
(424,605,o),
(424,534,cs),
(424,463,o),
(376,419,o),
(299,419,cs),
(181,419,l)
);
}
);
width = 600;
},
{
anchors = (
{
name = bottom;
pos = (300,0);
},
{
name = top;
pos = (300,730);
}
);
layerId = "EDF5EB54-295C-4C90-9A2F-67CD82979CFF";
shapes = (
{
closed = 1;
nodes = (
(301,0,ls),
(433,0,o),
(515,78,o),
(515,200,cs),
(515,289,o),
(455,368,o),
(375,381,c),
(375,384,l),
(445,397,o),
(498,467,o),
(498,542,cs),
(498,656,o),
(419,730,o),
(298,730,cs),
(122,730,ls),
(115,730,o),
(110,725,o),
(110,718,cs),
(110,12,ls),
(110,5,o),
(115,0,o),
(122,0,cs)
);
},
{
closed = 1;
nodes = (
(160,353,l),
(301,353,ls),
(403,353,o),
(466,294,o),
(466,199,cs),
(466,104,o),
(403,46,o),
(301,46,cs),
(172,46,ls),
(165,46,o),
(160,51,o),
(160,58,cs)
);
},
{
closed = 1;
nodes = (
(160,672,ls),
(160,679,o),
(165,684,o),
(172,684,cs),
(298,684,ls),
(391,684,o),
(448,630,o),
(448,541,cs),
(448,452,o),
(392,398,o),
(298,398,cs),
(160,398,l)
);
}
);
width = 600;
}
);
unicode = 66;
},
{
glyphname = C;
layers = (
{
anchors = (
{
name = bottom;
pos = (305,0);
},
{
name = top;
pos = (305,730);
}
);
layerId = "9ADF6715-3D0F-493D-8567-18A6FBCFC567";
shapes = (
{
closed = 1;
nodes = (
(445,-10,o),
(539,66,o),
(551,184,cs),
(552,201,o),
(541,210,o),
(523,210,cs),
(429,210,ls),
(412,210,o),
(403,201,o),
(399,183,cs),
(390,142,o),
(358,120,o),
(308,120,cs),
(248,120,o),
(214,152,o),
(214,210,cs),
(214,520,ls),
(214,578,o),
(248,610,o),
(308,610,cs),
(358,610,o),
(390,588,o),
(399,547,cs),
(403,529,o),
(412,520,o),
(429,520,cs),
(523,520,ls),
(541,520,o),
(552,530,o),
(550,549,cs),
(537,665,o),
(444,740,o),
(308,740,cs),
(161,740,o),
(64,653,o),
(64,520,cs),
(64,210,ls),
(64,78,o),
(161,-10,o),
(308,-10,cs)
);
}
);
width = 600;
},
{
anchors = (
{
name = bottom;
pos = (305,0);
},
{
name = top;
pos = (305,730);
}
);
layerId = "EDF5EB54-295C-4C90-9A2F-67CD82979CFF";
shapes = (
{
closed = 1;
nodes = (
(430,-10,o),
(509,67,o),
(514,187,cs),
(514,196,o),
(509,200,o),
(502,200,cs),
(476,200,ls),
(469,200,o),
(464,196,o),
(464,188,cs),
(459,93,o),
(402,35,o),
(310,35,cs),
(216,35,o),
(159,94,o),
(159,190,cs),
(159,540,ls),
(159,636,o),
(217,695,o),
(310,695,cs),
(401,695,o),
(459,637,o),
(464,542,cs),
(464,534,o),
(469,530,o),
(476,530,cs),
(502,530,ls),
(509,530,o),
(514,534,o),
(514,542,cs),
(509,663,o),
(430,740,o),
(310,740,cs),
(188,740,o),
(109,662,o),
(109,540,cs),
(109,190,ls),
(109,69,o),
(188,-10,o),
(310,-10,cs)
);
}
);
width = 600;
},
{
anchors = (
{
name = bottom;
pos = (305,0);
},
{
name = top;
pos = (305,730);
}
);
layerId = "CCC0BD40-BA8C-414E-B576-CF0B94E6C996";
shapes = (
{
closed = 1;
nodes = (
(432,-10,o),
(513,63,o),
(521,180,cs),
(522,193,o),
(515,200,o),
(502,200,cs),
(452,200,ls),
(440,200,o),
(432,193,o),
(431,180,cs),
(424,110,o),
(380,71,o),
(308,71,cs),
(229,71,o),
(182,117,o),
(182,200,cs),
(182,530,ls),
(182,613,o),
(229,659,o),
(308,659,cs),
(380,659,o),
(424,620,o),
(431,550,cs),
(432,537,o),
(440,530,o),
(452,530,cs),
(502,530,ls),
(515,530,o),
(522,537,o),
(521,551,cs),
(513,668,o),
(432,740,o),
(308,740,cs),
(175,740,o),
(92,661,o),
(92,530,cs),
(92,200,ls),
(92,69,o),
(175,-10,o),
(308,-10,cs)
);
}
);
width = 600;
}
);
unicode = 67;
},
{
glyphname = Ccedilla;
layers = (
{
anchors = (
{
name = _bottom;
pos = (305,0);
}
);
layerId = "EDF5EB54-295C-4C90-9A2F-67CD82979CFF";
shapes = (
{
closed = 1;
nodes = (
(320,-195,ls),
(380,-195,o),
(420,-161,o),
(420,-118,cs),
(420,-61,o),
(357,-37,o),
(310,-34,c),
(328,12,ls),
(331,21,o),
(327,26,o),
(318,26,cs),
(301,26,ls),
(294,26,o),
(289,23,o),
(287,17,cs),
(261,-50,ls),
(258,-59,o),
(262,-64,o),
(271,-64,cs),
(334,-67,o),
(374,-88,o),
(374,-118,cs),
(374,-140,o),
(352,-160,o),
(320,-160,cs),
(252,-160,ls),
(245,-160,o),
(240,-165,o),
(240,-172,cs),
(240,-183,ls),
(240,-190,o),
(245,-195,o),
(252,-195,cs)
);
},
{
ref = C;
}
);
width = 600;
},
{
anchors = (
{
name = _bottom;
pos = (305,0);
}
);
layerId = "CCC0BD40-BA8C-414E-B576-CF0B94E6C996";
shapes = (
{
closed = 1;
nodes = (
(295,-203,ls),
(367,-203,o),
(415,-166,o),
(415,-120,cs),
(415,-68,o),
(347,-41,o),
(295,-35,c),
(308,3,ls),
(313,17,o),
(306,26,o),
(292,26,cs),
(276,26,ls),
(265,26,o),
(257,20,o),
(253,10,cs),
(232,-47,ls),
(227,-60,o),
(234,-69,o),
(249,-70,cs),
(300,-74,o),
(329,-92,o),
(329,-112,cs),
(329,-130,o),
(309,-148,o),
(280,-148,cs),
(230,-148,ls),
(217,-148,o),
(210,-155,o),
(210,-168,cs),
(210,-183,ls),
(210,-196,o),
(217,-203,o),
(230,-203,cs)
);
},
{
ref = C;
}
);
width = 600;
},
{
anchors = (
{
name = _bottom;
pos = (305,0);
}
);
layerId = "9ADF6715-3D0F-493D-8567-18A6FBCFC567";
shapes = (
{
closed = 1;
nodes = (
(310,-225,ls),
(394,-225,o),
(450,-182,o),
(450,-133,cs),
(450,-72,o),
(369,-43,o),
(308,-39,c),
(316,-16,ls),
(323,4,o),
(313,16,o),
(293,16,cs),
(277,16,ls),
(261,16,o),
(251,9,o),
(245,-6,cs),
(232,-38,ls),
(224,-57,o),
(233,-68,o),
(254,-71,cs),
(306,-76,o),
(335,-93,o),
(335,-119,cs),
(335,-135,o),
(313,-155,o),
(280,-155,cs),
(228,-155,ls),
(210,-155,o),
(200,-165,o),
(200,-183,cs),
(200,-197,ls),
(200,-215,o),
(210,-225,o),
(228,-225,cs)
);
},
{
ref = C;
}
);
width = 600;
}
);
unicode = 199;
},
{
glyphname = D;
layers = (
{
anchors = (
{
name = bottom;
pos = (300,0);
},
{
name = center;
pos = (300,365);
},
{
name = top;
pos = (300,730);
}
);
layerId = "9ADF6715-3D0F-493D-8567-18A6FBCFC567";
shapes = (
{
closed = 1;
nodes = (
(300,0,ls),
(451,0,o),
(552,94,o),
(552,235,cs),
(552,496,ls),
(552,637,o),
(451,730,o),
(300,730,cs),
(91,730,ls),
(73,730,o),
(63,720,o),
(63,702,cs),
(63,28,ls),
(63,10,o),
(73,0,o),
(91,0,cs)
);
},
{
closed = 1;
nodes = (
(213,567,ls),
(213,585,o),
(223,595,o),
(241,595,cs),
(300,595,ls),
(360,595,o),
(402,555,o),
(402,496,cs),
(402,235,ls),
(402,176,o),
(360,135,o),
(300,135,cs),
(241,135,ls),
(223,135,o),
(213,145,o),
(213,163,cs)
);
}
);
width = 600;
},
{
anchors = (
{
name = bottom;
pos = (300,0);
},
{
name = center;
pos = (300,365);
},
{
name = top;
pos = (300,730);
}
);
layerId = "CCC0BD40-BA8C-414E-B576-CF0B94E6C996";
shapes = (
{
closed = 1;
nodes = (
(281,0,ls),
(422,0,o),
(512,86,o),
(512,220,cs),
(512,511,ls),
(512,644,o),
(422,730,o),
(281,730,cs),
(112,730,ls),
(99,730,o),
(92,723,o),
(92,710,cs),
(92,20,ls),
(92,7,o),
(99,0,o),
(112,0,cs)
);
},
{
closed = 1;
nodes = (
(182,630,ls),
(182,643,o),
(189,650,o),
(202,650,cs),
(281,650,ls),
(369,650,o),
(422,598,o),
(422,511,cs),
(422,220,ls),
(422,132,o),
(369,80,o),
(281,80,cs),
(202,80,ls),
(189,80,o),
(182,87,o),
(182,100,cs)
);
}
);
width = 600;
},
{
anchors = (
{
name = bottom;
pos = (300,0);
},
{
name = center;
pos = (300,365);
},
{
name = top;
pos = (300,730);
}
);
layerId = "EDF5EB54-295C-4C90-9A2F-67CD82979CFF";
shapes = (
{
closed = 1;
nodes = (
(270,0,ls),
(405,0,o),
(495,88,o),
(495,220,cs),
(495,510,ls),
(495,642,o),
(405,730,o),
(270,730,cs),
(122,730,ls),
(115,730,o),
(110,725,o),
(110,718,cs),
(110,12,ls),
(110,5,o),
(115,0,o),
(122,0,cs)
);
},
{
closed = 1;
nodes = (
(160,672,ls),
(160,679,o),
(165,684,o),
(172,684,cs),
(270,684,ls),
(374,684,o),
(445,614,o),
(445,510,cs),
(445,220,ls),
(445,115,o),
(375,46,o),
(270,46,cs),
(172,46,ls),
(165,46,o),
(160,51,o),
(160,58,cs)
);
}
);
width = 600;
}
);
unicode = 68;
},
{
glyphname = Eth;
layers = (
{
layerId = "9ADF6715-3D0F-493D-8567-18A6FBCFC567";
shapes = (
{
closed = 1;
nodes = (
(262,325,ls),
(280,325,o),
(290,335,o),
(290,353,cs),
(290,392,ls),
(290,410,o),
(280,420,o),
(262,420,cs),
(38,420,ls),
(20,420,o),
(10,410,o),
(10,392,cs),
(10,353,ls),
(10,335,o),
(20,325,o),
(38,325,cs)
);
},
{
ref = D;
}
);
width = 600;
},
{
layerId = "CCC0BD40-BA8C-414E-B576-CF0B94E6C996";
shapes = (
{
closed = 1;
nodes = (
(270,335,ls),
(283,335,o),
(290,342,o),
(290,355,cs),
(290,390,ls),
(290,403,o),
(283,410,o),
(270,410,cs),
(30,410,ls),
(17,410,o),
(10,403,o),
(10,390,cs),
(10,355,ls),
(10,342,o),
(17,335,o),
(30,335,cs)
);
},
{
ref = D;
}
);
width = 600;
},
{
layerId = "EDF5EB54-295C-4C90-9A2F-67CD82979CFF";
shapes = (
{
closed = 1;
nodes = (
(278,351,ls),
(285,351,o),
(290,356,o),
(290,363,cs),
(290,383,ls),
(290,390,o),
(285,395,o),
(278,395,cs),
(22,395,ls),
(15,395,o),
(10,390,o),
(10,383,cs),
(10,363,ls),
(10,356,o),
(15,351,o),
(22,351,cs)
);
},
{
ref = D;
}
);
width = 600;
}
);
unicode = 208;
},
{
glyphname = Dcroat;
layers = (
{
layerId = "EDF5EB54-295C-4C90-9A2F-67CD82979CFF";
shapes = (
{
closed = 1;
nodes = (
(278,351,ls),
(285,351,o),
(290,356,o),
(290,363,cs),
(290,383,ls),
(290,390,o),
(285,395,o),
(278,395,cs),
(22,395,ls),
(15,395,o),
(10,390,o),
(10,383,cs),
(10,363,ls),
(10,356,o),
(15,351,o),
(22,351,cs)
);
},
{
ref = D;
}
);
width = 600;
},
{
layerId = "CCC0BD40-BA8C-414E-B576-CF0B94E6C996";
shapes = (
{
closed = 1;
nodes = (
(270,335,ls),
(283,335,o),
(290,342,o),
(290,355,cs),
(290,390,ls),
(290,403,o),
(283,410,o),
(270,410,cs),
(30,410,ls),
(17,410,o),
(10,403,o),
(10,390,cs),
(10,355,ls),
(10,342,o),
(17,335,o),
(30,335,cs)
);
},
{
ref = D;
}
);
width = 600;
},
{
layerId = "9ADF6715-3D0F-493D-8567-18A6FBCFC567";
shapes = (
{
closed = 1;
nodes = (
(262,325,ls),
(280,325,o),
(290,335,o),
(290,353,cs),
(290,392,ls),
(290,410,o),
(280,420,o),
(262,420,cs),
(38,420,ls),
(20,420,o),
(10,410,o),
(10,392,cs),
(10,353,ls),
(10,335,o),
(20,325,o),
(38,325,cs)
);
},
{
ref = D;
}
);
width = 600;
}
);
unicode = 272;
},
{
glyphname = E;
layers = (
{
anchors = (
{
name = bottom;
pos = (305,0);
},
{
name = ogonek;
pos = (430,0);
},
{
name = top;
pos = (305,730);
},
{
name = topleft;
pos = (20,730);
}
);
layerId = "9ADF6715-3D0F-493D-8567-18A6FBCFC567";
shapes = (
{
closed = 1;
nodes = (
(502,0,ls),
(520,0,o),
(530,10,o),
(530,28,cs),
(530,102,ls),
(530,120,o),
(520,130,o),
(502,130,cs),
(255,130,ls),
(237,130,o),
(227,140,o),
(227,158,cs),
(227,312,l),
(467,312,ls),
(485,312,o),
(495,322,o),
(495,340,cs),
(495,408,ls),
(495,426,o),
(485,436,o),
(467,436,cs),
(227,436,l),
(227,572,ls),
(227,590,o),
(237,600,o),
(255,600,cs),
(502,600,ls),
(520,600,o),
(530,610,o),
(530,628,cs),
(530,702,ls),
(530,720,o),
(520,730,o),
(502,730,cs),
(108,730,ls),
(90,730,o),
(80,720,o),
(80,702,cs),
(80,28,ls),
(80,10,o),
(90,0,o),
(108,0,cs)
);
}
);
width = 600;
},
{
anchors = (
{
name = bottom;
pos = (310,0);
},
{
name = ogonek;
pos = (440,0);
},
{
name = top;
pos = (310,730);
},
{
name = topleft;
pos = (20,730);
}
);
layerId = "CCC0BD40-BA8C-414E-B576-CF0B94E6C996";
shapes = (
{
closed = 1;
nodes = (
(500,0,ls),
(513,0,o),
(520,7,o),
(520,20,cs),
(520,62,ls),
(520,75,o),
(513,82,o),
(500,82,cs),
(209,82,ls),
(196,82,o),
(189,89,o),
(189,102,cs),
(189,342,l),
(465,342,ls),
(478,342,o),
(485,349,o),
(485,362,cs),
(485,402,ls),
(485,415,o),
(478,422,o),
(465,422,cs),
(189,422,l),
(189,628,ls),
(189,641,o),
(196,648,o),
(209,648,cs),
(500,648,ls),
(513,648,o),
(520,655,o),
(520,668,cs),
(520,710,ls),
(520,723,o),
(513,730,o),
(500,730,cs),
(120,730,ls),
(107,730,o),
(100,723,o),
(100,710,cs),
(100,20,ls),
(100,7,o),
(107,0,o),
(120,0,cs)
);
}
);
width = 600;
},
{
anchors = (
{
name = bottom;
pos = (315,0);
},
{
name = ogonek;
pos = (440,0);
},
{
name = top;
pos = (315,730);
},
{
name = topleft;
pos = (20,730);
}
);
layerId = "EDF5EB54-295C-4C90-9A2F-67CD82979CFF";
shapes = (
{
closed = 1;
nodes = (
(498,0,ls),
(505,0,o),
(510,5,o),
(510,12,cs),
(510,34,ls),
(510,41,o),
(505,46,o),
(498,46,cs),
(182,46,ls),
(175,46,o),
(170,51,o),
(170,58,cs),
(170,358,l),
(463,358,ls),
(470,358,o),
(475,363,o),
(475,370,cs),
(475,391,ls),
(475,398,o),
(470,403,o),
(463,403,cs),
(170,403,l),
(170,672,ls),
(170,679,o),
(175,684,o),
(182,684,cs),
(498,684,ls),
(505,684,o),
(510,689,o),
(510,696,cs),
(510,718,ls),
(510,725,o),
(505,730,o),
(498,730,cs),
(132,730,ls),
(125,730,o),
(120,725,o),
(120,718,cs),
(120,12,ls),
(120,5,o),
(125,0,o),
(132,0,cs)
);
}
);
width = 600;
}
);
unicode = 69;
},
{
glyphname = Eogonek;
layers = (
{
layerId = "9ADF6715-3D0F-493D-8567-18A6FBCFC567";
shapes = (
{
closed = 1;
nodes = (
(506,-225,ls),
(524,-225,o),
(534,-215,o),
(534,-197,cs),
(534,-148,ls),
(534,-130,o),
(524,-120,o),
(506,-120,cs),
(465,-120,ls),
(436,-120,o),
(419,-103,o),
(419,-83,cs),
(419,-66,o),
(434,-42,o),
(460,-18,cs),
(487,6,ls),
(490,9,o),
(488,11,o),
(485,11,cs),
(409,11,ls),
(408,11,o),
(405,11,o),
(404,10,cs),
(337,-20,o),
(295,-69,o),
(295,-115,cs),
(295,-180,o),
(345,-225,o),
(426,-225,cs)
);
},
{
alignment = -1;
ref = E;
}
);
width = 600;
},
{
layerId = "CCC0BD40-BA8C-414E-B576-CF0B94E6C996";
shapes = (
{
closed = 1;
nodes = (
(505,-203,ls),
(518,-203,o),
(525,-196,o),
(525,-183,cs),
(525,-163,ls),
(525,-150,o),
(518,-143,o),
(505,-143,cs),
(465,-143,ls),
(431,-143,o),
(410,-122,o),
(410,-93,cs),
(410,-65,o),
(429,-36,o),
(474,1,cs),
(479,5,ls),
(482,8,o),
(480,10,o),
(477,10,cs),
(413,10,ls),
(411,10,o),
(409,10,o),
(408,8,cs),
(346,-35,o),
(325,-72,o),
(325,-110,cs),
(325,-164,o),
(373,-203,o),
(447,-203,cs)
);
},
{
alignment = -1;
ref = E;
}
);
width = 600;
},
{
layerId = "EDF5EB54-295C-4C90-9A2F-67CD82979CFF";
shapes = (
{
closed = 1;
nodes = (
(503,-195,ls),
(510,-195,o),
(515,-190,o),
(515,-183,cs),
(515,-165,ls),
(515,-158,o),
(510,-153,o),
(503,-153,cs),
(451,-153,ls),
(419,-153,o),
(400,-134,o),
(400,-103,cs),
(400,-75,o),
(423,-36,o),
(461,0,cs),
(467,5,ls),
(470,8,o),
(468,10,o),
(465,10,cs),
(438,10,ls),
(436,10,o),
(434,10,o),
(433,8,cs),
(383,-28,o),
(353,-75,o),
(353,-115,cs),
(353,-165,o),
(387,-195,o),
(442,-195,cs)
);
},
{
alignment = -1;
ref = E;
}
);
width = 600;
}
);
unicode = 280;
},
{
glyphname = Schwa;
layers = (
{
layerId = "9ADF6715-3D0F-493D-8567-18A6FBCFC567";
shapes = (
{
closed = 1;
nodes = (
(448,-10,o),
(540,78,o),
(540,210,cs),
(540,520,ls),
(540,653,o),
(448,740,o),
(301,740,cs),
(166,740,o),
(76,666,o),
(63,549,cs),
(62,530,o),
(73,520,o),
(91,520,cs),
(185,520,ls),
(202,520,o),
(211,529,o),
(214,547,cs),
(223,588,o),
(251,610,o),
(301,610,cs),
(361,610,o),
(390,578,o),
(390,520,cs),
(390,416,l),
(88,416,ls),
(70,416,o),
(60,406,o),
(60,388,cs),
(60,210,ls),
(60,78,o),
(155,-10,o),
(301,-10,cs)
);
},
{
closed = 1;
nodes = (
(239,105,o),
(210,138,o),
(210,210,cs),
(210,316,l),
(200,306,l),
(390,306,l),
(390,210,ls),
(390,142,o),
(367,105,o),
(301,105,cs)
);
}
);
width = 600;
},
{
layerId = "CCC0BD40-BA8C-414E-B576-CF0B94E6C996";
shapes = (
{
closed = 1;
nodes = (
(430,-10,o),
(510,73,o),
(510,200,cs),
(510,530,ls),
(510,661,o),
(433,740,o),
(300,740,cs),
(176,740,o),
(99,668,o),
(91,551,cs),
(90,537,o),
(97,530,o),
(110,530,cs),
(160,530,ls),
(172,530,o),
(180,537,o),
(181,550,cs),
(187,620,o),
(228,660,o),
(300,660,cs),
(379,660,o),
(420,613,o),
(420,531,cs),
(420,400,l),
(110,400,ls),
(97,400,o),
(90,393,o),
(90,380,cs),
(90,200,ls),
(90,73,o),
(170,-10,o),
(300,-10,cs)
);
},
{
closed = 1;
nodes = (
(218,65,o),
(180,113,o),
(180,200,cs),
(180,338,l),
(173,330,l),
(420,330,l),
(420,200,ls),
(420,113,o),
(382,65,o),
(300,65,cs)
);
}
);
width = 600;
},
{
layerId = "EDF5EB54-295C-4C90-9A2F-67CD82979CFF";
shapes = (
{
closed = 1;
nodes = (
(421,-10,o),
(495,69,o),
(495,190,cs),
(495,540,ls),
(495,662,o),
(421,740,o),
(299,740,cs),
(179,740,o),
(110,663,o),
(105,542,cs),
(105,534,o),
(110,530,o),
(117,530,cs),
(143,530,ls),
(150,530,o),
(155,534,o),
(155,542,cs),
(159,637,o),
(208,695,o),
(299,695,cs),
(392,695,o),
(445,636,o),
(445,540,cs),
(445,378,l),
(117,378,ls),
(110,378,o),
(105,373,o),
(105,366,cs),
(105,190,ls),
(105,69,o),
(178,-10,o),
(299,-10,cs)
);
},
{
closed = 1;
nodes = (
(207,34,o),
(155,94,o),
(155,190,cs),
(155,344,l),
(144,335,l),
(445,335,l),
(445,190,ls),
(445,93,o),
(393,34,o),
(299,34,cs)
);
}
);
width = 600;
}
);
unicode = 399;
},
{
glyphname = F;
layers = (
{
anchors = (
{
name = bottom;
pos = (300,0);
},
{
name = top;
pos = (300,730);
}
);
layerId = "9ADF6715-3D0F-493D-8567-18A6FBCFC567";
shapes = (
{
closed = 1;
nodes = (
(192,0,ls),
(210,0,o),
(220,10,o),
(220,28,cs),
(220,288,l),
(486,288,ls),
(504,288,o),
(514,298,o),
(514,316,cs),
(514,400,ls),
(514,418,o),
(504,428,o),
(486,428,cs),
(218,428,l),
(218,562,ls),
(218,580,o),
(228,590,o),
(246,590,cs),
(512,590,ls),
(530,590,o),
(540,600,o),
(540,618,cs),
(540,702,ls),
(540,720,o),
(530,730,o),
(512,730,cs),
(98,730,ls),
(80,730,o),
(70,720,o),
(70,702,cs),
(70,28,ls),
(70,10,o),
(80,0,o),
(98,0,cs)
);
}
);
width = 600;
},
{
anchors = (
{
name = bottom;
pos = (300,0);
},
{
name = top;
pos = (300,730);
}
);
layerId = "CCC0BD40-BA8C-414E-B576-CF0B94E6C996";
shapes = (
{
closed = 1;
nodes = (
(165,0,ls),
(178,0,o),
(185,7,o),
(185,20,cs),
(185,324,l),
(479,324,ls),
(492,324,o),
(499,331,o),
(499,344,cs),
(499,386,ls),
(499,399,o),
(492,406,o),
(479,406,cs),
(183,406,l),
(183,628,ls),
(183,641,o),
(190,648,o),
(203,648,cs),
(505,648,ls),
(518,648,o),
(525,655,o),
(525,668,cs),
(525,710,ls),
(525,723,o),
(518,730,o),
(505,730,cs),
(115,730,ls),
(102,730,o),
(95,723,o),
(95,710,cs),
(95,20,ls),
(95,7,o),
(102,0,o),
(115,0,cs)
);
}
);
width = 600;
},
{
anchors = (
{
name = bottom;
pos = (300,0);
},
{
name = top;
pos = (300,730);
}
);
layerId = "EDF5EB54-295C-4C90-9A2F-67CD82979CFF";
shapes = (
{
closed = 1;
nodes = (
(153,0,ls),
(160,0,o),
(165,5,o),
(165,12,cs),
(165,346,l),
(478,346,ls),
(485,346,o),
(490,351,o),
(490,358,cs),
(490,380,ls),
(490,387,o),
(485,392,o),
(478,392,cs),
(165,392,l),
(165,672,ls),
(165,679,o),
(170,684,o),
(177,684,cs),
(513,684,ls),
(520,684,o),
(525,689,o),
(525,696,cs),
(525,718,ls),
(525,725,o),
(520,730,o),
(513,730,cs),
(127,730,ls),
(120,730,o),
(115,725,o),
(115,718,cs),
(115,12,ls),
(115,5,o),
(120,0,o),
(127,0,cs)
);
}
);
width = 600;
}
);
unicode = 70;
},
{
glyphname = G;
layers = (
{
anchors = (
{
name = bottom;
pos = (304,0);
},
{
name = top;
pos = (300,730);
}
);
layerId = "9ADF6715-3D0F-493D-8567-18A6FBCFC567";
shapes = (
{
closed = 1;
nodes = (
(451,-10,o),
(548,77,o),
(548,210,cs),
(548,377,ls),
(548,395,o),
(538,405,o),
(520,405,cs),
(318,405,ls),
(300,405,o),
(290,395,o),
(290,377,cs),
(290,306,ls),
(290,288,o),
(300,278,o),
(318,278,cs),
(370,278,ls),
(388,278,o),
(398,268,o),
(398,250,cs),
(398,210,ls),
(398,152,o),
(364,120,o),
(304,120,cs),
(244,120,o),
(210,152,o),
(210,210,cs),
(210,520,ls),
(210,578,o),
(244,610,o),
(304,610,cs),
(354,610,o),
(386,588,o),
(395,547,cs),
(399,529,o),
(408,520,o),
(425,520,cs),
(519,520,ls),
(537,520,o),
(548,530,o),
(546,549,cs),
(533,665,o),
(440,740,o),
(304,740,cs),
(157,740,o),
(60,653,o),
(60,520,cs),
(60,210,ls),
(60,78,o),
(157,-10,o),
(304,-10,cs)
);
}
);
width = 600;
},
{
anchors = (
{
name = bottom;
pos = (304,0);
},
{
name = top;
pos = (300,730);
}
);
layerId = "CCC0BD40-BA8C-414E-B576-CF0B94E6C996";
shapes = (
{
closed = 1;
nodes = (
(435,-10,o),
(518,71,o),
(518,200,cs),
(518,362,ls),
(518,375,o),
(511,382,o),
(498,382,cs),
(300,382,ls),
(287,382,o),
(280,375,o),
(280,362,cs),
(280,320,ls),
(280,307,o),
(287,300,o),
(300,300,cs),
(408,300,ls),
(421,300,o),
(428,293,o),
(428,280,cs),
(428,200,ls),
(428,117,o),
(382,70,o),
(304,70,cs),
(225,70,o),
(178,117,o),
(178,200,cs),
(178,531,ls),
(178,613,o),
(225,659,o),
(304,659,cs),
(376,659,o),
(420,620,o),
(427,550,cs),
(428,537,o),
(436,530,o),
(448,530,cs),
(498,530,ls),
(511,530,o),
(518,537,o),
(517,551,cs),
(509,668,o),
(428,740,o),
(304,740,cs),
(171,740,o),
(88,661,o),
(88,530,cs),
(88,200,ls),
(88,69,o),
(171,-10,o),
(304,-10,cs)
);
}
);
width = 600;
},
{
anchors = (
{
name = bottom;
pos = (306,0);
},
{
name = top;
pos = (306,730);
}
);
layerId = "EDF5EB54-295C-4C90-9A2F-67CD82979CFF";
shapes = (
{
closed = 1;
nodes = (
(430,-10,o),
(510,72,o),
(510,200,cs),
(510,352,ls),
(510,359,o),
(505,364,o),
(498,364,cs),
(299,364,ls),
(292,364,o),
(287,359,o),
(287,352,cs),
(287,330,ls),
(287,323,o),
(292,318,o),
(299,318,cs),
(448,318,ls),
(455,318,o),
(460,313,o),
(460,306,cs),
(460,200,ls),
(460,98,o),
(402,35,o),
(306,35,cs),
(212,35,o),
(155,94,o),
(155,190,cs),
(155,540,ls),
(155,636,o),
(213,695,o),
(306,695,cs),
(397,695,o),
(455,637,o),
(460,542,cs),
(460,534,o),
(465,530,o),
(472,530,cs),
(498,530,ls),
(505,530,o),
(510,534,o),
(510,542,cs),
(505,663,o),
(426,740,o),
(306,740,cs),
(184,740,o),
(105,662,o),
(105,540,cs),
(105,190,ls),
(105,69,o),
(184,-10,o),
(306,-10,cs)
);
}
);
width = 600;
}
);
unicode = 71;
},
{
glyphname = H;
layers = (
{
anchors = (
{
name = bottom;
pos = (300,0);
},
{
name = center;
pos = (300,365);
},
{
name = top;
pos = (300,730);
},
{
name = topleft;
pos = (20,730);
}
);
layerId = "9ADF6715-3D0F-493D-8567-18A6FBCFC567";
shapes = (
{
closed = 1;
nodes = (
(188,0,ls),
(206,0,o),
(216,10,o),
(216,28,cs),
(216,311,l),
(384,311,l),
(384,28,ls),
(384,10,o),
(394,0,o),
(412,0,cs),
(506,0,ls),
(524,0,o),
(534,10,o),
(534,28,cs),
(534,702,ls),
(534,720,o),
(524,730,o),
(506,730,cs),
(412,730,ls),
(394,730,o),
(384,720,o),
(384,702,cs),
(384,446,l),
(216,446,l),
(216,702,ls),
(216,720,o),
(206,730,o),
(188,730,cs),
(94,730,ls),
(76,730,o),
(66,720,o),
(66,702,cs),
(66,28,ls),
(66,10,o),
(76,0,o),
(94,0,cs)
);
}
);
width = 600;
},
{
anchors = (
{
name = bottom;
pos = (300,0);
},
{
name = center;
pos = (300,365);
},
{
name = top;
pos = (300,730);
},
{
name = topleft;
pos = (20,730);
}
);
layerId = "CCC0BD40-BA8C-414E-B576-CF0B94E6C996";
shapes = (
{
closed = 1;
nodes = (
(163,0,ls),
(176,0,o),
(183,7,o),
(183,20,cs),
(183,336,l),
(417,336,l),
(417,20,ls),
(417,7,o),
(424,0,o),
(437,0,cs),
(487,0,ls),
(500,0,o),
(507,7,o),
(507,20,cs),
(507,710,ls),
(507,723,o),
(500,730,o),
(487,730,cs),
(437,730,ls),
(424,730,o),
(417,723,o),
(417,710,cs),
(417,418,l),
(183,418,l),
(183,710,ls),
(183,723,o),
(176,730,o),
(163,730,cs),
(113,730,ls),
(100,730,o),
(93,723,o),
(93,710,cs),
(93,20,ls),
(93,7,o),
(100,0,o),
(113,0,cs)
);
}
);
width = 600;
},
{
anchors = (
{
name = bottom;
pos = (300,0);
},
{
name = center;
pos = (300,365);
},
{
name = top;
pos = (300,730);
},
{
name = topleft;
pos = (20,730);
}
);
layerId = "EDF5EB54-295C-4C90-9A2F-67CD82979CFF";
shapes = (
{
closed = 1;
nodes = (
(148,0,ls),
(155,0,o),
(160,5,o),
(160,12,cs),
(160,357,l),
(440,357,l),
(440,12,ls),
(440,5,o),
(445,0,o),
(452,0,cs),
(478,0,ls),
(485,0,o),
(490,5,o),
(490,12,cs),
(490,718,ls),
(490,725,o),
(485,730,o),
(478,730,cs),
(452,730,ls),
(445,730,o),
(440,725,o),
(440,718,cs),
(440,402,l),
(160,402,l),
(160,718,ls),
(160,725,o),
(155,730,o),
(148,730,cs),
(122,730,ls),
(115,730,o),
(110,725,o),
(110,718,cs),
(110,12,ls),
(110,5,o),
(115,0,o),
(122,0,cs)
);
}
);
width = 600;
}
);
unicode = 72;
},
{
glyphname = Hbar;
layers = (
{
layerId = "9ADF6715-3D0F-493D-8567-18A6FBCFC567";
shapes = (
{
closed = 1;
nodes = (
(562,525,ls),
(580,525,o),
(590,535,o),
(590,553,cs),
(590,592,ls),
(590,610,o),
(580,620,o),
(562,620,cs),
(38,620,ls),
(20,620,o),
(10,610,o),
(10,592,cs),
(10,553,ls),
(10,535,o),
(20,525,o),
(38,525,cs)
);
},
{
alignment = -1;
ref = H;
}
);
width = 600;
},
{
layerId = "CCC0BD40-BA8C-414E-B576-CF0B94E6C996";
shapes = (
{
closed = 1;
nodes = (
(570,525,ls),
(583,525,o),
(590,532,o),
(590,545,cs),
(590,580,ls),
(590,593,o),
(583,600,o),
(570,600,cs),
(30,600,ls),
(17,600,o),
(10,593,o),
(10,580,cs),
(10,545,ls),
(10,532,o),
(17,525,o),
(30,525,cs)
);
},
{
alignment = -1;
ref = H;
}
);
width = 600;
},
{
layerId = "EDF5EB54-295C-4C90-9A2F-67CD82979CFF";
shapes = (
{
closed = 1;
nodes = (
(578,540,ls),
(585,540,o),
(590,545,o),
(590,552,cs),
(590,572,ls),
(590,579,o),
(585,584,o),
(578,584,cs),
(22,584,ls),
(15,584,o),
(10,579,o),
(10,572,cs),
(10,552,ls),
(10,545,o),
(15,540,o),
(22,540,cs)
);
},
{
alignment = -1;
ref = H;
}
);
width = 600;
}
);
unicode = 294;
},
{
glyphname = I;
layers = (
{
anchors = (
{
name = bottom;
pos = (300,0);
},
{
name = ogonek;
pos = (320,0);
},
{
name = top;
pos = (300,730);
},
{
name = topleft;
pos = (20,730);
}
);
layerId = "9ADF6715-3D0F-493D-8567-18A6FBCFC567";
shapes = (
{
closed = 1;
nodes = (
(492,0,ls),
(510,0,o),
(520,10,o),
(520,28,cs),
(520,107,ls),
(520,125,o),
(510,135,o),
(492,135,cs),
(375,135,l),
(375,595,l),
(492,595,ls),
(510,595,o),
(520,605,o),
(520,623,cs),
(520,702,ls),
(520,720,o),
(510,730,o),
(492,730,cs),
(108,730,ls),
(90,730,o),
(80,720,o),
(80,702,cs),
(80,623,ls),
(80,605,o),
(90,595,o),
(108,595,cs),
(225,595,l),
(225,135,l),
(108,135,ls),
(90,135,o),
(80,125,o),
(80,107,cs),
(80,28,ls),
(80,10,o),
(90,0,o),
(108,0,cs)
);
}
);
width = 600;
},
{
anchors = (
{
name = bottom;
pos = (300,0);
},
{
name = ogonek;
pos = (320,0);
},
{
name = top;
pos = (300,730);
},
{
name = topleft;
pos = (20,730);
}
);
layerId = "CCC0BD40-BA8C-414E-B576-CF0B94E6C996";
shapes = (
{
closed = 1;
nodes = (
(475,0,ls),
(488,0,o),
(495,7,o),
(495,20,cs),
(495,62,ls),
(495,75,o),
(488,82,o),
(475,82,cs),
(346,82,l),
(346,648,l),
(475,648,ls),
(488,648,o),
(495,655,o),
(495,668,cs),
(495,710,ls),
(495,723,o),
(488,730,o),
(475,730,cs),
(125,730,ls),
(112,730,o),
(105,723,o),
(105,710,cs),
(105,668,ls),
(105,655,o),
(112,648,o),
(125,648,cs),
(254,648,l),
(254,82,l),
(125,82,ls),
(112,82,o),
(105,75,o),
(105,62,cs),
(105,20,ls),
(105,7,o),
(112,0,o),
(125,0,cs)
);
}
);
width = 600;
},
{
anchors = (
{
name = bottom;
pos = (300,0);
},
{
name = ogonek;
pos = (320,0);
},
{
name = top;
pos = (300,730);
},
{
name = topleft;
pos = (20,730);
}
);
layerId = "EDF5EB54-295C-4C90-9A2F-67CD82979CFF";
shapes = (
{
closed = 1;
nodes = (
(468,0,ls),
(475,0,o),
(480,5,o),
(480,12,cs),
(480,34,ls),
(480,41,o),
(475,46,o),
(468,46,cs),
(326,46,l),
(326,684,l),
(468,684,ls),
(475,684,o),
(480,689,o),
(480,696,cs),
(480,718,ls),
(480,725,o),
(475,730,o),
(468,730,cs),
(132,730,ls),
(125,730,o),
(120,725,o),
(120,718,cs),
(120,696,ls),
(120,689,o),
(125,684,o),
(132,684,cs),
(276,684,l),
(276,46,l),
(132,46,ls),
(125,46,o),
(120,41,o),
(120,34,cs),
(120,12,ls),
(120,5,o),
(125,0,o),
(132,0,cs)
);
}
);
width = 600;
}
);
unicode = 73;
},
{
glyphname = IJ;
layers = (
{
layerId = "EDF5EB54-295C-4C90-9A2F-67CD82979CFF";
shapes = (
{
closed = 1;
nodes = (
(272,245,ls),
(279,245,o),
(284,250,o),
(284,257,cs),
(284,275,ls),
(284,282,o),
(279,287,o),
(272,287,cs),
(185,287,l),
(185,688,l),
(272,688,ls),
(279,688,o),
(284,693,o),
(284,700,cs),
(284,718,ls),
(284,725,o),
(279,730,o),
(272,730,cs),
(46,730,ls),
(39,730,o),
(34,725,o),
(34,718,cs),
(34,700,ls),
(34,693,o),
(39,688,o),
(46,688,cs),
(135,688,l),
(135,287,l),
(46,287,ls),
(39,287,o),
(34,282,o),
(34,275,cs),
(34,257,ls),
(34,250,o),
(39,245,o),
(46,245,cs)
);
},
{
closed = 1;
nodes = (
(467,-10,o),
(545,69,o),
(545,199,cs),
(545,718,ls),
(545,725,o),
(540,730,o),
(533,730,cs),
(507,730,ls),
(500,730,o),
(495,725,o),
(495,718,cs),
(495,199,ls),
(495,97,o),
(436,35,o),
(340,35,cs),
(253,35,o),
(195,85,o),
(186,168,cs),
(185,176,o),
(180,180,o),
(173,180,cs),
(147,180,ls),
(139,180,o),
(135,176,o),
(136,168,cs),
(146,57,o),
(222,-10,o),
(340,-10,cs)
);
}
);
width = 600;
},
{
layerId = "CCC0BD40-BA8C-414E-B576-CF0B94E6C996";
shapes = (
{
closed = 1;
nodes = (
(287,245,ls),
(300,245,o),
(307,252,o),
(307,265,cs),
(307,303,ls),
(307,316,o),
(300,323,o),
(287,323,cs),
(212,323,l),
(212,652,l),
(287,652,ls),
(300,652,o),
(307,659,o),
(307,672,cs),
(307,710,ls),
(307,723,o),
(300,730,o),
(287,730,cs),
(45,730,ls),
(32,730,o),
(25,723,o),
(25,710,cs),
(25,672,ls),
(25,659,o),
(32,652,o),
(45,652,cs),
(120,652,l),
(120,323,l),
(45,323,ls),
(32,323,o),
(25,316,o),
(25,303,cs),
(25,265,ls),
(25,252,o),
(32,245,o),
(45,245,cs)
);
},
{
closed = 1;
nodes = (
(473,-10,o),
(560,76,o),
(560,210,cs),
(560,710,ls),
(560,723,o),
(553,730,o),
(540,730,cs),
(490,730,ls),
(477,730,o),
(470,723,o),
(470,710,cs),
(470,210,ls),
(470,125,o),
(419,70,o),
(339,70,cs),
(273,70,o),
(226,105,o),
(214,161,cs),
(212,174,o),
(205,180,o),
(193,180,cs),
(143,180,ls),
(130,180,o),
(122,172,o),
(124,159,cs),
(137,55,o),
(219,-10,o),
(339,-10,cs)
);
}
);
width = 600;
},
{
layerId = "9ADF6715-3D0F-493D-8567-18A6FBCFC567";
shapes = (
{
closed = 1;
nodes = (
(282,245,ls),
(300,245,o),
(310,255,o),
(310,273,cs),
(310,322,ls),
(310,340,o),
(300,350,o),
(282,350,cs),
(235,350,l),
(235,625,l),
(282,625,ls),
(300,625,o),
(310,635,o),
(310,653,cs),
(310,702,ls),
(310,720,o),
(300,730,o),
(282,730,cs),
(38,730,ls),
(20,730,o),
(10,720,o),
(10,702,cs),
(10,653,ls),
(10,635,o),
(20,625,o),
(38,625,cs),
(85,625,l),
(85,350,l),
(38,350,ls),
(20,350,o),
(10,340,o),
(10,322,cs),
(10,273,ls),
(10,255,o),
(20,245,o),
(38,245,cs)
);
},
{
closed = 1;
nodes = (
(477,-10,o),
(570,77,o),
(570,219,cs),
(570,702,ls),
(570,720,o),
(560,730,o),
(542,730,cs),
(448,730,ls),
(430,730,o),
(420,720,o),
(420,702,cs),
(420,219,ls),
(420,157,o),
(384,120,o),
(325,120,cs),
(284,120,o),
(253,137,o),
(241,166,cs),
(234,182,o),
(226,190,o),
(210,190,cs),
(114,190,ls),
(96,190,o),
(85,179,o),
(87,161,cs),
(103,54,o),
(191,-10,o),
(325,-10,cs)
);
}
);
width = 600;
}
);
unicode = 306;
},
{
glyphname = IJ_acute;
layers = (
{
layerId = "EDF5EB54-295C-4C90-9A2F-67CD82979CFF";
shapes = (
{
closed = 1;
nodes = (
(272,245,ls),
(279,245,o),
(284,250,o),
(284,257,cs),
(284,275,ls),
(284,282,o),
(279,287,o),
(272,287,cs),
(185,287,l),
(185,688,l),
(272,688,ls),
(279,688,o),
(284,693,o),
(284,700,cs),
(284,718,ls),
(284,725,o),
(279,730,o),
(272,730,cs),
(46,730,ls),
(39,730,o),
(34,725,o),
(34,718,cs),
(34,700,ls),
(34,693,o),
(39,688,o),
(46,688,cs),
(135,688,l),
(135,287,l),
(46,287,ls),
(39,287,o),
(34,282,o),
(34,275,cs),
(34,257,ls),
(34,250,o),
(39,245,o),
(46,245,cs)
);
},
{
closed = 1;
nodes = (
(467,-10,o),
(545,69,o),
(545,199,cs),
(545,718,ls),
(545,725,o),
(540,730,o),
(533,730,cs),
(507,730,ls),
(500,730,o),
(495,725,o),
(495,718,cs),
(495,199,ls),
(495,97,o),
(436,35,o),
(340,35,cs),
(253,35,o),
(195,85,o),
(186,168,cs),
(185,176,o),
(180,180,o),
(173,180,cs),
(147,180,ls),
(139,180,o),
(135,176,o),
(136,168,cs),
(146,57,o),
(222,-10,o),
(340,-10,cs)
);
},
{
alignment = -1;
pos = (485,0);
ref = acutecomb.case;
},
{
alignment = -1;
pos = (826,0);
ref = acutecomb.case;
}
);
width = 600;
},
{
layerId = "CCC0BD40-BA8C-414E-B576-CF0B94E6C996";
shapes = (
{
closed = 1;
nodes = (
(287,245,ls),
(300,245,o),
(307,252,o),
(307,265,cs),
(307,303,ls),
(307,316,o),
(300,323,o),
(287,323,cs),
(212,323,l),
(212,652,l),
(287,652,ls),
(300,652,o),
(307,659,o),
(307,672,cs),
(307,710,ls),
(307,723,o),
(300,730,o),
(287,730,cs),
(45,730,ls),
(32,730,o),
(25,723,o),
(25,710,cs),
(25,672,ls),
(25,659,o),
(32,652,o),
(45,652,cs),
(120,652,l),
(120,323,l),
(45,323,ls),
(32,323,o),
(25,316,o),
(25,303,cs),
(25,265,ls),
(25,252,o),
(32,245,o),
(45,245,cs)
);
},
{
closed = 1;
nodes = (
(473,-10,o),
(560,76,o),
(560,210,cs),
(560,710,ls),
(560,723,o),
(553,730,o),
(540,730,cs),
(490,730,ls),
(477,730,o),
(470,723,o),
(470,710,cs),
(470,210,ls),
(470,125,o),
(419,70,o),
(339,70,cs),
(273,70,o),
(226,105,o),
(214,161,cs),
(212,174,o),
(205,180,o),
(193,180,cs),
(143,180,ls),
(130,180,o),
(122,172,o),
(124,159,cs),
(137,55,o),
(219,-10,o),
(339,-10,cs)
);
},
{
alignment = -1;
pos = (490,0);
ref = acutecomb.case;
},
{
alignment = -1;
pos = (831,0);
ref = acutecomb.case;
}
);
width = 600;
},
{
layerId = "9ADF6715-3D0F-493D-8567-18A6FBCFC567";
shapes = (
{
closed = 1;
nodes = (
(282,245,ls),
(300,245,o),
(310,255,o),
(310,273,cs),
(310,322,ls),
(310,340,o),
(300,350,o),
(282,350,cs),
(235,350,l),
(235,625,l),
(282,625,ls),
(300,625,o),
(310,635,o),
(310,653,cs),
(310,702,ls),
(310,720,o),
(300,730,o),
(282,730,cs),
(38,730,ls),
(20,730,o),
(10,720,o),
(10,702,cs),
(10,653,ls),
(10,635,o),
(20,625,o),
(38,625,cs),
(85,625,l),
(85,350,l),
(38,350,ls),
(20,350,o),
(10,340,o),
(10,322,cs),
(10,273,ls),
(10,255,o),
(20,245,o),
(38,245,cs)
);
},
{
closed = 1;
nodes = (
(477,-10,o),
(570,77,o),
(570,219,cs),
(570,702,ls),
(570,720,o),
(560,730,o),
(542,730,cs),
(448,730,ls),
(430,730,o),
(420,720,o),
(420,702,cs),
(420,219,ls),
(420,157,o),
(384,120,o),
(325,120,cs),
(284,120,o),
(253,137,o),
(241,166,cs),
(234,182,o),
(226,190,o),
(210,190,cs),
(114,190,ls),
(96,190,o),
(85,179,o),
(87,161,cs),
(103,54,o),
(191,-10,o),
(325,-10,cs)
);
},
{
alignment = -1;
pos = (476,0);
ref = acutecomb.case;
},
{
alignment = -1;
pos = (817,0);
ref = acutecomb.case;
}
);
width = 600;
}
);
},
{
glyphname = Iogonek;
layers = (
{
layerId = "EDF5EB54-295C-4C90-9A2F-67CD82979CFF";
shapes = (
{
closed = 1;
nodes = (
(363,-195,ls),
(370,-195,o),
(375,-190,o),
(375,-183,cs),
(375,-165,ls),
(375,-158,o),
(370,-153,o),
(363,-153,cs),
(311,-153,ls),
(279,-153,o),
(260,-134,o),
(260,-103,cs),
(260,-75,o),
(283,-36,o),
(321,0,cs),
(327,5,ls),
(330,8,o),
(328,10,o),
(325,10,cs),
(298,10,ls),
(296,10,o),
(294,10,o),
(293,8,cs),
(243,-28,o),
(213,-75,o),
(213,-115,cs),
(213,-165,o),
(247,-195,o),
(302,-195,cs)
);
},
{
ref = I;
}
);
width = 600;
},
{
layerId = "CCC0BD40-BA8C-414E-B576-CF0B94E6C996";
shapes = (
{
closed = 1;
nodes = (
(365,-203,ls),
(378,-203,o),
(385,-196,o),
(385,-183,cs),
(385,-163,ls),
(385,-150,o),
(378,-143,o),
(365,-143,cs),
(325,-143,ls),
(291,-143,o),
(270,-122,o),
(270,-93,cs),
(270,-65,o),
(289,-36,o),
(334,1,cs),
(339,5,ls),
(342,8,o),
(340,10,o),
(337,10,cs),
(273,10,ls),
(271,10,o),
(269,10,o),
(268,8,cs),
(206,-35,o),
(185,-72,o),
(185,-110,cs),
(185,-164,o),
(233,-203,o),
(307,-203,cs)
);
},
{
ref = I;
}
);
width = 600;
},
{
layerId = "9ADF6715-3D0F-493D-8567-18A6FBCFC567";
shapes = (
{
closed = 1;
nodes = (
(376,-225,ls),
(394,-225,o),
(404,-215,o),
(404,-197,cs),
(404,-148,ls),
(404,-130,o),
(394,-120,o),
(376,-120,cs),
(335,-120,ls),
(306,-120,o),
(289,-103,o),
(289,-83,cs),
(289,-66,o),
(304,-42,o),
(330,-18,cs),
(357,6,ls),
(360,9,o),
(358,11,o),
(355,11,cs),
(279,11,ls),
(278,11,o),
(275,11,o),
(274,10,cs),
(207,-20,o),
(165,-69,o),
(165,-115,cs),
(165,-180,o),
(215,-225,o),
(296,-225,cs)
);
},
{
ref = I;
}
);
width = 600;
}
);
unicode = 302;
},
{
glyphname = J;
layers = (
{
anchors = (
{
name = bottom;
pos = (300,0);
},
{
name = top;
pos = (450,730);
}
);
layerId = "9ADF6715-3D0F-493D-8567-18A6FBCFC567";
shapes = (
{
closed = 1;
nodes = (
(424,-10,o),
(520,78,o),
(520,219,cs),
(520,702,ls),
(520,720,o),
(510,730,o),
(492,730,cs),
(398,730,ls),
(380,730,o),
(370,720,o),
(370,702,cs),
(370,219,ls),
(370,158,o),
(331,120,o),
(270,120,cs),
(217,120,o),
(182,148,o),
(173,194,cs),
(169,212,o),
(160,221,o),
(143,221,cs),
(49,221,ls),
(31,221,o),
(20,211,o),
(21,192,cs),
(34,67,o),
(127,-10,o),
(270,-10,cs)
);
}
);
width = 600;
},
{
anchors = (
{
name = bottom;
pos = (300,0);
},
{
name = top;
pos = (450,730);
}
);
layerId = "CCC0BD40-BA8C-414E-B576-CF0B94E6C996";
shapes = (
{
closed = 1;
nodes = (
(409,-10,o),
(495,74,o),
(495,210,cs),
(495,710,ls),
(495,723,o),
(488,730,o),
(475,730,cs),
(425,730,ls),
(412,730,o),
(405,723,o),
(405,710,cs),
(405,210,ls),
(405,121,o),
(355,70,o),
(270,70,cs),
(192,70,o),
(143,113,o),
(136,190,cs),
(135,203,o),
(127,210,o),
(115,210,cs),
(65,210,ls),
(52,210,o),
(45,203,o),
(46,190,cs),
(54,66,o),
(137,-10,o),
(270,-10,cs)
);
}
);
width = 600;
},
{
anchors = (
{
name = bottom;
pos = (300,0);
},
{
name = top;
pos = (453,730);
}
);
layerId = "EDF5EB54-295C-4C90-9A2F-67CD82979CFF";
shapes = (
{
closed = 1;
nodes = (
(402,-10,o),
(480,69,o),
(480,199,cs),
(480,718,ls),
(480,725,o),
(475,730,o),
(468,730,cs),
(442,730,ls),
(435,730,o),
(430,725,o),
(430,718,cs),
(430,199,ls),
(430,98,o),
(371,35,o),
(275,35,cs),
(183,35,o),
(125,92,o),
(120,188,cs),
(120,196,o),
(115,200,o),
(108,200,cs),
(82,200,ls),
(75,200,o),
(70,196,o),
(70,188,cs),
(75,64,o),
(151,-10,o),
(275,-10,cs)
);
}
);
width = 600;
}
);
unicode = 74;
},
{
glyphname = K;
layers = (
{
anchors = (
{
name = bottom;
pos = (300,0);
},
{
name = top;
pos = (300,730);
}
);
layerId = "9ADF6715-3D0F-493D-8567-18A6FBCFC567";
shapes = (
{
closed = 1;
nodes = (
(187,0,ls),
(205,0,o),
(215,10,o),
(215,28,cs),
(215,313,l),
(286,313,l),
(402,22,ls),
(408,7,o),
(419,0,o),
(435,0,cs),
(540,0,ls),
(561,0,o),
(570,14,o),
(562,33,cs),
(417,385,l),
(555,697,ls),
(563,716,o),
(554,730,o),
(533,730,cs),
(430,730,ls),
(414,730,o),
(404,723,o),
(398,709,cs),
(285,444,l),
(215,444,l),
(215,702,ls),
(215,720,o),
(205,730,o),
(187,730,cs),
(93,730,ls),
(75,730,o),
(65,720,o),
(65,702,cs),
(65,28,ls),
(65,10,o),
(75,0,o),
(93,0,cs)
);
}
);
width = 600;
},
{
anchors = (
{
name = bottom;
pos = (300,0);
},
{
name = top;
pos = (300,730);
}
);
layerId = "CCC0BD40-BA8C-414E-B576-CF0B94E6C996";
shapes = (
{
closed = 1;
nodes = (
(162,0,ls),
(175,0,o),
(182,7,o),
(182,20,cs),
(182,337,l),
(287,337,l),
(450,14,ls),
(455,4,o),
(462,0,o),
(473,0,cs),
(533,0,ls),
(548,0,o),
(555,10,o),
(548,24,cs),
(369,378,l),
(538,706,ls),
(545,720,o),
(538,730,o),
(523,730,cs),
(468,730,ls),
(457,730,o),
(450,726,o),
(445,716,cs),
(290,416,l),
(182,416,l),
(182,710,ls),
(182,723,o),
(175,730,o),
(162,730,cs),
(112,730,ls),
(99,730,o),
(92,723,o),
(92,710,cs),
(92,20,ls),
(92,7,o),
(99,0,o),
(112,0,cs)
);
}
);
width = 600;
},
{
anchors = (
{
name = bottom;
pos = (300,0);
},
{
name = top;
pos = (300,730);
}
);
layerId = "EDF5EB54-295C-4C90-9A2F-67CD82979CFF";
shapes = (
{
closed = 1;
nodes = (
(148,0,ls),
(155,0,o),
(160,5,o),
(160,12,cs),
(160,356,l),
(312,356,l),
(477,9,ls),
(480,3,o),
(485,0,o),
(491,0,cs),
(524,0,ls),
(533,0,o),
(537,5,o),
(533,14,cs),
(358,381,l),
(523,716,ls),
(527,725,o),
(523,730,o),
(514,730,cs),
(485,730,ls),
(479,730,o),
(474,727,o),
(471,721,cs),
(313,401,l),
(160,401,l),
(160,718,ls),
(160,725,o),
(155,730,o),
(148,730,cs),
(122,730,ls),
(115,730,o),
(110,725,o),
(110,718,cs),
(110,12,ls),
(110,5,o),
(115,0,o),
(122,0,cs)
);
}
);
width = 600;
}
);
unicode = 75;
},
{
glyphname = L;
layers = (
{
anchors = (
{
name = bottom;
pos = (340,0);
},
{
name = center;
pos = (300,365);
},
{
name = top;
pos = (190,730);
}
);
layerId = "9ADF6715-3D0F-493D-8567-18A6FBCFC567";
shapes = (
{
closed = 1;
nodes = (
(532,0,ls),
(550,0,o),
(560,10,o),
(560,28,cs),
(560,107,ls),
(560,125,o),
(550,135,o),
(532,135,cs),
(293,135,ls),
(275,135,o),
(265,145,o),
(265,163,cs),
(265,702,ls),
(265,720,o),
(255,730,o),
(237,730,cs),
(143,730,ls),
(125,730,o),
(115,720,o),
(115,702,cs),
(115,28,ls),
(115,10,o),
(125,0,o),
(143,0,cs)
);
}
);
width = 600;
},
{
anchors = (
{
name = bottom;
pos = (340,0);
},
{
name = center;
pos = (300,365);
},
{
name = top;
pos = (175,730);
}
);
layerId = "CCC0BD40-BA8C-414E-B576-CF0B94E6C996";
shapes = (
{
closed = 1;
nodes = (
(530,0,ls),
(543,0,o),
(550,7,o),
(550,20,cs),
(550,62,ls),
(550,75,o),
(543,82,o),
(530,82,cs),
(240,82,ls),
(227,82,o),
(220,89,o),
(220,102,cs),
(220,710,ls),
(220,723,o),
(213,730,o),
(200,730,cs),
(150,730,ls),
(137,730,o),
(130,723,o),
(130,710,cs),
(130,20,ls),
(130,7,o),
(137,0,o),
(150,0,cs)
);
}
);
width = 600;
},
{
anchors = (
{
name = bottom;
pos = (340,0);
},
{
name = center;
pos = (300,365);
},
{
name = top;
pos = (166,730);
}
);
layerId = "EDF5EB54-295C-4C90-9A2F-67CD82979CFF";
shapes = (
{
closed = 1;
nodes = (
(533,0,ls),
(540,0,o),
(545,5,o),
(545,12,cs),
(545,34,ls),
(545,41,o),
(540,46,o),
(533,46,cs),
(202,46,ls),
(195,46,o),
(190,51,o),
(190,58,cs),
(190,718,ls),
(190,725,o),
(185,730,o),
(178,730,cs),
(152,730,ls),
(145,730,o),
(140,725,o),
(140,718,cs),
(140,12,ls),
(140,5,o),
(145,0,o),
(152,0,cs)
);
}
);
width = 600;
}
);
unicode = 76;
},
{
glyphname = Lslash;
layers = (
{
layerId = "9ADF6715-3D0F-493D-8567-18A6FBCFC567";
shapes = (
{
closed = 1;
nodes = (
(380,410,ls),
(394,417,o),
(400,428,o),
(400,443,cs),
(400,523,ls),
(400,544,o),
(386,553,o),
(367,543,cs),
(40,380,ls),
(26,373,o),
(20,362,o),
(20,347,cs),
(20,267,ls),
(20,246,o),
(34,237,o),
(53,247,cs)
);
},
{
alignment = -1;
pos = (10,0);
ref = L;
}
);
width = 600;
},
{
layerId = "CCC0BD40-BA8C-414E-B576-CF0B94E6C996";
shapes = (
{
closed = 1;
nodes = (
(377,471,ls),
(386,477,o),
(390,485,o),
(390,495,cs),
(390,531,ls),
(390,547,o),
(379,553,o),
(366,544,cs),
(33,319,ls),
(24,313,o),
(20,305,o),
(20,295,cs),
(20,259,ls),
(20,243,o),
(31,237,o),
(44,246,cs)
);
},
{
alignment = -1;
ref = L;
}
);
width = 600;
},
{
layerId = "EDF5EB54-295C-4C90-9A2F-67CD82979CFF";
shapes = (
{
closed = 1;
nodes = (
(382,490,ls),
(387,494,o),
(390,498,o),
(390,504,cs),
(390,532,ls),
(390,542,o),
(383,545,o),
(375,540,cs),
(28,300,ls),
(23,296,o),
(20,292,o),
(20,286,cs),
(20,258,ls),
(20,248,o),
(27,245,o),
(35,250,cs)
);
},
{
alignment = -1;
pos = (10,0);
ref = L;
}
);
width = 600;
}
);
unicode = 321;
},
{
glyphname = M;
layers = (
{
anchors = (
{
name = bottom;
pos = (300,0);
},
{
name = top;
pos = (300,730);
}
);
layerId = "9ADF6715-3D0F-493D-8567-18A6FBCFC567";
shapes = (
{
closed = 1;
nodes = (
(151,0,ls),
(169,0,o),
(179,10,o),
(179,28,cs),
(179,280,ls),
(179,433,o),
(161,574,o),
(148,661,c),
(232,334,ls),
(236,317,o),
(247,310,o),
(263,310,cs),
(333,310,ls),
(349,310,o),
(360,317,o),
(364,334,cs),
(450,670,l),
(437,567,o),
(421,426,o),
(421,280,cs),
(421,28,ls),
(421,10,o),
(431,0,o),
(449,0,cs),
(530,0,ls),
(548,0,o),
(558,10,o),
(558,28,cs),
(558,702,ls),
(558,720,o),
(548,730,o),
(530,730,cs),
(398,730,ls),
(382,730,o),
(371,723,o),
(367,706,cs),
(316,490,ls),
(310,463,o),
(288,463,o),
(282,490,cs),
(231,706,ls),
(227,723,o),
(216,730,o),
(200,730,cs),
(70,730,ls),
(52,730,o),
(42,720,o),
(42,702,cs),
(42,28,ls),
(42,10,o),
(52,0,o),
(70,0,cs)
);
}
);
width = 600;
},
{
anchors = (
{
name = bottom;
pos = (300,0);
},
{
name = top;
pos = (300,730);
}
);
layerId = "EDF5EB54-295C-4C90-9A2F-67CD82979CFF";
shapes = (
{
closed = 1;
nodes = (
(129,0,ls),
(136,0,o),
(141,5,o),
(141,12,cs),
(141,440,ls),
(141,542,o),
(136,651,o),
(131,705,c),
(269,335,ls),
(271,328,o),
(276,325,o),
(283,325,cs),
(318,325,ls),
(325,325,o),
(329,328,o),
(331,335,cs),
(467,707,l),
(463,653,o),
(459,542,o),
(459,440,cs),
(459,12,ls),
(459,5,o),
(464,0,o),
(471,0,cs),
(496,0,ls),
(503,0,o),
(508,5,o),
(508,12,cs),
(508,718,ls),
(508,725,o),
(503,730,o),
(496,730,cs),
(447,730,ls),
(440,730,o),
(435,727,o),
(433,720,cs),
(309,382,ls),
(305,371,o),
(297,371,o),
(293,382,cs),
(167,720,ls),
(165,727,o),
(160,730,o),
(153,730,cs),
(104,730,ls),
(97,730,o),
(92,725,o),
(92,718,cs),
(92,12,ls),
(92,5,o),
(97,0,o),
(104,0,cs)
);
}
);
width = 600;
},
{
anchors = (
{
name = bottom;
pos = (300,0);
},
{
name = top;
pos = (300,730);
}
);
layerId = "CCC0BD40-BA8C-414E-B576-CF0B94E6C996";
shapes = (
{
closed = 1;
nodes = (
(139,0,ls),
(152,0,o),
(159,7,o),
(159,20,cs),
(159,345,ls),
(159,477,o),
(156,595,o),
(145,694,c),
(253,343,ls),
(256,332,o),
(264,326,o),
(275,326,cs),
(319,326,ls),
(330,326,o),
(338,332,o),
(341,343,cs),
(454,703,l),
(445,598,o),
(441,443,o),
(441,345,cs),
(441,20,ls),
(441,7,o),
(448,0,o),
(461,0,cs),
(508,0,ls),
(521,0,o),
(528,7,o),
(528,20,cs),
(528,710,ls),
(528,723,o),
(521,730,o),
(508,730,cs),
(412,730,ls),
(401,730,o),
(393,724,o),
(390,713,cs),
(311,456,ls),
(305,438,o),
(291,438,o),
(286,456,cs),
(210,713,ls),
(207,725,o),
(199,730,o),
(188,730,cs),
(92,730,ls),
(79,730,o),
(72,723,o),
(72,710,cs),
(72,20,ls),
(72,7,o),
(79,0,o),
(92,0,cs)
);
}
);
width = 600;
}
);
unicode = 77;
},
{
glyphname = N;
layers = (
{
anchors = (
{
name = bottom;
pos = (300,0);
},
{
name = top;
pos = (300,730);
}
);
layerId = "CCC0BD40-BA8C-414E-B576-CF0B94E6C996";
shapes = (
{
closed = 1;
nodes = (
(157,0,ls),
(170,0,o),
(177,7,o),
(177,20,cs),
(177,410,ls),
(177,483,o),
(172,576,o),
(168,625,c),
(384,16,ls),
(388,5,o),
(396,0,o),
(407,0,cs),
(490,0,ls),
(503,0,o),
(510,7,o),
(510,20,cs),
(510,710,ls),
(510,723,o),
(503,730,o),
(490,730,cs),
(443,730,ls),
(430,730,o),
(423,723,o),
(423,710,cs),
(423,320,ls),
(423,247,o),
(429,154,o),
(433,105,c),
(216,714,ls),
(212,725,o),
(204,730,o),
(193,730,cs),
(110,730,ls),
(97,730,o),
(90,723,o),
(90,710,cs),
(90,20,ls),
(90,7,o),
(97,0,o),
(110,0,cs)
);
}
);
width = 600;
},
{
anchors = (
{
name = bottom;
pos = (300,0);
},
{
name = top;
pos = (300,730);
}
);
layerId = "EDF5EB54-295C-4C90-9A2F-67CD82979CFF";
shapes = (
{
closed = 1;
nodes = (
(146,0,ls),
(153,0,o),
(158,5,o),
(158,12,cs),
(158,560,ls),
(158,611,o),
(157,656,o),
(156,675,c),
(417,9,ls),
(419,3,o),
(424,0,o),
(431,0,cs),
(478,0,ls),
(485,0,o),
(490,5,o),
(490,12,cs),
(490,718,ls),
(490,725,o),
(485,730,o),
(478,730,cs),
(454,730,ls),
(447,730,o),
(442,725,o),
(442,718,cs),
(442,170,ls),
(442,155,o),
(444,95,o),
(446,55,c),
(182,721,ls),
(180,727,o),
(175,730,o),
(168,730,cs),
(122,730,ls),
(115,730,o),
(110,725,o),
(110,718,cs),
(110,12,ls),
(110,5,o),
(115,0,o),
(122,0,cs)
);
}
);
width = 600;
},
{
anchors = (
{
name = bottom;
pos = (300,0);
},
{
name = top;
pos = (300,730);
}
);
layerId = "9ADF6715-3D0F-493D-8567-18A6FBCFC567";
shapes = (
{
closed = 1;
nodes = (
(164,0,ls),
(182,0,o),
(192,10,o),
(192,28,cs),
(192,320,ls),
(192,389,o),
(184,501,o),
(178,565,c),
(357,23,ls),
(362,8,o),
(373,0,o),
(389,0,cs),
(512,0,ls),
(530,0,o),
(540,10,o),
(540,28,cs),
(540,702,ls),
(540,720,o),
(530,730,o),
(512,730,cs),
(436,730,ls),
(418,730,o),
(408,720,o),
(408,702,cs),
(408,430,ls),
(408,361,o),
(417,238,o),
(424,165,c),
(243,707,ls),
(238,722,o),
(227,730,o),
(211,730,cs),
(88,730,ls),
(70,730,o),
(60,720,o),
(60,702,cs),
(60,28,ls),
(60,10,o),
(70,0,o),
(88,0,cs)
);
}
);
width = 600;
}
);
unicode = 78;
},
{
glyphname = Eng;
layers = (
{
layerId = "9ADF6715-3D0F-493D-8567-18A6FBCFC567";
shapes = (
{
closed = 1;
nodes = (
(300,-180,ls),
(441,-180,o),
(540,-96,o),
(540,25,cs),
(540,702,ls),
(540,720,o),
(530,730,o),
(512,730,cs),
(436,730,ls),
(418,730,o),
(408,720,o),
(408,702,cs),
(408,526,ls),
(408,457,o),
(417,334,o),
(424,261,c),
(244,708,ls),
(238,723,o),
(227,730,o),
(211,730,cs),
(88,730,ls),
(70,730,o),
(60,720,o),
(60,702,cs),
(60,28,ls),
(60,10,o),
(70,0,o),
(88,0,cs),
(164,0,ls),
(182,0,o),
(192,10,o),
(192,28,cs),
(192,320,ls),
(192,389,o),
(184,501,o),
(178,565,c),
(390,41,l),
(390,-7,o),
(361,-35,o),
(310,-35,cs),
(278,-35,ls),
(260,-35,o),
(250,-45,o),
(250,-63,cs),
(250,-152,ls),
(250,-170,o),
(260,-180,o),
(278,-180,cs)
);
}
);
width = 600;
},
{
layerId = "CCC0BD40-BA8C-414E-B576-CF0B94E6C996";
shapes = (
{
closed = 1;
nodes = (
(305,-180,ls),
(429,-180,o),
(510,-103,o),
(510,15,cs),
(510,710,ls),
(510,723,o),
(503,730,o),
(490,730,cs),
(443,730,ls),
(430,730,o),
(423,723,o),
(423,710,cs),
(423,397,ls),
(423,324,o),
(429,231,o),
(433,181,c),
(216,714,ls),
(212,724,o),
(204,730,o),
(193,730,cs),
(110,730,ls),
(97,730,o),
(90,723,o),
(90,710,cs),
(90,20,ls),
(90,7,o),
(97,0,o),
(110,0,cs),
(157,0,ls),
(170,0,o),
(177,7,o),
(177,20,cs),
(177,410,ls),
(177,483,o),
(172,576,o),
(168,625,c),
(420,15,l),
(420,-55,o),
(376,-98,o),
(305,-98,cs),
(260,-98,ls),
(247,-98,o),
(240,-105,o),
(240,-118,cs),
(240,-160,ls),
(240,-173,o),
(247,-180,o),
(260,-180,cs)
);
}
);
width = 600;
},
{
layerId = "EDF5EB54-295C-4C90-9A2F-67CD82979CFF";
shapes = (
{
closed = 1;
nodes = (
(307,-180,ls),
(425,-180,o),
(491,-115,o),
(491,0,cs),
(491,718,ls),
(491,725,o),
(486,730,o),
(479,730,cs),
(455,730,ls),
(448,730,o),
(443,725,o),
(443,718,cs),
(443,219,ls),
(443,168,o),
(445,118,o),
(447,94,c),
(182,721,ls),
(179,728,o),
(174,730,o),
(168,730,cs),
(121,730,ls),
(114,730,o),
(109,725,o),
(109,718,cs),
(109,12,ls),
(109,5,o),
(114,0,o),
(121,0,cs),
(145,0,ls),
(152,0,o),
(157,5,o),
(157,12,cs),
(157,560,ls),
(157,611,o),
(156,656,o),
(155,675,c),
(441,0,l),
(441,-88,o),
(395,-135,o),
(307,-135,cs),
(239,-135,ls),
(232,-135,o),
(227,-140,o),
(227,-147,cs),
(227,-168,ls),
(227,-175,o),
(232,-180,o),
(239,-180,cs)
);
}
);
width = 600;
}
);
unicode = 330;
},
{
glyphname = O;
layers = (
{
anchors = (
{
name = bottom;
pos = (300,0);
},
{
name = center;
pos = (300,365);
},
{
name = horn;
pos = (320,700);
},
{
name = ogonek;
pos = (355,0);
},
{
name = top;
pos = (300,730);
},
{
name = topleft;
pos = (20,730);
},
{
name = topright;
pos = (580,730);
}
);
layerId = "EDF5EB54-295C-4C90-9A2F-67CD82979CFF";
shapes = (
{
closed = 1;
nodes = (
(419,-10,o),
(495,68,o),
(495,190,cs),
(495,540,ls),
(495,661,o),
(418,740,o),
(300,740,cs),
(182,740,o),
(105,661,o),
(105,540,cs),
(105,190,ls),
(105,68,o),
(182,-10,o),
(300,-10,cs)
);
},
{
closed = 1;
nodes = (
(208,34,o),
(155,91,o),
(155,190,cs),
(155,540,ls),
(155,638,o),
(209,696,o),
(300,696,cs),
(391,696,o),
(445,638,o),
(445,540,cs),
(445,190,ls),
(445,91,o),
(392,34,o),
(300,34,cs)
);
}
);
width = 600;
},
{
anchors = (
{
name = bottom;
pos = (300,0);
},
{
name = center;
pos = (300,365);
},
{
name = horn;
pos = (320,700);
},
{
name = ogonek;
pos = (350,0);
},
{
name = top;
pos = (300,730);
},
{
name = topleft;
pos = (20,730);
},
{
name = topright;
pos = (580,730);
}
);
layerId = "CCC0BD40-BA8C-414E-B576-CF0B94E6C996";
shapes = (
{
closed = 1;
nodes = (
(431,-10,o),
(512,69,o),
(512,210,cs),
(512,521,ls),
(512,661,o),
(431,740,o),
(300,740,cs),
(169,740,o),
(88,661,o),
(88,520,cs),
(88,210,ls),
(88,69,o),
(169,-10,o),
(300,-10,cs)
);
},
{
closed = 1;
nodes = (
(222,71,o),
(178,117,o),
(178,200,cs),
(178,530,ls),
(178,613,o),
(222,659,o),
(300,659,cs),
(378,659,o),
(422,613,o),
(422,530,cs),
(422,200,ls),
(422,117,o),
(378,71,o),
(300,71,cs)
);
}
);
width = 600;
},
{
anchors = (
{
name = bottom;
pos = (300,0);
},
{
name = center;
pos = (300,365);
},
{
name = horn;
pos = (320,700);
},
{
name = ogonek;
pos = (345,0);
},
{
name = top;
pos = (300,730);
},
{
name = topleft;
pos = (20,730);
},
{
name = topright;
pos = (580,730);
}
);
layerId = "9ADF6715-3D0F-493D-8567-18A6FBCFC567";
shapes = (
{
closed = 1;
nodes = (
(447,-10,o),
(540,78,o),
(540,220,cs),
(540,510,ls),
(540,652,o),
(447,740,o),
(300,740,cs),
(153,740,o),
(60,652,o),
(60,510,cs),
(60,220,ls),
(60,78,o),
(153,-10,o),
(300,-10,cs)
);
},
{
closed = 1;
nodes = (
(240,120,o),
(210,152,o),
(210,210,cs),
(210,520,ls),
(210,578,o),
(239,610,o),
(300,610,cs),
(361,610,o),
(390,578,o),
(390,520,cs),
(390,210,ls),
(390,152,o),
(360,120,o),
(300,120,cs)
);
}
);
width = 600;
}
);
unicode = 79;
},
{
glyphname = Ohorn;
layers = (
{
anchors = (
{
name = top;
pos = (290,730);
}
);
layerId = "9ADF6715-3D0F-493D-8567-18A6FBCFC567";
shapes = (
{
closed = 1;
nodes = (
(441,600,ls),
(528,600,o),
(586,654,o),
(586,735,cs),
(586,782,ls),
(586,800,o),
(576,810,o),
(558,810,cs),
(494,810,ls),
(476,810,o),
(466,800,o),
(466,782,cs),
(466,735,ls),
(466,713,o),
(453,700,o),
(431,700,cs),
(409,700,ls),
(391,700,o),
(381,690,o),
(381,672,cs),
(381,628,ls),
(381,610,o),
(391,600,o),
(409,600,cs)
);
},
{
ref = O;
}
);
width = 600;
},
{
anchors = (
{
name = top;
pos = (290,730);
}
);
layerId = "CCC0BD40-BA8C-414E-B576-CF0B94E6C996";
shapes = (
{
closed = 1;
nodes = (
(425,635,ls),
(489,635,o),
(530,672,o),
(530,730,cs),
(530,790,ls),
(530,803,o),
(523,810,o),
(510,810,cs),
(475,810,ls),
(462,810,o),
(455,803,o),
(455,790,cs),
(455,735,ls),
(455,714,o),
(441,700,o),
(420,700,cs),
(412,700,ls),
(405,700,o),
(400,695,o),
(400,688,cs),
(400,647,ls),
(400,640,o),
(405,635,o),
(412,635,cs)
);
},
{
ref = O;
}
);
width = 600;
},
{
anchors = (
{
name = top;
pos = (290,730);
}
);
layerId = "EDF5EB54-295C-4C90-9A2F-67CD82979CFF";
shapes = (
{
closed = 1;
nodes = (
(435,665,ls),
(486,665,o),
(520,699,o),
(520,750,cs),
(520,798,ls),
(520,805,o),
(515,810,o),
(508,810,cs),
(492,810,ls),
(485,810,o),
(480,805,o),
(480,798,cs),
(480,750,ls),
(480,720,o),
(462,700,o),
(435,700,cs),
(422,700,ls),
(415,700,o),
(410,695,o),
(410,688,cs),
(410,677,ls),
(410,670,o),
(415,665,o),
(422,665,cs)
);
},
{
ref = O;
}
);
width = 600;
}
);
unicode = 416;
},
{
glyphname = Oogonek;
layers = (
{
anchors = (
{
name = horn;
pos = (320,700);
},
{
name = top;
pos = (300,730);
}
);
layerId = "9ADF6715-3D0F-493D-8567-18A6FBCFC567";
shapes = (
{
closed = 1;
nodes = (
(462,-225,l),
(462,-120,l),
(393,-120,ls),
(364,-120,o),
(347,-103,o),
(347,-82,cs),
(347,-65,o),
(359,-38,o),
(386,-17,cs),
(434,21,l),
(498,58,o),
(540,127,o),
(540,210,cs),
(540,520,ls),
(540,652,o),
(447,740,o),
(300,740,cs),
(153,740,o),
(60,652,o),
(60,520,cs),
(60,210,ls),
(60,78,o),
(153,-10,o),
(300,-10,cs),
(333,-10,o),
(348,11,o),
(348,21,c),
(280,-9,o),
(223,-68,o),
(223,-115,cs),
(223,-180,o),
(273,-225,o),
(354,-225,cs)
);
},
{
closed = 1;
nodes = (
(240,120,o),
(210,152,o),
(210,210,cs),
(210,520,ls),
(210,578,o),
(239,610,o),
(300,610,cs),
(361,610,o),
(390,578,o),
(390,520,cs),
(390,210,ls),
(390,152,o),
(360,120,o),
(300,120,cs)
);
}
);
width = 600;
},
{
anchors = (
{
name = horn;
pos = (320,700);
},
{
name = top;
pos = (300,730);
}
);
layerId = "EDF5EB54-295C-4C90-9A2F-67CD82979CFF";
shapes = (
{
closed = 1;
nodes = (
(442,-195,l),
(442,-153,l),
(378,-153,ls),
(346,-153,o),
(327,-134,o),
(327,-103,cs),
(327,-75,o),
(349,-33,o),
(388,2,cs),
(397,10,l),
(459,45,o),
(495,105,o),
(495,190,cs),
(495,540,ls),
(495,661,o),
(418,740,o),
(300,740,cs),
(182,740,o),
(105,661,o),
(105,540,cs),
(105,190,ls),
(105,68,o),
(182,-10,o),
(300,-10,cs),
(311,-10,o),
(329,-9,o),
(340,-6,c),
(302,-39,o),
(280,-80,o),
(280,-115,cs),
(280,-165,o),
(314,-195,o),
(369,-195,cs)
);
},
{
closed = 1;
nodes = (
(208,34,o),
(155,91,o),
(155,190,cs),
(155,540,ls),
(155,638,o),
(209,696,o),
(300,696,cs),
(391,696,o),
(445,638,o),
(445,540,cs),
(445,190,ls),
(445,91,o),
(392,34,o),
(300,34,cs)
);
}
);
width = 600;
},
{
anchors = (
{
name = horn;
pos = (320,700);
},
{
name = top;
pos = (300,730);
}
);
layerId = "CCC0BD40-BA8C-414E-B576-CF0B94E6C996";
shapes = (
{
closed = 1;
nodes = (
(457,-203,l),
(457,-143,l),
(397,-143,ls),
(363,-143,o),
(342,-122,o),
(342,-93,cs),
(342,-65,o),
(357,-36,o),
(401,1,cs),
(430,25,l),
(482,60,o),
(512,121,o),
(512,200,cs),
(512,531,ls),
(512,661,o),
(431,740,o),
(300,740,cs),
(169,740,o),
(88,661,o),
(88,530,cs),
(88,200,ls),
(88,69,o),
(169,-10,o),
(300,-10,cs),
(304,-10,o),
(309,-10,o),
(313,-10,c),
(277,-45,o),
(257,-82,o),
(257,-110,cs),
(257,-164,o),
(305,-203,o),
(379,-203,cs)
);
},
{
closed = 1;
nodes = (
(222,71,o),
(178,117,o),
(178,200,cs),
(178,530,ls),
(178,613,o),
(222,659,o),
(300,659,cs),
(378,659,o),
(422,613,o),
(422,530,cs),
(422,200,ls),
(422,117,o),
(378,71,o),
(300,71,cs)
);
}
);
width = 600;
}
);
unicode = 490;
},
{
glyphname = Oslash;
layers = (
{
anchors = (
{
name = bottom;
pos = (300,0);
},
{
name = horn;
pos = (320,730);
},
{
name = top;
pos = (300,730);
}
);
layerId = "9ADF6715-3D0F-493D-8567-18A6FBCFC567";
shapes = (
{
closed = 1;
nodes = (
(111,-40,ls),
(126,-40,o),
(137,-34,o),
(144,-21,cs),
(566,716,ls),
(577,736,o),
(568,750,o),
(546,750,cs),
(489,750,ls),
(474,750,o),
(463,744,o),
(456,731,cs),
(34,-6,ls),
(23,-26,o),
(32,-40,o),
(54,-40,cs)
);
},
{
closed = 1;
nodes = (
(447,-10,o),
(540,78,o),
(540,210,cs),
(540,520,ls),
(540,652,o),
(447,740,o),
(300,740,cs),
(153,740,o),
(60,652,o),
(60,520,cs),
(60,210,ls),
(60,78,o),
(153,-10,o),
(300,-10,cs)
);
},
{
closed = 1;
nodes = (
(239,120,o),
(205,152,o),
(205,210,cs),
(205,520,ls),
(205,578,o),
(239,610,o),
(300,610,cs),
(361,610,o),
(395,578,o),
(395,520,cs),
(395,210,ls),
(395,152,o),
(361,120,o),
(300,120,cs)
);
}
);
width = 600;
},
{
anchors = (
{
name = bottom;
pos = (300,0);
},
{
name = horn;
pos = (320,730);
},
{
name = top;
pos = (300,730);
}
);
layerId = "CCC0BD40-BA8C-414E-B576-CF0B94E6C996";
shapes = (
{
closed = 1;
nodes = (
(103,-40,ls),
(114,-40,o),
(122,-36,o),
(127,-26,cs),
(551,726,ls),
(559,739,o),
(553,750,o),
(538,750,cs),
(497,750,ls),
(486,750,o),
(478,746,o),
(473,736,cs),
(49,-16,ls),
(41,-29,o),
(47,-40,o),
(62,-40,cs)
);
},
{
closed = 1;
nodes = (
(431,-10,o),
(512,69,o),
(512,200,cs),
(512,531,ls),
(512,661,o),
(431,740,o),
(300,740,cs),
(169,740,o),
(88,661,o),
(88,530,cs),
(88,200,ls),
(88,69,o),
(169,-10,o),
(300,-10,cs)
);
},
{
closed = 1;
nodes = (
(222,71,o),
(178,117,o),
(178,200,cs),
(178,530,ls),
(178,613,o),
(222,659,o),
(300,659,cs),
(378,659,o),
(422,613,o),
(422,530,cs),
(422,200,ls),
(422,117,o),
(378,71,o),
(300,71,cs)
);
}
);
width = 600;
},
{
anchors = (
{
name = bottom;
pos = (300,0);
},
{
name = horn;
pos = (320,730);
},
{
name = top;
pos = (300,730);
}
);
layerId = "EDF5EB54-295C-4C90-9A2F-67CD82979CFF";
shapes = (
{
closed = 1;
nodes = (
(88,-40,ls),
(94,-40,o),
(100,-37,o),
(103,-32,cs),
(542,736,ls),
(547,745,o),
(542,750,o),
(533,750,cs),
(512,750,ls),
(506,750,o),
(500,747,o),
(497,742,cs),
(58,-26,ls),
(53,-35,o),
(58,-40,o),
(67,-40,cs)
);
},
{
closed = 1;
nodes = (
(419,-10,o),
(495,68,o),
(495,190,cs),
(495,540,ls),
(495,661,o),
(418,740,o),
(300,740,cs),
(182,740,o),
(105,661,o),
(105,540,cs),
(105,190,ls),
(105,68,o),
(182,-10,o),
(300,-10,cs)
);
},
{
closed = 1;
nodes = (
(208,34,o),
(155,91,o),
(155,190,cs),
(155,540,ls),
(155,638,o),
(209,696,o),
(300,696,cs),
(391,696,o),
(445,638,o),
(445,540,cs),
(445,190,ls),
(445,91,o),
(392,34,o),
(300,34,cs)
);
}
);
width = 600;
}
);
unicode = 216;
},
{
glyphname = OE;
layers = (
{
layerId = "9ADF6715-3D0F-493D-8567-18A6FBCFC567";
shapes = (
{
closed = 1;
nodes = (
(247,-4,o),
(280,47,o),
(285,86,c),
(290,86,l),
(290,28,ls),
(290,10,o),
(300,0,o),
(318,0,cs),
(552,0,ls),
(570,0,o),
(580,10,o),
(580,28,cs),
(580,98,ls),
(580,116,o),
(570,126,o),
(552,126,cs),
(447,126,ls),
(429,126,o),
(419,136,o),
(419,154,cs),
(419,311,l),
(527,311,ls),
(545,311,o),
(555,321,o),
(555,339,cs),
(555,409,ls),
(555,427,o),
(545,437,o),
(527,437,cs),
(419,437,l),
(419,577,ls),
(419,595,o),
(429,605,o),
(447,605,cs),
(552,605,ls),
(570,605,o),
(580,615,o),
(580,633,cs),
(580,702,ls),
(580,720,o),
(570,730,o),
(552,730,cs),
(318,730,ls),
(300,730,o),
(290,720,o),
(290,702,cs),
(290,650,l),
(285,650,l),
(280,689,o),
(247,740,o),
(175,740,cs),
(84,740,o),
(30,666,o),
(30,541,cs),
(30,195,ls),
(30,70,o),
(84,-4,o),
(175,-4,cs)
);
},
{
closed = 1;
nodes = (
(192,121,o),
(170,149,o),
(170,195,cs),
(170,541,ls),
(170,587,o),
(192,615,o),
(227,615,cs),
(263,615,o),
(284,588,o),
(284,541,cs),
(284,195,ls),
(284,148,o),
(263,121,o),
(227,121,cs)
);
}
);
width = 600;
},
{
layerId = "CCC0BD40-BA8C-414E-B576-CF0B94E6C996";
shapes = (
{
closed = 1;
nodes = (
(264,-10,o),
(299,41,o),
(305,80,c),
(310,80,l),
(310,20,ls),
(310,7,o),
(317,0,o),
(330,0,cs),
(555,0,ls),
(568,0,o),
(575,7,o),
(575,20,cs),
(575,62,ls),
(575,75,o),
(568,82,o),
(555,82,cs),
(418,82,ls),
(405,82,o),
(398,89,o),
(398,102,cs),
(398,336,l),
(530,336,ls),
(543,336,o),
(550,343,o),
(550,356,cs),
(550,398,ls),
(550,411,o),
(543,418,o),
(530,418,cs),
(398,418,l),
(398,628,ls),
(398,641,o),
(405,648,o),
(418,648,cs),
(555,648,ls),
(568,648,o),
(575,655,o),
(575,668,cs),
(575,710,ls),
(575,723,o),
(568,730,o),
(555,730,cs),
(330,730,ls),
(317,730,o),
(310,723,o),
(310,710,cs),
(310,650,l),
(305,650,l),
(299,689,o),
(264,740,o),
(195,740,cs),
(99,740,o),
(40,667,o),
(40,550,cs),
(40,180,ls),
(40,63,o),
(99,-10,o),
(195,-10,cs)
);
},
{
closed = 1;
nodes = (
(164,70,o),
(130,112,o),
(130,180,cs),
(130,550,ls),
(130,618,o),
(164,660,o),
(220,660,cs),
(276,660,o),
(310,618,o),
(310,550,cs),
(310,180,ls),
(310,112,o),
(276,70,o),
(220,70,cs)
);
}
);
width = 600;
},
{
layerId = "EDF5EB54-295C-4C90-9A2F-67CD82979CFF";
shapes = (
{
closed = 1;
nodes = (
(265,-10,o),
(305,41,o),
(315,80,c),
(320,80,l),
(320,12,ls),
(320,5,o),
(325,0,o),
(332,0,cs),
(557,0,ls),
(564,0,o),
(569,5,o),
(569,12,cs),
(569,38,ls),
(569,45,o),
(564,50,o),
(557,50,cs),
(387,50,ls),
(380,50,o),
(375,55,o),
(375,62,cs),
(375,352,l),
(521,352,ls),
(528,352,o),
(533,357,o),
(533,364,cs),
(533,390,ls),
(533,397,o),
(528,402,o),
(521,402,cs),
(375,402,l),
(375,668,ls),
(375,675,o),
(380,680,o),
(387,680,cs),
(557,680,ls),
(564,680,o),
(569,685,o),
(569,692,cs),
(569,718,ls),
(569,725,o),
(564,730,o),
(557,730,cs),
(332,730,ls),
(325,730,o),
(320,725,o),
(320,718,cs),
(320,650,l),
(315,650,l),
(305,689,o),
(265,740,o),
(196,740,cs),
(105,740,o),
(40,664,o),
(40,557,cs),
(40,173,ls),
(40,66,o),
(105,-10,o),
(196,-10,cs)
);
},
{
closed = 1;
nodes = (
(140,40,o),
(95,94,o),
(95,173,cs),
(95,557,ls),
(95,636,o),
(140,690,o),
(207,690,cs),
(273,690,o),
(320,638,o),
(320,557,cs),
(320,173,ls),
(320,92,o),
(273,40,o),
(207,40,cs)
);
}
);
width = 600;
}
);
unicode = 338;
},
{
glyphname = P;
layers = (
{
anchors = (
{
name = bottom;
pos = (300,0);
},
{
name = top;
pos = (300,730);
}
);
layerId = "9ADF6715-3D0F-493D-8567-18A6FBCFC567";
shapes = (
{
closed = 1;
nodes = (
(188,0,ls),
(206,0,o),
(216,10,o),
(216,28,cs),
(216,266,l),
(315,266,ls),
(468,266,o),
(570,359,o),
(570,498,cs),
(570,638,o),
(469,730,o),
(315,730,cs),
(94,730,ls),
(76,730,o),
(66,720,o),
(66,702,cs),
(66,28,ls),
(66,10,o),
(76,0,o),
(94,0,cs)
);
},
{
closed = 1;
nodes = (
(216,572,ls),
(216,590,o),
(226,600,o),
(244,600,cs),
(315,600,ls),
(379,600,o),
(420,557,o),
(420,498,cs),
(420,439,o),
(379,396,o),
(315,396,cs),
(216,396,l)
);
}
);
width = 600;
},
{
anchors = (
{
name = bottom;
pos = (300,0);
},
{
name = top;
pos = (300,730);
}
);
layerId = "CCC0BD40-BA8C-414E-B576-CF0B94E6C996";
shapes = (
{
closed = 1;
nodes = (
(162,0,ls),
(175,0,o),
(182,7,o),
(182,20,cs),
(182,300,l),
(327,300,ls),
(463,300,o),
(550,384,o),
(550,515,cs),
(550,646,o),
(463,730,o),
(327,730,cs),
(112,730,ls),
(99,730,o),
(92,723,o),
(92,710,cs),
(92,20,ls),
(92,7,o),
(99,0,o),
(112,0,cs)
);
},
{
closed = 1;
nodes = (
(182,629,ls),
(182,642,o),
(189,649,o),
(202,649,cs),
(327,649,ls),
(406,649,o),
(457,597,o),
(457,515,cs),
(457,433,o),
(406,381,o),
(327,381,cs),
(182,381,l)
);
}
);
width = 600;
},
{
anchors = (
{
name = bottom;
pos = (300,0);
},
{
name = top;
pos = (300,730);
}
);
layerId = "EDF5EB54-295C-4C90-9A2F-67CD82979CFF";
shapes = (
{
closed = 1;
nodes = (
(148,0,ls),
(155,0,o),
(160,5,o),
(160,12,cs),
(160,324,l),
(325,324,ls),
(452,324,o),
(535,404,o),
(535,527,cs),
(535,650,o),
(453,730,o),
(325,730,cs),
(122,730,ls),
(115,730,o),
(110,725,o),
(110,718,cs),
(110,12,ls),
(110,5,o),
(115,0,o),
(122,0,cs)
);
},
{
closed = 1;
nodes = (
(160,672,ls),
(160,679,o),
(165,684,o),
(172,684,cs),
(325,684,ls),
(423,684,o),
(485,624,o),
(485,527,cs),
(485,431,o),
(422,370,o),
(325,370,cs),
(160,370,l)
);
}
);
width = 600;
}
);
unicode = 80;
},
{
glyphname = Thorn;
layers = (
{
layerId = "9ADF6715-3D0F-493D-8567-18A6FBCFC567";
shapes = (
{
closed = 1;
nodes = (
(192,0,ls),
(210,0,o),
(220,10,o),
(220,28,cs),
(220,165,l),
(340,165,ls),
(483,165,o),
(570,246,o),
(570,380,cs),
(570,515,o),
(484,595,o),
(340,595,cs),
(220,595,l),
(220,702,ls),
(220,720,o),
(210,730,o),
(192,730,cs),
(98,730,ls),
(80,730,o),
(70,720,o),
(70,702,cs),
(70,28,ls),
(70,10,o),
(80,0,o),
(98,0,cs)
);
},
{
closed = 1;
nodes = (
(220,470,l),
(315,470,ls),
(383,470,o),
(420,438,o),
(420,380,cs),
(420,322,o),
(383,290,o),
(315,290,cs),
(220,290,l)
);
}
);
width = 600;
},
{
layerId = "CCC0BD40-BA8C-414E-B576-CF0B94E6C996";
shapes = (
{
closed = 1;
nodes = (
(160,0,ls),
(173,0,o),
(180,7,o),
(180,20,cs),
(180,180,l),
(333,180,ls),
(465,180,o),
(550,258,o),
(550,380,cs),
(550,500,o),
(464,580,o),
(333,580,cs),
(180,580,l),
(180,710,ls),
(180,723,o),
(173,730,o),
(160,730,cs),
(110,730,ls),
(97,730,o),
(90,723,o),
(90,710,cs),
(90,20,ls),
(90,7,o),
(97,0,o),
(110,0,cs)
);
},
{
closed = 1;
nodes = (
(180,500,l),
(333,500,ls),
(409,500,o),
(457,454,o),
(457,380,cs),
(457,306,o),
(410,260,o),
(333,260,cs),
(180,260,l)
);
}
);
width = 600;
},
{
layerId = "EDF5EB54-295C-4C90-9A2F-67CD82979CFF";
shapes = (
{
closed = 1;
nodes = (
(143,0,ls),
(150,0,o),
(155,5,o),
(155,12,cs),
(155,195,l),
(333,195,ls),
(454,195,o),
(530,266,o),
(530,380,cs),
(530,494,o),
(454,565,o),
(333,565,cs),
(155,565,l),
(155,718,ls),
(155,725,o),
(150,730,o),
(143,730,cs),
(117,730,ls),
(110,730,o),
(105,725,o),
(105,718,cs),
(105,12,ls),
(105,5,o),
(110,0,o),
(117,0,cs)
);
},
{
closed = 1;
nodes = (
(155,520,l),
(333,520,ls),
(424,520,o),
(480,467,o),
(480,380,cs),
(480,294,o),
(424,241,o),
(333,241,cs),
(155,241,l)
);
}
);
width = 600;
}
);
unicode = 222;
},
{
glyphname = Q;
layers = (
{
anchors = (
{
name = bottom;
pos = (300,0);
},
{
name = top;
pos = (300,730);
}
);
layerId = "9ADF6715-3D0F-493D-8567-18A6FBCFC567";
shapes = (
{
closed = 1;
nodes = (
(516,-180,ls),
(538,-180,o),
(547,-166,o),
(535,-146,cs),
(433,20,l),
(502,55,o),
(540,123,o),
(540,210,cs),
(540,520,ls),
(540,652,o),
(444,740,o),
(300,740,cs),
(155,740,o),
(60,653,o),
(60,520,cs),
(60,210,ls),
(60,79,o),
(156,-10,o),
(300,-10,cs),
(306,-10,o),
(314,-9,o),
(319,-9,c),
(288,4,l),
(389,-161,ls),
(397,-174,o),
(407,-180,o),
(422,-180,cs)
);
},
{
closed = 1;
nodes = (
(238,121,o),
(210,153,o),
(210,210,cs),
(210,520,ls),
(210,578,o),
(242,610,o),
(300,610,cs),
(358,610,o),
(390,578,o),
(390,520,cs),
(390,210,ls),
(390,153,o),
(362,121,o),
(300,121,cs)
);
}
);
width = 600;
},
{
anchors = (
{
name = bottom;
pos = (300,0);
},
{
name = top;
pos = (300,730);
}
);
layerId = "CCC0BD40-BA8C-414E-B576-CF0B94E6C996";
shapes = (
{
closed = 1;
nodes = (
(498,-180,ls),
(514,-180,o),
(519,-170,o),
(511,-156,cs),
(409,13,l),
(479,46,o),
(520,115,o),
(520,205,cs),
(520,525,ls),
(520,656,o),
(435,740,o),
(300,740,cs),
(165,740,o),
(80,656,o),
(80,525,cs),
(80,205,ls),
(80,74,o),
(165,-10,o),
(300,-10,cs),
(310,-10,o),
(320,-9,o),
(325,-9,c),
(315,-3,l),
(414,-167,ls),
(419,-176,o),
(427,-180,o),
(438,-180,cs)
);
},
{
closed = 1;
nodes = (
(221,70,o),
(170,123,o),
(170,205,cs),
(170,525,ls),
(170,607,o),
(221,660,o),
(300,660,cs),
(379,660,o),
(430,607,o),
(430,525,cs),
(430,205,ls),
(430,123,o),
(379,70,o),
(300,70,cs)
);
}
);
width = 600;
},
{
anchors = (
{
name = bottom;
pos = (300,0);
},
{
name = top;
pos = (300,730);
}
);
layerId = "EDF5EB54-295C-4C90-9A2F-67CD82979CFF";
shapes = (
{
closed = 1;
nodes = (
(493,-180,ls),
(502,-180,o),
(506,-175,o),
(501,-166,cs),
(395,10,l),
(459,40,o),
(495,106,o),
(495,190,cs),
(495,540,ls),
(495,656,o),
(420,740,o),
(301,740,cs),
(181,740,o),
(105,662,o),
(105,540,cs),
(105,190,ls),
(105,69,o),
(182,-10,o),
(301,-10,cs),
(321,-10,o),
(343,-7,o),
(354,-5,c),
(339,0,l),
(444,-172,ls),
(447,-178,o),
(452,-180,o),
(458,-180,cs)
);
},
{
closed = 1;
nodes = (
(209,35,o),
(155,92,o),
(155,190,cs),
(155,540,ls),
(155,638,o),
(209,695,o),
(301,695,cs),
(391,695,o),
(445,637,o),
(445,540,cs),
(445,190,ls),
(445,92,o),
(392,35,o),
(301,35,cs)
);
}
);
width = 600;
}
);
unicode = 81;
},
{
glyphname = R;
layers = (
{
anchors = (
{
name = bottom;
pos = (300,0);
},
{
name = top;
pos = (300,730);
}
);
layerId = "9ADF6715-3D0F-493D-8567-18A6FBCFC567";
shapes = (
{
closed = 1;
nodes = (
(186,0,ls),
(204,0,o),
(214,10,o),
(214,28,cs),
(214,276,l),
(284,276,l),
(393,21,ls),
(399,7,o),
(409,0,o),
(425,0,cs),
(529,0,ls),
(550,0,o),
(559,13,o),
(550,33,cs),
(427,300,l),
(505,333,o),
(555,413,o),
(555,508,cs),
(555,644,o),
(455,730,o),
(300,730,cs),
(94,730,ls),
(76,730,o),
(66,720,o),
(66,702,cs),
(66,28,ls),
(66,10,o),
(76,0,o),
(94,0,cs)
);
},
{
closed = 1;
nodes = (
(214,572,ls),
(214,590,o),
(224,600,o),
(242,600,cs),
(300,600,ls),
(366,600,o),
(405,563,o),
(405,501,cs),
(405,441,o),
(366,406,o),
(300,406,cs),
(214,406,l)
);
}
);
width = 600;
},
{
anchors = (
{
name = bottom;
pos = (300,0);
},
{
name = top;
pos = (300,730);
}
);
layerId = "CCC0BD40-BA8C-414E-B576-CF0B94E6C996";
shapes = (
{
closed = 1;
nodes = (
(162,0,ls),
(175,0,o),
(182,7,o),
(182,20,cs),
(182,310,l),
(303,310,l),
(439,15,ls),
(444,4,o),
(451,0,o),
(462,0,cs),
(519,0,ls),
(534,0,o),
(540,10,o),
(534,24,cs),
(396,319,l),
(480,347,o),
(535,421,o),
(535,520,cs),
(535,645,o),
(448,730,o),
(318,730,cs),
(113,730,ls),
(100,730,o),
(93,723,o),
(93,710,cs),
(93,20,ls),
(93,7,o),
(100,0,o),
(113,0,cs)
);
},
{
closed = 1;
nodes = (
(182,629,ls),
(182,642,o),
(189,649,o),
(202,649,cs),
(318,649,ls),
(392,649,o),
(442,598,o),
(442,520,cs),
(442,442,o),
(393,391,o),
(318,391,cs),
(182,391,l)
);
}
);
width = 600;
},
{
anchors = (
{
name = bottom;
pos = (300,0);
},
{
name = top;
pos = (300,730);
}
);
layerId = "EDF5EB54-295C-4C90-9A2F-67CD82979CFF";
shapes = (
{
closed = 1;
nodes = (
(148,0,ls),
(155,0,o),
(160,5,o),
(160,12,cs),
(160,330,l),
(305,330,l),
(466,9,ls),
(469,3,o),
(474,0,o),
(480,0,cs),
(514,0,ls),
(523,0,o),
(527,5,o),
(523,14,cs),
(359,332,l),
(461,347,o),
(525,422,o),
(525,528,cs),
(525,652,o),
(444,730,o),
(315,730,cs),
(122,730,ls),
(115,730,o),
(110,725,o),
(110,718,cs),
(110,12,ls),
(110,5,o),
(115,0,o),
(122,0,cs)
);
},
{
closed = 1;
nodes = (
(160,672,ls),
(160,679,o),
(165,684,o),
(172,684,cs),
(315,684,ls),
(412,684,o),
(475,624,o),
(475,530,cs),
(475,436,o),
(412,375,o),
(315,375,cs),
(160,375,l)
);
}
);
width = 600;
}
);
unicode = 82;
},
{
glyphname = S;
layers = (
{
anchors = (
{
name = bottom;
pos = (300,0);
},
{
name = top;
pos = (300,730);
}
);
layerId = "9ADF6715-3D0F-493D-8567-18A6FBCFC567";
shapes = (
{
closed = 1;
nodes = (
(456,-10,o),
(553,75,o),
(553,206,cs),
(553,324,o),
(481,415,o),
(366,441,cs),
(274,462,ls),
(230,472,o),
(205,496,o),
(205,535,cs),
(205,582,o),
(239,612,o),
(296,612,cs),
(344,612,o),
(376,591,o),
(386,557,cs),
(391,540,o),
(399,531,o),
(416,531,cs),
(507,531,ls),
(525,531,o),
(537,541,o),
(534,560,cs),
(521,671,o),
(432,740,o),
(296,740,cs),
(149,740,o),
(59,660,o),
(59,530,cs),
(59,423,o),
(131,342,o),
(246,315,cs),
(335,294,ls),
(382,283,o),
(406,247,o),
(406,206,cs),
(406,154,o),
(367,120,o),
(302,120,cs),
(246,120,o),
(208,144,o),
(196,184,cs),
(192,201,o),
(184,210,o),
(167,210,cs),
(76,210,ls),
(58,210,o),
(46,200,o),
(49,181,cs),
(62,63,o),
(159,-10,o),
(302,-10,cs)
);
}
);
width = 600;
},
{
anchors = (
{
name = bottom;
pos = (300,0);
},
{
name = top;
pos = (300,730);
}
);
layerId = "CCC0BD40-BA8C-414E-B576-CF0B94E6C996";
shapes = (
{
closed = 1;
nodes = (
(440,-10,o),
(528,72,o),
(528,200,cs),
(528,301,o),
(471,380,o),
(374,407,cs),
(260,439,ls),
(208,454,o),
(178,493,o),
(178,547,cs),
(178,614,o),
(226,660,o),
(297,660,cs),
(361,660,o),
(408,623,o),
(417,566,cs),
(418,554,o),
(425,547,o),
(437,547,cs),
(488,547,ls),
(501,547,o),
(508,554,o),
(507,568,cs),
(497,670,o),
(413,740,o),
(297,740,cs),
(174,740,o),
(90,661,o),
(90,545,cs),
(90,451,o),
(146,378,o),
(238,352,cs),
(349,321,ls),
(407,305,o),
(440,259,o),
(440,200,cs),
(440,122,o),
(387,70,o),
(304,70,cs),
(225,70,o),
(171,111,o),
(163,181,cs),
(162,193,o),
(155,200,o),
(143,200,cs),
(92,200,ls),
(79,200,o),
(72,193,o),
(73,180,cs),
(82,61,o),
(171,-10,o),
(304,-10,cs)
);
}
);
width = 600;
},
{
anchors = (
{
name = bottom;
pos = (300,0);
},
{
name = top;
pos = (300,730);
}
);
layerId = "EDF5EB54-295C-4C90-9A2F-67CD82979CFF";
shapes = (
{
closed = 1;
nodes = (
(430,-10,o),
(515,69,o),
(515,183,cs),
(515,279,o),
(456,357,o),
(363,386,cs),
(261,418,ls),
(195,439,o),
(154,495,o),
(154,563,cs),
(154,642,o),
(215,696,o),
(303,696,cs),
(389,696,o),
(448,640,o),
(454,557,cs),
(454,549,o),
(459,545,o),
(466,545,cs),
(491,545,ls),
(498,545,o),
(503,549,o),
(503,557,cs),
(497,667,o),
(418,740,o),
(304,740,cs),
(186,740,o),
(105,666,o),
(105,559,cs),
(105,471,o),
(161,399,o),
(249,372,cs),
(351,341,ls),
(422,319,o),
(466,257,o),
(466,180,cs),
(466,94,o),
(400,35,o),
(305,35,cs),
(208,35,o),
(140,97,o),
(134,188,cs),
(134,196,o),
(129,200,o),
(122,200,cs),
(97,200,ls),
(90,200,o),
(85,196,o),
(85,188,cs),
(91,69,o),
(179,-10,o),
(305,-10,cs)
);
}
);
width = 600;
}
);
unicode = 83;
},
{
glyphname = Scedilla;
layers = (
{
anchors = (
{
name = _bottom;
pos = (300,0);
}
);
layerId = "9ADF6715-3D0F-493D-8567-18A6FBCFC567";
shapes = (
{
closed = 1;
nodes = (
(305,-225,ls),
(389,-225,o),
(445,-182,o),
(445,-133,cs),
(445,-72,o),
(364,-43,o),
(303,-39,c),
(311,-16,ls),
(318,4,o),
(308,16,o),
(288,16,cs),
(272,16,ls),
(256,16,o),
(246,9,o),
(240,-6,cs),
(227,-38,ls),
(219,-57,o),
(228,-68,o),
(249,-71,cs),
(301,-76,o),
(330,-93,o),
(330,-119,cs),
(330,-135,o),
(308,-155,o),
(275,-155,cs),
(223,-155,ls),
(205,-155,o),
(195,-165,o),
(195,-183,cs),
(195,-197,ls),
(195,-215,o),
(205,-225,o),
(223,-225,cs)
);
},
{
alignment = -1;
ref = S;
}
);
width = 600;
},
{
anchors = (
{
name = _bottom;
pos = (300,0);
}
);
layerId = "CCC0BD40-BA8C-414E-B576-CF0B94E6C996";
shapes = (
{
closed = 1;
nodes = (
(290,-203,ls),
(362,-203,o),
(410,-166,o),
(410,-120,cs),
(410,-68,o),
(342,-41,o),
(290,-35,c),
(303,3,ls),
(308,17,o),
(301,26,o),
(287,26,cs),
(271,26,ls),
(260,26,o),
(252,20,o),
(248,10,cs),
(227,-47,ls),
(222,-60,o),
(229,-69,o),
(244,-70,cs),
(295,-74,o),
(324,-92,o),
(324,-112,cs),
(324,-130,o),
(304,-148,o),
(275,-148,cs),
(225,-148,ls),
(212,-148,o),
(205,-155,o),
(205,-168,cs),
(205,-183,ls),
(205,-196,o),
(212,-203,o),
(225,-203,cs)
);
},
{
alignment = -1;
ref = S;
}
);
width = 600;
},
{
anchors = (
{
name = _bottom;
pos = (300,0);
}
);
layerId = "EDF5EB54-295C-4C90-9A2F-67CD82979CFF";
shapes = (
{
closed = 1;
nodes = (
(315,-195,ls),
(375,-195,o),
(415,-161,o),
(415,-118,cs),
(415,-61,o),
(352,-37,o),
(305,-34,c),
(323,12,ls),
(326,21,o),
(322,26,o),
(313,26,cs),
(296,26,ls),
(289,26,o),
(284,23,o),
(282,17,cs),
(256,-50,ls),
(253,-59,o),
(257,-64,o),
(266,-64,cs),
(329,-67,o),
(369,-88,o),
(369,-118,cs),
(369,-140,o),
(347,-160,o),
(315,-160,cs),
(247,-160,ls),
(240,-160,o),
(235,-165,o),
(235,-172,cs),
(235,-183,ls),
(235,-190,o),
(240,-195,o),
(247,-195,cs)
);
},
{
alignment = -1;
ref = S;
}
);
width = 600;
}
);
unicode = 350;
},
{
glyphname = Germandbls;
layers = (
{
layerId = "EDF5EB54-295C-4C90-9A2F-67CD82979CFF";
shapes = (
{
closed = 1;
nodes = (
(148,0,ls),
(155,0,o),
(160,5,o),
(160,12,cs),
(160,543,ls),
(160,629,o),
(217,685,o),
(305,685,cs),
(448,685,ls),
(458,685,o),
(462,678,o),
(456,670,cs),
(270,411,l),
(270,368,l),
(310,368,ls),
(407,368,o),
(470,305,o),
(470,208,cs),
(470,109,o),
(407,45,o),
(310,45,cs),
(260,45,ls),
(253,45,o),
(248,40,o),
(248,33,cs),
(248,12,ls),
(248,5,o),
(253,0,o),
(260,0,cs),
(310,0,ls),
(438,0,o),
(520,82,o),
(520,210,cs),
(520,330,o),
(438,407,o),
(310,407,c),
(310,398,l),
(512,677,ls),
(515,682,o),
(517,686,o),
(517,692,cs),
(517,718,ls),
(517,725,o),
(512,730,o),
(505,730,cs),
(305,730,ls),
(187,730,o),
(110,657,o),
(110,543,cs),
(110,12,ls),
(110,5,o),
(115,0,o),
(122,0,cs)
);
}
);
width = 600;
},
{
layerId = "9ADF6715-3D0F-493D-8567-18A6FBCFC567";
shapes = (
{
closed = 1;
nodes = (
(167,0,ls),
(185,0,o),
(195,10,o),
(195,28,cs),
(195,511,ls),
(195,568,o),
(234,605,o),
(295,605,cs),
(365,605,ls),
(389,605,o),
(396,589,o),
(380,571,cs),
(259,438,l),
(259,328,l),
(306,328,ls),
(369,328,o),
(408,287,o),
(408,227,cs),
(408,167,o),
(370,125,o),
(306,125,cs),
(287,125,ls),
(269,125,o),
(259,115,o),
(259,97,cs),
(259,28,ls),
(259,10,o),
(269,0,o),
(287,0,cs),
(311,0,ls),
(462,0,o),
(559,84,o),
(559,215,cs),
(559,344,o),
(471,427,o),
(336,425,c),
(349,375,l),
(532,574,ls),
(541,584,o),
(546,595,o),
(546,609,cs),
(546,702,ls),
(546,720,o),
(536,730,o),
(518,730,cs),
(296,730,ls),
(153,730,o),
(60,644,o),
(60,511,cs),
(60,28,ls),
(60,10,o),
(70,0,o),
(88,0,cs)
);
}
);
width = 600;
},
{
layerId = "CCC0BD40-BA8C-414E-B576-CF0B94E6C996";
shapes = (
{
closed = 1;
nodes = (
(162,0,ls),
(175,0,o),
(182,7,o),
(182,20,cs),
(182,524,ls),
(182,601,o),
(228,648,o),
(302,648,cs),
(404,648,ls),
(420,648,o),
(426,637,o),
(416,624,cs),
(270,423,l),
(270,345,l),
(315,345,ls),
(395,345,o),
(445,295,o),
(445,215,cs),
(445,133,o),
(395,82,o),
(315,82,cs),
(278,82,ls),
(265,82,o),
(258,75,o),
(258,62,cs),
(258,20,ls),
(258,7,o),
(265,0,o),
(278,0,cs),
(325,0,ls),
(454,0,o),
(540,86,o),
(540,215,cs),
(540,342,o),
(464,425,o),
(350,423,c),
(350,400,l),
(521,631,ls),
(527,639,o),
(529,647,o),
(529,656,cs),
(529,710,ls),
(529,723,o),
(522,730,o),
(509,730,cs),
(302,730,ls),
(176,730,o),
(92,648,o),
(92,524,cs),
(92,20,ls),
(92,7,o),
(99,0,o),
(112,0,cs)
);
}
);
width = 600;
}
);
unicode = 7838;
},
{
glyphname = T;
layers = (
{
anchors = (
{
name = bottom;
pos = (300,0);
},
{
name = center;
pos = (300,365);
},
{
name = top;
pos = (300,730);
}
);
layerId = "9ADF6715-3D0F-493D-8567-18A6FBCFC567";
shapes = (
{
closed = 1;
nodes = (
(347,0,ls),
(365,0,o),
(375,10,o),
(375,28,cs),
(375,595,l),
(532,595,ls),
(550,595,o),
(560,605,o),
(560,623,cs),
(560,702,ls),
(560,720,o),
(550,730,o),
(532,730,cs),
(68,730,ls),
(50,730,o),
(40,720,o),
(40,702,cs),
(40,623,ls),
(40,605,o),
(50,595,o),
(68,595,cs),
(225,595,l),
(225,28,ls),
(225,10,o),
(235,0,o),
(253,0,cs)
);
}
);
width = 600;
},
{
anchors = (
{
name = bottom;
pos = (300,0);
},
{
name = center;
pos = (300,365);
},
{
name = top;
pos = (300,730);
}
);
layerId = "CCC0BD40-BA8C-414E-B576-CF0B94E6C996";
shapes = (
{
closed = 1;
nodes = (
(325,0,ls),
(338,0,o),
(345,7,o),
(345,20,cs),
(345,648,l),
(525,648,ls),
(538,648,o),
(545,655,o),
(545,668,cs),
(545,710,ls),
(545,723,o),
(538,730,o),
(525,730,cs),
(75,730,ls),
(62,730,o),
(55,723,o),
(55,710,cs),
(55,668,ls),
(55,655,o),
(62,648,o),
(75,648,cs),
(255,648,l),
(255,20,ls),
(255,7,o),
(262,0,o),
(275,0,cs)
);
}
);
width = 600;
},
{
anchors = (
{
name = bottom;
pos = (300,0);
},
{
name = center;
pos = (300,365);
},
{
name = top;
pos = (300,730);
}
);
layerId = "EDF5EB54-295C-4C90-9A2F-67CD82979CFF";
shapes = (
{
closed = 1;
nodes = (
(314,0,ls),
(321,0,o),
(326,5,o),
(326,12,cs),
(326,685,l),
(528,685,ls),
(535,685,o),
(540,690,o),
(540,697,cs),
(540,718,ls),
(540,725,o),
(535,730,o),
(528,730,cs),
(72,730,ls),
(65,730,o),
(60,725,o),
(60,718,cs),
(60,697,ls),
(60,690,o),
(65,685,o),
(72,685,cs),
(276,685,l),
(276,12,ls),
(276,5,o),
(281,0,o),
(288,0,cs)
);
}
);
width = 600;
}
);
unicode = 84;
},
{
glyphname = Tbar;
layers = (
{
layerId = "9ADF6715-3D0F-493D-8567-18A6FBCFC567";
shapes = (
{
closed = 1;
nodes = (
(472,265,ls),
(490,265,o),
(500,275,o),
(500,293,cs),
(500,362,ls),
(500,380,o),
(490,390,o),
(472,390,cs),
(128,390,ls),
(110,390,o),
(100,380,o),
(100,362,cs),
(100,293,ls),
(100,275,o),
(110,265,o),
(128,265,cs)
);
},
{
alignment = -1;
ref = T;
}
);
width = 600;
},
{
layerId = "CCC0BD40-BA8C-414E-B576-CF0B94E6C996";
shapes = (
{
closed = 1;
nodes = (
(470,295,ls),
(483,295,o),
(490,302,o),
(490,315,cs),
(490,350,ls),
(490,363,o),
(483,370,o),
(470,370,cs),
(130,370,ls),
(117,370,o),
(110,363,o),
(110,350,cs),
(110,315,ls),
(110,302,o),
(117,295,o),
(130,295,cs)
);
},
{
alignment = -1;
ref = T;
}
);
width = 600;
},
{
layerId = "EDF5EB54-295C-4C90-9A2F-67CD82979CFF";
shapes = (
{
closed = 1;
nodes = (
(468,310,ls),
(475,310,o),
(480,315,o),
(480,322,cs),
(480,343,ls),
(480,350,o),
(475,355,o),
(468,355,cs),
(132,355,ls),
(125,355,o),
(120,350,o),
(120,343,cs),
(120,322,ls),
(120,315,o),
(125,310,o),
(132,310,cs)
);
},
{
alignment = -1;
ref = T;
}
);
width = 600;
}
);
unicode = 358;
},
{
glyphname = Tcedilla;
layers = (
{
anchors = (
{
name = _bottom;
pos = (300,0);
}
);
layerId = "9ADF6715-3D0F-493D-8567-18A6FBCFC567";
shapes = (
{
closed = 1;
nodes = (
(334,-196,ls),
(418,-196,o),
(474,-153,o),
(474,-104,cs),
(474,-43,o),
(393,-14,o),
(332,-10,c),
(336,1,ls),
(342,18,o),
(334,32,o),
(316,36,cs),
(303,39,ls),
(287,43,o),
(274,37,o),
(268,21,cs),
(256,-9,ls),
(248,-28,o),
(257,-39,o),
(278,-42,cs),
(330,-47,o),
(359,-64,o),
(359,-90,cs),
(359,-106,o),
(337,-126,o),
(304,-126,cs),
(252,-126,ls),
(234,-126,o),
(224,-136,o),
(224,-154,cs),
(224,-168,ls),
(224,-186,o),
(234,-196,o),
(252,-196,cs)
);
},
{
alignment = -1;
ref = T;
}
);
width = 600;
},
{
anchors = (
{
name = _bottom;
pos = (300,0);
}
);
layerId = "CCC0BD40-BA8C-414E-B576-CF0B94E6C996";
shapes = (
{
closed = 1;
nodes = (
(336,-179,ls),
(408,-179,o),
(456,-142,o),
(456,-96,cs),
(456,-44,o),
(388,-17,o),
(336,-11,c),
(342,7,ls),
(346,18,o),
(342,27,o),
(332,33,cs),
(319,40,ls),
(307,46,o),
(298,42,o),
(293,30,cs),
(273,-23,ls),
(268,-36,o),
(275,-45,o),
(290,-46,cs),
(341,-50,o),
(370,-68,o),
(370,-88,cs),
(370,-106,o),
(350,-124,o),
(321,-124,cs),
(271,-124,ls),
(258,-124,o),
(251,-131,o),
(251,-144,cs),
(251,-159,ls),
(251,-172,o),
(258,-179,o),
(271,-179,cs)
);
},
{
alignment = -1;
ref = T;
}
);
width = 600;
},
{
anchors = (
{
name = _bottom;
pos = (300,0);
}
);
layerId = "EDF5EB54-295C-4C90-9A2F-67CD82979CFF";
shapes = (
{
closed = 1;
nodes = (
(324,-183,ls),
(384,-183,o),
(424,-149,o),
(424,-106,cs),
(424,-49,o),
(361,-25,o),
(314,-22,c),
(323,2,ls),
(325,8,o),
(325,14,o),
(319,19,cs),
(306,29,ls),
(300,34,o),
(293,34,o),
(290,25,cs),
(265,-38,ls),
(262,-47,o),
(266,-52,o),
(275,-52,cs),
(338,-55,o),
(378,-76,o),
(378,-106,cs),
(378,-128,o),
(356,-148,o),
(324,-148,cs),
(256,-148,ls),
(249,-148,o),
(244,-153,o),
(244,-160,cs),
(244,-171,ls),
(244,-178,o),
(249,-183,o),
(256,-183,cs)
);
},
{
alignment = -1;
ref = T;
}
);
width = 600;
}
);
unicode = 354;
},
{
glyphname = U;
layers = (
{
anchors = (
{
name = bottom;
pos = (300,0);
},
{
name = horn;
pos = (385,730);
},
{
name = ogonek;
pos = (345,0);
},
{
name = top;
pos = (300,730);
},
{
name = topright;
pos = (580,730);
}
);
layerId = "9ADF6715-3D0F-493D-8567-18A6FBCFC567";
shapes = (
{
closed = 1;
nodes = (
(448,-10,o),
(540,76,o),
(540,214,cs),
(540,702,ls),
(540,720,o),
(530,730,o),
(512,730,cs),
(418,730,ls),
(400,730,o),
(390,720,o),
(390,702,cs),
(390,215,ls),
(390,154,o),
(356,120,o),
(300,120,cs),
(243,120,o),
(210,154,o),
(210,215,cs),
(210,702,ls),
(210,720,o),
(200,730,o),
(182,730,cs),
(88,730,ls),
(70,730,o),
(60,720,o),
(60,702,cs),
(60,214,ls),
(60,75,o),
(152,-10,o),
(300,-10,cs)
);
}
);
width = 600;
},
{
anchors = (
{
name = bottom;
pos = (300,0);
},
{
name = horn;
pos = (385,730);
},
{
name = ogonek;
pos = (350,0);
},
{
name = top;
pos = (300,730);
},
{
name = topright;
pos = (580,730);
}
);
layerId = "CCC0BD40-BA8C-414E-B576-CF0B94E6C996";
shapes = (
{
closed = 1;
nodes = (
(437,-10,o),
(510,69,o),
(510,200,cs),
(510,710,ls),
(510,723,o),
(503,730,o),
(490,730,cs),
(440,730,ls),
(427,730,o),
(420,723,o),
(420,710,cs),
(420,200,ls),
(420,120,o),
(380,70,o),
(300,70,cs),
(219,70,o),
(180,120,o),
(180,200,cs),
(180,710,ls),
(180,723,o),
(173,730,o),
(160,730,cs),
(110,730,ls),
(97,730,o),
(90,723,o),
(90,710,cs),
(90,200,ls),
(90,70,o),
(164,-10,o),
(300,-10,cs)
);
}
);
width = 600;
},
{
anchors = (
{
name = bottom;
pos = (300,0);
},
{
name = horn;
pos = (392,730);
},
{
name = ogonek;
pos = (355,0);
},
{
name = top;
pos = (300,730);
},
{
name = topright;
pos = (580,730);
}
);
layerId = "EDF5EB54-295C-4C90-9A2F-67CD82979CFF";
shapes = (
{
closed = 1;
nodes = (
(417,-10,o),
(492,69,o),
(492,190,cs),
(492,718,ls),
(492,725,o),
(487,730,o),
(480,730,cs),
(454,730,ls),
(447,730,o),
(442,725,o),
(442,718,cs),
(442,190,ls),
(442,93,o),
(390,35,o),
(301,35,cs),
(211,35,o),
(158,92,o),
(158,190,cs),
(158,718,ls),
(158,725,o),
(153,730,o),
(146,730,cs),
(120,730,ls),
(113,730,o),
(108,725,o),
(108,718,cs),
(108,190,ls),
(108,69,o),
(184,-10,o),
(301,-10,cs)
);
}
);
width = 600;
}
);
unicode = 85;
},
{
glyphname = Uhorn;
layers = (
{
anchors = (
{
name = top;
pos = (300,730);
}
);
layerId = "9ADF6715-3D0F-493D-8567-18A6FBCFC567";
shapes = (
{
closed = 1;
nodes = (
(506,630,ls),
(593,630,o),
(651,684,o),
(651,765,cs),
(651,812,ls),
(651,830,o),
(641,840,o),
(623,840,cs),
(559,840,ls),
(541,840,o),
(531,830,o),
(531,812,cs),
(531,765,ls),
(531,743,o),
(518,730,o),
(496,730,cs),
(474,730,ls),
(456,730,o),
(446,720,o),
(446,702,cs),
(446,658,ls),
(446,640,o),
(456,630,o),
(474,630,cs)
);
},
{
alignment = -1;
ref = U;
}
);
width = 600;
},
{
anchors = (
{
name = top;
pos = (300,730);
}
);
layerId = "CCC0BD40-BA8C-414E-B576-CF0B94E6C996";
shapes = (
{
closed = 1;
nodes = (
(490,665,ls),
(554,665,o),
(595,702,o),
(595,760,cs),
(595,820,ls),
(595,833,o),
(588,840,o),
(575,840,cs),
(540,840,ls),
(527,840,o),
(520,833,o),
(520,820,cs),
(520,765,ls),
(520,744,o),
(506,730,o),
(485,730,cs),
(455,730,ls),
(442,730,o),
(435,723,o),
(435,710,cs),
(435,685,ls),
(435,672,o),
(442,665,o),
(455,665,cs)
);
},
{
alignment = -1;
ref = U;
}
);
width = 600;
},
{
anchors = (
{
name = top;
pos = (300,730);
}
);
layerId = "EDF5EB54-295C-4C90-9A2F-67CD82979CFF";
shapes = (
{
closed = 1;
nodes = (
(497,695,ls),
(548,695,o),
(582,729,o),
(582,780,cs),
(582,828,ls),
(582,835,o),
(577,840,o),
(570,840,cs),
(554,840,ls),
(547,840,o),
(542,835,o),
(542,828,cs),
(542,780,ls),
(542,750,o),
(524,730,o),
(497,730,cs),
(454,730,ls),
(447,730,o),
(442,725,o),
(442,718,cs),
(442,707,ls),
(442,700,o),
(447,695,o),
(454,695,cs)
);
},
{
alignment = -1;
ref = U;
}
);
width = 600;
}
);
unicode = 431;
},
{
glyphname = Uogonek;
layers = (
{
anchors = (
{
name = horn;
pos = (385,730);
},
{
name = top;
pos = (300,730);
}
);
layerId = "9ADF6715-3D0F-493D-8567-18A6FBCFC567";
shapes = (
{
closed = 1;
nodes = (
(462,-225,l),
(462,-120,l),
(393,-120,ls),
(364,-120,o),
(347,-103,o),
(347,-82,cs),
(347,-65,o),
(359,-38,o),
(386,-17,cs),
(434,21,l),
(498,58,o),
(540,127,o),
(540,210,cs),
(540,730,l),
(390,730,l),
(390,210,ls),
(390,152,o),
(360,120,o),
(300,120,cs),
(240,120,o),
(210,152,o),
(210,210,cs),
(210,730,l),
(60,730,l),
(60,210,ls),
(60,78,o),
(153,-10,o),
(300,-10,cs),
(333,-10,o),
(348,11,o),
(348,21,c),
(280,-9,o),
(223,-68,o),
(223,-115,cs),
(223,-180,o),
(273,-225,o),
(354,-225,cs)
);
}
);
width = 600;
},
{
anchors = (
{
name = horn;
pos = (385,730);
},
{
name = top;
pos = (300,730);
}
);
layerId = "CCC0BD40-BA8C-414E-B576-CF0B94E6C996";
shapes = (
{
closed = 1;
nodes = (
(457,-203,l),
(457,-143,l),
(397,-143,ls),
(363,-143,o),
(342,-122,o),
(342,-93,cs),
(342,-65,o),
(357,-36,o),
(401,1,cs),
(430,25,l),
(482,60,o),
(510,121,o),
(510,200,cs),
(510,730,l),
(420,730,l),
(420,200,ls),
(420,117,o),
(378,71,o),
(300,71,cs),
(222,71,o),
(180,117,o),
(180,200,cs),
(180,730,l),
(90,730,l),
(90,200,ls),
(90,69,o),
(169,-10,o),
(300,-10,cs),
(304,-10,o),
(309,-10,o),
(313,-10,c),
(277,-45,o),
(257,-82,o),
(257,-110,cs),
(257,-164,o),
(305,-203,o),
(379,-203,cs)
);
}
);
width = 600;
},
{
anchors = (
{
name = horn;
pos = (392,730);
},
{
name = top;
pos = (300,730);
}
);
layerId = "EDF5EB54-295C-4C90-9A2F-67CD82979CFF";
shapes = (
{
closed = 1;
nodes = (
(442,-195,l),
(442,-153,l),
(378,-153,ls),
(346,-153,o),
(327,-134,o),
(327,-103,cs),
(327,-75,o),
(349,-33,o),
(388,2,cs),
(397,10,l),
(459,45,o),
(492,105,o),
(492,190,cs),
(492,730,l),
(442,730,l),
(442,190,ls),
(442,91,o),
(392,34,o),
(300,34,cs),
(208,34,o),
(158,91,o),
(158,190,cs),
(158,730,l),
(108,730,l),
(108,190,ls),
(108,68,o),
(182,-10,o),
(300,-10,cs),
(311,-10,o),
(329,-9,o),
(340,-6,c),
(302,-39,o),
(280,-80,o),
(280,-115,cs),
(280,-165,o),
(314,-195,o),
(369,-195,cs)
);
}
);
width = 600;
}
);
unicode = 370;
},
{
glyphname = V;
layers = (
{
anchors = (
{
name = bottom;
pos = (300,0);
},
{
name = top;
pos = (300,730);
}
);
layerId = "9ADF6715-3D0F-493D-8567-18A6FBCFC567";
shapes = (
{
closed = 1;
nodes = (
(371,0,ls),
(387,0,o),
(398,7,o),
(402,24,cs),
(567,699,ls),
(572,719,o),
(562,730,o),
(543,730,cs),
(449,730,ls),
(432,730,o),
(422,721,o),
(419,705,cs),
(326,270,ls),
(319,237,o),
(310,179,o),
(305,145,c),
(299,179,o),
(288,237,o),
(281,269,cs),
(185,705,ls),
(181,721,o),
(172,730,o),
(155,730,cs),
(57,730,ls),
(38,730,o),
(28,719,o),
(33,699,cs),
(200,24,ls),
(204,7,o),
(215,0,o),
(231,0,cs)
);
}
);
width = 600;
},
{
anchors = (
{
name = bottom;
pos = (300,0);
},
{
name = top;
pos = (300,730);
}
);
layerId = "CCC0BD40-BA8C-414E-B576-CF0B94E6C996";
shapes = (
{
closed = 1;
nodes = (
(343,0,ls),
(355,0,o),
(362,6,o),
(365,17,cs),
(544,708,ls),
(547,721,o),
(541,730,o),
(527,730,cs),
(475,730,ls),
(463,730,o),
(456,724,o),
(453,713,cs),
(337,234,ls),
(320,165,o),
(306,100,o),
(301,70,c),
(296,100,o),
(284,164,o),
(267,233,cs),
(146,713,ls),
(143,724,o),
(136,730,o),
(124,730,cs),
(73,730,ls),
(59,730,o),
(53,721,o),
(56,708,cs),
(234,17,ls),
(237,6,o),
(244,0,o),
(256,0,cs)
);
}
);
width = 600;
},
{
anchors = (
{
name = bottom;
pos = (300,0);
},
{
name = top;
pos = (300,730);
}
);
layerId = "EDF5EB54-295C-4C90-9A2F-67CD82979CFF";
shapes = (
{
closed = 1;
nodes = (
(321,0,ls),
(328,0,o),
(333,3,o),
(335,10,cs),
(528,717,ls),
(530,726,o),
(526,730,o),
(518,730,cs),
(494,730,ls),
(487,730,o),
(482,727,o),
(480,720,cs),
(334,180,ls),
(318,122,o),
(306,66,o),
(301,40,c),
(296,66,o),
(285,122,o),
(269,180,cs),
(124,720,ls),
(122,727,o),
(117,730,o),
(110,730,cs),
(82,730,ls),
(74,730,o),
(70,726,o),
(72,717,cs),
(265,10,ls),
(267,3,o),
(272,0,o),
(279,0,cs)
);
}
);
width = 600;
}
);
unicode = 86;
},
{
glyphname = W;
layers = (
{
anchors = (
{
name = bottom;
pos = (300,0);
},
{
name = top;
pos = (300,730);
}
);
layerId = "9ADF6715-3D0F-493D-8567-18A6FBCFC567";
shapes = (
{
closed = 1;
nodes = (
(235,0,l),
(289,485,ls),
(293,519,o),
(297,594,o),
(300,640,c),
(303,594,o),
(309,519,o),
(312,485,cs),
(361,0,l),
(517,0,l),
(590,730,l),
(470,730,l),
(436,242,ls),
(434,213,o),
(430,144,o),
(429,100,c),
(424,144,o),
(417,213,o),
(414,242,cs),
(358,730,l),
(244,730,l),
(186,242,ls),
(183,213,o),
(177,144,o),
(173,100,c),
(172,144,o),
(168,213,o),
(166,242,cs),
(129,730,l),
(10,730,l),
(78,0,l)
);
}
);
width = 600;
},
{
anchors = (
{
name = bottom;
pos = (300,0);
},
{
name = top;
pos = (300,730);
}
);
layerId = "CCC0BD40-BA8C-414E-B576-CF0B94E6C996";
shapes = (
{
closed = 1;
nodes = (
(220,0,l),
(291,550,ls),
(297,595,o),
(299,643,o),
(302,667,c),
(304,643,o),
(307,595,o),
(312,550,cs),
(378,0,l),
(491,0,l),
(580,730,l),
(501,730,l),
(442,190,ls),
(437,146,o),
(433,93,o),
(431,65,c),
(428,93,o),
(422,146,o),
(417,190,cs),
(351,730,l),
(254,730,l),
(182,190,ls),
(176,146,o),
(172,93,o),
(169,65,c),
(168,93,o),
(165,146,o),
(160,190,cs),
(103,730,l),
(20,730,l),
(107,0,l)
);
}
);
width = 600;
},
{
anchors = (
{
name = bottom;
pos = (300,0);
},
{
name = top;
pos = (300,730);
}
);
layerId = "EDF5EB54-295C-4C90-9A2F-67CD82979CFF";
shapes = (
{
closed = 1;
nodes = (
(200,0,l),
(282,530,ls),
(290,582,o),
(297,652,o),
(303,690,c),
(308,651,o),
(315,581,o),
(322,530,cs),
(397,0,l),
(469,0,l),
(560,730,l),
(513,730,l),
(451,190,ls),
(447,154,o),
(437,80,o),
(431,35,c),
(425,80,o),
(417,154,o),
(412,190,cs),
(335,730,l),
(271,730,l),
(191,190,ls),
(186,154,o),
(177,80,o),
(171,35,c),
(166,80,o),
(159,154,o),
(154,190,cs),
(86,730,l),
(40,730,l),
(130,0,l)
);
}
);
width = 600;
}
);
unicode = 87;
},
{
glyphname = X;
layers = (
{
anchors = (
{
name = bottom;
pos = (300,0);
},
{
name = top;
pos = (300,730);
}
);
layerId = "9ADF6715-3D0F-493D-8567-18A6FBCFC567";
shapes = (
{
closed = 1;
nodes = (
(181,0,l),
(269,180,ls),
(283,209,o),
(293,237,o),
(297,250,c),
(302,237,o),
(313,209,o),
(327,180,cs),
(415,0,l),
(580,0,l),
(384,377,l),
(567,730,l),
(406,730,l),
(328,570,ls),
(314,541,o),
(305,515,o),
(302,504,c),
(299,515,o),
(289,541,o),
(274,570,cs),
(198,730,l),
(33,730,l),
(216,377,l),
(20,0,l)
);
}
);
width = 600;
},
{
anchors = (
{
name = bottom;
pos = (300,0);
},
{
name = top;
pos = (300,730);
}
);
layerId = "EDF5EB54-295C-4C90-9A2F-67CD82979CFF";
shapes = (
{
closed = 1;
nodes = (
(108,0,l),
(248,252,ls),
(260,273,o),
(285,317,o),
(301,345,c),
(317,317,o),
(343,273,o),
(355,252,cs),
(491,0,l),
(547,0,l),
(330,382,l),
(532,730,l),
(478,730,l),
(354,508,ls),
(341,485,o),
(315,441,o),
(300,415,c),
(284,442,o),
(258,485,o),
(246,508,cs),
(124,730,l),
(68,730,l),
(270,380,l),
(53,0,l)
);
}
);
width = 600;
},
{
anchors = (
{
name = bottom;
pos = (300,0);
},
{
name = top;
pos = (300,730);
}
);
layerId = "CCC0BD40-BA8C-414E-B576-CF0B94E6C996";
shapes = (
{
closed = 1;
nodes = (
(140,0,l),
(266,233,ls),
(278,255,o),
(292,284,o),
(299,300,c),
(306,284,o),
(320,255,o),
(332,232,cs),
(457,0,l),
(560,0,l),
(350,376,l),
(549,730,l),
(450,730,l),
(335,514,ls),
(323,491,o),
(309,462,o),
(302,447,c),
(294,462,o),
(280,491,o),
(268,514,cs),
(155,730,l),
(51,730,l),
(250,370,l),
(40,0,l)
);
}
);
width = 600;
}
);
unicode = 88;
},
{
glyphname = Y;
layers = (
{
anchors = (
{
name = bottom;
pos = (300,0);
},
{
name = top;
pos = (300,730);
},
{
name = topleft;
pos = (20,730);
}
);
layerId = "9ADF6715-3D0F-493D-8567-18A6FBCFC567";
shapes = (
{
closed = 1;
nodes = (
(375,0,l),
(375,260,l),
(585,730,l),
(429,730,l),
(340,510,ls),
(322,466,o),
(309,410,o),
(303,380,c),
(297,410,o),
(282,466,o),
(264,510,cs),
(172,730,l),
(15,730,l),
(225,260,l),
(225,0,l)
);
}
);
width = 600;
},
{
anchors = (
{
name = bottom;
pos = (300,0);
},
{
name = top;
pos = (300,730);
},
{
name = topleft;
pos = (20,730);
}
);
layerId = "CCC0BD40-BA8C-414E-B576-CF0B94E6C996";
shapes = (
{
closed = 1;
nodes = (
(345,0,l),
(345,273,l),
(565,730,l),
(472,730,l),
(330,430,ls),
(314,397,o),
(304,372,o),
(301,362,c),
(298,372,o),
(289,397,o),
(273,430,cs),
(131,730,l),
(35,730,l),
(255,273,l),
(255,0,l)
);
}
);
width = 600;
},
{
anchors = (
{
name = bottom;
pos = (300,0);
},
{
name = top;
pos = (300,730);
},
{
name = topleft;
pos = (20,730);
}
);
layerId = "EDF5EB54-295C-4C90-9A2F-67CD82979CFF";
shapes = (
{
closed = 1;
nodes = (
(325,0,l),
(325,280,l),
(550,730,l),
(498,730,l),
(333,400,ls),
(318,370,o),
(307,342,o),
(301,330,c),
(295,343,o),
(282,371,o),
(268,400,cs),
(103,730,l),
(50,730,l),
(275,280,l),
(275,0,l)
);
}
);
width = 600;
}
);
unicode = 89;
},
{
glyphname = Z;
layers = (
{
anchors = (
{
name = bottom;
pos = (300,0);
},
{
name = center;
pos = (300,365);
},
{
name = top;
pos = (300,730);
}
);
layerId = "9ADF6715-3D0F-493D-8567-18A6FBCFC567";
shapes = (
{
closed = 1;
nodes = (
(497,0,ls),
(515,0,o),
(525,10,o),
(525,28,cs),
(525,107,ls),
(525,125,o),
(515,135,o),
(497,135,cs),
(284,135,ls),
(262,135,o),
(254,150,o),
(265,169,cs),
(505,579,ls),
(512,590,o),
(514,601,o),
(514,614,cs),
(514,702,ls),
(514,720,o),
(504,730,o),
(486,730,cs),
(111,730,ls),
(93,730,o),
(83,720,o),
(83,702,cs),
(83,623,ls),
(83,605,o),
(93,595,o),
(111,595,cs),
(304,595,ls),
(326,595,o),
(334,581,o),
(323,561,cs),
(84,151,ls),
(77,140,o),
(75,129,o),
(75,116,cs),
(75,28,ls),
(75,10,o),
(85,0,o),
(103,0,cs)
);
}
);
width = 600;
},
{
anchors = (
{
name = bottom;
pos = (300,0);
},
{
name = center;
pos = (300,365);
},
{
name = top;
pos = (300,730);
}
);
layerId = "CCC0BD40-BA8C-414E-B576-CF0B94E6C996";
shapes = (
{
closed = 1;
nodes = (
(495,0,ls),
(508,0,o),
(515,7,o),
(515,20,cs),
(515,62,ls),
(515,75,o),
(508,82,o),
(495,82,cs),
(204,82,ls),
(188,82,o),
(182,93,o),
(190,106,cs),
(498,629,ls),
(503,638,o),
(505,644,o),
(505,653,cs),
(505,710,ls),
(505,723,o),
(498,730,o),
(485,730,cs),
(110,730,ls),
(97,730,o),
(90,723,o),
(90,710,cs),
(90,668,ls),
(90,655,o),
(97,648,o),
(110,648,cs),
(386,648,ls),
(402,648,o),
(408,637,o),
(400,624,cs),
(92,101,ls),
(87,92,o),
(85,86,o),
(85,77,cs),
(85,20,ls),
(85,7,o),
(92,0,o),
(105,0,cs)
);
}
);
width = 600;
},
{
anchors = (
{
name = bottom;
pos = (300,0);
},
{
name = center;
pos = (300,365);
},
{
name = top;
pos = (300,730);
}
);
layerId = "EDF5EB54-295C-4C90-9A2F-67CD82979CFF";
shapes = (
{
closed = 1;
nodes = (
(498,0,ls),
(505,0,o),
(510,5,o),
(510,12,cs),
(510,34,ls),
(510,41,o),
(505,46,o),
(498,46,cs),
(158,46,ls),
(149,46,o),
(144,51,o),
(149,60,cs),
(493,666,ls),
(496,671,o),
(497,676,o),
(497,681,cs),
(497,718,ls),
(497,725,o),
(492,730,o),
(485,730,cs),
(106,730,ls),
(99,730,o),
(94,725,o),
(94,718,cs),
(94,696,ls),
(94,689,o),
(99,684,o),
(106,684,cs),
(433,684,ls),
(442,684,o),
(446,679,o),
(441,670,cs),
(94,57,ls),
(91,52,o),
(90,47,o),
(90,42,cs),
(90,12,ls),
(90,5,o),
(95,0,o),
(102,0,cs)
);
}
);
width = 600;
}
);
unicode = 90;
},
{
glyphname = W.cv07;
layers = (
{
anchors = (
{
name = bottom;
pos = (300,0);
},
{
name = top;
pos = (300,730);
}
);
layerId = "9ADF6715-3D0F-493D-8567-18A6FBCFC567";
shapes = (
{
closed = 1;
nodes = (
(229,0,l),
(302,485,l),
(367,0,l),
(527,0,l),
(590,730,l),
(470,730,l),
(444,242,ls),
(443,215,o),
(439,134,o),
(437,90,c),
(434,134,o),
(427,213,o),
(422,242,cs),
(363,605,l),
(239,605,l),
(178,242,ls),
(173,215,o),
(168,144,o),
(164,100,c),
(163,144,o),
(160,215,o),
(158,242,cs),
(129,730,l),
(10,730,l),
(68,0,l)
);
}
);
width = 600;
},
{
anchors = (
{
name = bottom;
pos = (300,0);
},
{
name = top;
pos = (300,730);
}
);
layerId = "CCC0BD40-BA8C-414E-B576-CF0B94E6C996";
shapes = (
{
closed = 1;
nodes = (
(213,0,l),
(302,500,l),
(385,0,l),
(500,0,l),
(575,730,l),
(496,730,l),
(446,190,ls),
(442,146,o),
(438,103,o),
(437,75,c),
(435,103,o),
(431,144,o),
(423,190,cs),
(354,590,l),
(252,590,l),
(176,190,ls),
(167,145,o),
(165,103,o),
(163,75,c),
(162,103,o),
(160,146,o),
(156,190,cs),
(108,730,l),
(25,730,l),
(98,0,l)
);
}
);
width = 600;
},
{
anchors = (
{
name = bottom;
pos = (300,0);
},
{
name = top;
pos = (300,730);
}
);
layerId = "EDF5EB54-295C-4C90-9A2F-67CD82979CFF";
shapes = (
{
closed = 1;
nodes = (
(190,0,l),
(303,530,l),
(407,0,l),
(479,0,l),
(560,730,l),
(509,730,l),
(457,190,ls),
(454,154,o),
(444,83,o),
(441,38,c),
(437,82,o),
(424,152,o),
(416,190,cs),
(334,575,l),
(272,575,l),
(187,190,ls),
(179,155,o),
(169,82,o),
(164,38,c),
(161,83,o),
(152,154,o),
(148,190,cs),
(90,730,l),
(40,730,l),
(122,0,l)
);
}
);
width = 600;
}
);
},
{
glyphname = K.cv08;
layers = (
{
anchors = (
{
name = bottom;
pos = (300,0);
},
{
name = top;
pos = (300,730);
}
);
layerId = "9ADF6715-3D0F-493D-8567-18A6FBCFC567";
shapes = (
{
closed = 1;
nodes = (
(538,0,ls),
(559,0,o),
(568,14,o),
(559,33,cs),
(385,384,l),
(548,697,ls),
(558,717,o),
(550,730,o),
(528,730,cs),
(425,730,ls),
(410,730,o),
(399,724,o),
(392,710,cs),
(226,380,l),
(397,21,ls),
(404,6,o),
(415,0,o),
(430,0,cs)
);
},
{
closed = 1;
nodes = (
(188,0,ls),
(206,0,o),
(216,10,o),
(216,28,cs),
(216,702,ls),
(216,720,o),
(206,730,o),
(188,730,cs),
(94,730,ls),
(76,730,o),
(66,720,o),
(66,702,cs),
(66,28,ls),
(66,10,o),
(76,0,o),
(94,0,cs)
);
}
);
width = 600;
},
{
anchors = (
{
name = bottom;
pos = (300,0);
},
{
name = top;
pos = (300,730);
}
);
layerId = "CCC0BD40-BA8C-414E-B576-CF0B94E6C996";
shapes = (
{
closed = 1;
nodes = (
(531,0,ls),
(547,0,o),
(553,11,o),
(544,24,cs),
(310,380,l),
(533,706,ls),
(542,720,o),
(537,730,o),
(521,730,cs),
(462,730,ls),
(452,730,o),
(444,726,o),
(438,718,cs),
(198,380,l),
(438,13,ls),
(444,4,o),
(453,0,o),
(463,0,cs)
);
},
{
closed = 1;
nodes = (
(163,0,ls),
(176,0,o),
(183,7,o),
(183,20,cs),
(183,710,ls),
(183,723,o),
(176,730,o),
(163,730,cs),
(113,730,ls),
(100,730,o),
(93,723,o),
(93,710,cs),
(93,20,ls),
(93,7,o),
(100,0,o),
(113,0,cs)
);
}
);
width = 600;
},
{
anchors = (
{
name = bottom;
pos = (300,0);
},
{
name = top;
pos = (300,730);
}
);
layerId = "EDF5EB54-295C-4C90-9A2F-67CD82979CFF";
shapes = (
{
closed = 1;
nodes = (
(521,0,ls),
(531,0,o),
(534,7,o),
(528,15,cs),
(235,382,l),
(512,715,ls),
(518,723,o),
(515,730,o),
(505,730,cs),
(472,730,ls),
(466,730,o),
(461,728,o),
(457,723,cs),
(172,381,l),
(470,7,ls),
(474,2,o),
(479,0,o),
(485,0,cs)
);
},
{
closed = 1;
nodes = (
(148,0,ls),
(155,0,o),
(160,5,o),
(160,12,cs),
(160,718,ls),
(160,725,o),
(155,730,o),
(148,730,cs),
(122,730,ls),
(115,730,o),
(110,725,o),
(110,718,cs),
(110,12,ls),
(110,5,o),
(115,0,o),
(122,0,cs)
);
}
);
width = 600;
}
);
},
{
glyphname = Q.cv16;
layers = (
{
anchors = (
{
name = bottom;
pos = (300,0);
},
{
name = top;
pos = (300,730);
}
);
layerId = "9ADF6715-3D0F-493D-8567-18A6FBCFC567";
shapes = (
{
closed = 1;
nodes = (
(502,-180,ls),
(520,-180,o),
(530,-170,o),
(530,-152,cs),
(530,-93,ls),
(530,-75,o),
(520,-65,o),
(502,-65,cs),
(400,-65,ls),
(372,-65,o),
(355,-50,o),
(355,-22,cs),
(355,43,ls),
(355,61,o),
(345,71,o),
(327,71,cs),
(253,71,ls),
(235,71,o),
(225,61,o),
(225,43,cs),
(225,-34,ls),
(225,-127,o),
(283,-180,o),
(385,-180,cs)
);
},
{
ref = O;
}
);
width = 600;
},
{
anchors = (
{
name = bottom;
pos = (300,0);
},
{
name = top;
pos = (300,730);
}
);
layerId = "CCC0BD40-BA8C-414E-B576-CF0B94E6C996";
shapes = (
{
closed = 1;
nodes = (
(485,-180,ls),
(498,-180,o),
(505,-173,o),
(505,-160,cs),
(505,-118,ls),
(505,-105,o),
(498,-98,o),
(485,-98,cs),
(395,-98,ls),
(359,-98,o),
(335,-73,o),
(335,-35,cs),
(335,28,ls),
(335,41,o),
(328,48,o),
(315,48,cs),
(265,48,ls),
(252,48,o),
(245,41,o),
(245,28,cs),
(245,-35,ls),
(245,-123,o),
(304,-180,o),
(395,-180,cs)
);
},
{
ref = O;
}
);
width = 600;
},
{
anchors = (
{
name = bottom;
pos = (300,0);
},
{
name = top;
pos = (300,730);
}
);
layerId = "EDF5EB54-295C-4C90-9A2F-67CD82979CFF";
shapes = (
{
closed = 1;
nodes = (
(478,-180,ls),
(485,-180,o),
(490,-175,o),
(490,-168,cs),
(490,-147,ls),
(490,-140,o),
(485,-135,o),
(478,-135,cs),
(400,-135,ls),
(348,-135,o),
(320,-107,o),
(320,-55,cs),
(320,13,ls),
(320,20,o),
(315,25,o),
(308,25,cs),
(282,25,ls),
(275,25,o),
(270,20,o),
(270,13,cs),
(270,-55,ls),
(270,-136,o),
(316,-180,o),
(400,-180,cs)
);
},
{
ref = O;
}
);
width = 600;
}
);
},
{
export = 0;
glyphname = A.half;
layers = (
{
layerId = "EDF5EB54-295C-4C90-9A2F-67CD82979CFF";
shapes = (
{
closed = 1;
nodes = (
(324,9,ls),
(327,2,o),
(332,0,o),
(338,0,cs),
(359,0,ls),
(368,0,o),
(372,5,o),
(368,14,cs),
(225,326,ls),
(222,333,o),
(217,335,o),
(211,335,cs),
(189,335,ls),
(183,335,o),
(178,333,o),
(175,326,cs),
(32,14,ls),
(28,5,o),
(32,0,o),
(41,0,cs),
(65,0,ls),
(71,0,o),
(76,2,o),
(79,9,cs),
(166,206,ls),
(186,252,o),
(195,276,o),
(200,297,c),
(205,276,o),
(215,251,o),
(235,206,cs)
);
},
{
closed = 1;
nodes = (
(95,75,l),
(303,75,l),
(303,114,l),
(95,114,l)
);
}
);
width = 600;
},
{
layerId = "9ADF6715-3D0F-493D-8567-18A6FBCFC567";
shapes = (
{
closed = 1;
nodes = (
(297,21,ls),
(303,7,o),
(313,0,o),
(329,0,cs),
(359,0,ls),
(380,0,o),
(388,14,o),
(380,33,cs),
(256,314,ls),
(250,329,o),
(240,335,o),
(224,335,cs),
(176,335,ls),
(160,335,o),
(150,329,o),
(144,314,cs),
(19,33,ls),
(11,14,o),
(20,0,o),
(41,0,cs),
(72,0,ls),
(88,0,o),
(98,8,o),
(104,22,cs),
(181,206,ls),
(191,231,o),
(196,252,o),
(199,270,c),
(202,252,o),
(206,232,o),
(217,206,cs)
);
},
{
closed = 1;
nodes = (
(105,60,l),
(293,60,l),
(293,134,l),
(105,134,l)
);
}
);
width = 600;
},
{
layerId = "CCC0BD40-BA8C-414E-B576-CF0B94E6C996";
shapes = (
{
closed = 1;
nodes = (
(309,15,ls),
(313,5,o),
(322,0,o),
(333,0,cs),
(359,0,ls),
(374,0,o),
(381,9,o),
(375,23,cs),
(244,320,ls),
(240,330,o),
(231,335,o),
(220,335,cs),
(180,335,ls),
(169,335,o),
(160,330,o),
(156,320,cs),
(25,23,ls),
(19,9,o),
(26,0,o),
(41,0,cs),
(68,0,ls),
(79,0,o),
(87,4,o),
(91,15,cs),
(171,206,ls),
(181,231,o),
(196,262,o),
(199,280,c),
(202,262,o),
(216,231,o),
(227,206,cs)
);
},
{
closed = 1;
nodes = (
(105,65,l),
(293,65,l),
(293,124,l),
(105,124,l)
);
}
);
width = 600;
}
);
},
{
export = 0;
glyphname = B.half;
layers = (
{
layerId = "9ADF6715-3D0F-493D-8567-18A6FBCFC567";
shapes = (
{
closed = 1;
nodes = (
(254,0,ls),
(323,0,o),
(380,38,o),
(380,93,cs),
(380,146,o),
(333,181,o),
(261,179,c),
(261,168,l),
(323,166,o),
(363,200,o),
(363,251,cs),
(363,301,o),
(307,335,o),
(239,335,cs),
(63,335,ls),
(45,335,o),
(35,325,o),
(35,307,cs),
(35,28,ls),
(35,10,o),
(45,0,o),
(63,0,cs)
);
},
{
closed = 1;
nodes = (
(121,137,l),
(241,137,ls),
(272,137,o),
(293,125,o),
(293,100,cs),
(293,75,o),
(272,66,o),
(241,66,cs),
(149,66,ls),
(131,66,o),
(121,76,o),
(121,94,cs)
);
},
{
closed = 1;
nodes = (
(121,241,ls),
(121,259,o),
(131,269,o),
(149,269,cs),
(231,269,ls),
(258,269,o),
(276,260,o),
(276,235,cs),
(276,210,o),
(257,199,o),
(230,199,cs),
(121,199,l)
);
}
);
width = 600;
},
{
layerId = "CCC0BD40-BA8C-414E-B576-CF0B94E6C996";
shapes = (
{
closed = 1;
nodes = (
(254,0,ls),
(323,0,o),
(370,38,o),
(370,93,cs),
(370,146,o),
(323,181,o),
(251,179,c),
(251,168,l),
(313,166,o),
(353,200,o),
(353,251,cs),
(353,301,o),
(307,335,o),
(239,335,cs),
(65,335,ls),
(52,335,o),
(45,328,o),
(45,315,cs),
(45,20,ls),
(45,7,o),
(52,0,o),
(65,0,cs)
);
},
{
closed = 1;
nodes = (
(111,144,l),
(251,144,ls),
(282,144,o),
(303,127,o),
(303,102,cs),
(303,77,o),
(282,58,o),
(251,58,cs),
(131,58,ls),
(118,58,o),
(111,65,o),
(111,78,cs)
);
},
{
closed = 1;
nodes = (
(111,257,ls),
(111,270,o),
(118,277,o),
(131,277,cs),
(241,277,ls),
(268,277,o),
(286,258,o),
(286,233,cs),
(286,208,o),
(267,191,o),
(240,191,cs),
(111,191,l)
);
}
);
width = 600;
},
{
layerId = "EDF5EB54-295C-4C90-9A2F-67CD82979CFF";
shapes = (
{
closed = 1;
nodes = (
(255,0,ls),
(315,0,o),
(356,38,o),
(356,93,cs),
(356,146,o),
(314,181,o),
(254,179,c),
(254,168,l),
(304,166,o),
(339,199,o),
(339,249,cs),
(339,300,o),
(299,335,o),
(240,335,cs),
(70,335,ls),
(63,335,o),
(58,330,o),
(58,323,cs),
(58,12,ls),
(58,5,o),
(63,0,o),
(70,0,cs)
);
},
{
closed = 1;
nodes = (
(104,148,l),
(252,148,ls),
(287,148,o),
(311,126,o),
(311,94,cs),
(311,61,o),
(287,39,o),
(252,39,cs),
(116,39,ls),
(109,39,o),
(104,44,o),
(104,51,cs)
);
},
{
closed = 1;
nodes = (
(104,284,ls),
(104,291,o),
(109,296,o),
(116,296,cs),
(242,296,ls),
(273,296,o),
(294,274,o),
(294,242,cs),
(294,209,o),
(272,187,o),
(241,187,cs),
(104,187,l)
);
}
);
width = 600;
}
);
},
{
export = 0;
glyphname = C.half;
layers = (
{
layerId = "9ADF6715-3D0F-493D-8567-18A6FBCFC567";
shapes = (
{
closed = 1;
nodes = (
(287,-5,o),
(343,33,o),
(368,90,cs),
(376,107,o),
(364,118,o),
(344,118,cs),
(312,118,ls),
(297,118,o),
(289,111,o),
(278,100,cs),
(262,83,o),
(236,73,o),
(207,73,cs),
(149,73,o),
(110,111,o),
(110,167,cs),
(110,223,o),
(149,262,o),
(207,262,cs),
(236,262,o),
(262,252,o),
(278,235,cs),
(289,224,o),
(297,217,o),
(312,217,cs),
(344,217,ls),
(364,217,o),
(375,230,o),
(366,249,cs),
(340,304,o),
(285,340,o),
(207,340,cs),
(97,340,o),
(22,270,o),
(22,167,cs),
(22,65,o),
(97,-5,o),
(207,-5,cs)
);
}
);
width = 600;
},
{
layerId = "EDF5EB54-295C-4C90-9A2F-67CD82979CFF";
shapes = (
{
closed = 1;
nodes = (
(282,-5,o),
(341,31,o),
(360,90,cs),
(362,97,o),
(357,102,o),
(349,102,cs),
(327,102,ls),
(320,102,o),
(316,99,o),
(314,92,cs),
(299,57,o),
(262,33,o),
(212,33,cs),
(143,33,o),
(92,88,o),
(92,167,cs),
(92,247,o),
(143,302,o),
(212,302,cs),
(262,302,o),
(299,278,o),
(314,243,cs),
(316,236,o),
(320,233,o),
(327,233,cs),
(349,233,ls),
(357,233,o),
(362,238,o),
(359,246,cs),
(340,305,o),
(282,340,o),
(212,340,cs),
(114,340,o),
(45,270,o),
(45,167,cs),
(45,65,o),
(114,-5,o),
(212,-5,cs)
);
}
);
width = 600;
},
{
layerId = "CCC0BD40-BA8C-414E-B576-CF0B94E6C996";
shapes = (
{
closed = 1;
nodes = (
(274,-5,o),
(334,31,o),
(361,85,cs),
(367,98,o),
(360,107,o),
(345,107,cs),
(318,107,ls),
(307,107,o),
(300,102,o),
(294,93,cs),
(275,69,o),
(242,53,o),
(207,53,cs),
(146,53,o),
(100,101,o),
(100,167,cs),
(100,233,o),
(146,282,o),
(207,282,cs),
(242,282,o),
(275,266,o),
(294,242,cs),
(300,233,o),
(307,228,o),
(318,228,cs),
(345,228,ls),
(360,228,o),
(367,238,o),
(360,251,cs),
(333,305,o),
(274,340,o),
(207,340,cs),
(107,340,o),
(32,266,o),
(32,167,cs),
(32,69,o),
(107,-5,o),
(207,-5,cs)
);
}
);
width = 600;
}
);
},
{
export = 0;
glyphname = D.half;
layers = (
{
layerId = "9ADF6715-3D0F-493D-8567-18A6FBCFC567";
shapes = (
{
closed = 1;
nodes = (
(195,0,ls),
(305,0,o),
(380,68,o),
(380,167,cs),
(380,267,o),
(305,335,o),
(195,335,cs),
(63,335,ls),
(45,335,o),
(35,325,o),
(35,307,cs),
(35,28,ls),
(35,10,o),
(45,0,o),
(63,0,cs)
);
},
{
closed = 1;
nodes = (
(121,229,ls),
(121,247,o),
(131,257,o),
(149,257,cs),
(195,257,ls),
(253,257,o),
(292,220,o),
(292,167,cs),
(292,114,o),
(253,77,o),
(195,77,cs),
(149,77,ls),
(131,77,o),
(121,87,o),
(121,105,cs)
);
}
);
width = 600;
},
{
layerId = "CCC0BD40-BA8C-414E-B576-CF0B94E6C996";
shapes = (
{
closed = 1;
nodes = (
(195,0,ls),
(295,0,o),
(370,69,o),
(370,167,cs),
(370,266,o),
(295,335,o),
(195,335,cs),
(65,335,ls),
(52,335,o),
(45,328,o),
(45,315,cs),
(45,20,ls),
(45,7,o),
(52,0,o),
(65,0,cs)
);
},
{
closed = 1;
nodes = (
(111,257,ls),
(111,270,o),
(118,277,o),
(131,277,cs),
(195,277,ls),
(255,277,o),
(302,232,o),
(302,167,cs),
(302,102,o),
(255,57,o),
(195,57,cs),
(131,57,ls),
(118,57,o),
(111,64,o),
(111,77,cs)
);
}
);
width = 600;
},
{
layerId = "EDF5EB54-295C-4C90-9A2F-67CD82979CFF";
shapes = (
{
closed = 1;
nodes = (
(189,0,ls),
(287,0,o),
(355,68,o),
(355,167,cs),
(355,267,o),
(287,335,o),
(189,335,cs),
(76,335,ls),
(69,335,o),
(64,330,o),
(64,323,cs),
(64,12,ls),
(64,5,o),
(69,0,o),
(76,0,cs)
);
},
{
closed = 1;
nodes = (
(110,285,ls),
(110,292,o),
(115,297,o),
(122,297,cs),
(189,297,ls),
(258,297,o),
(308,244,o),
(308,167,cs),
(308,90,o),
(258,38,o),
(189,38,cs),
(122,38,ls),
(115,38,o),
(110,43,o),
(110,50,cs)
);
}
);
width = 600;
}
);
},
{
export = 0;
glyphname = E.half;
layers = (
{
layerId = "9ADF6715-3D0F-493D-8567-18A6FBCFC567";
shapes = (
{
closed = 1;
nodes = (
(162,70,ls),
(144,70,o),
(134,80,o),
(134,98,cs),
(134,138,l),
(298,138,ls),
(316,138,o),
(326,148,o),
(326,166,cs),
(326,169,ls),
(326,187,o),
(316,197,o),
(298,197,cs),
(134,197,l),
(134,237,ls),
(134,255,o),
(144,265,o),
(162,265,cs),
(328,265,ls),
(346,265,o),
(356,275,o),
(356,293,cs),
(356,307,ls),
(356,325,o),
(346,335,o),
(328,335,cs),
(76,335,ls),
(58,335,o),
(48,325,o),
(48,307,cs),
(48,28,ls),
(48,10,o),
(58,0,o),
(76,0,cs),
(328,0,ls),
(346,0,o),
(356,10,o),
(356,28,cs),
(356,42,ls),
(356,60,o),
(346,70,o),
(328,70,cs)
);
}
);
width = 600;
},
{
layerId = "CCC0BD40-BA8C-414E-B576-CF0B94E6C996";
shapes = (
{
closed = 1;
nodes = (
(138,58,ls),
(125,58,o),
(118,65,o),
(118,78,cs),
(118,144,l),
(300,144,ls),
(313,144,o),
(320,151,o),
(320,164,cs),
(320,171,ls),
(320,184,o),
(313,191,o),
(300,191,cs),
(118,191,l),
(118,257,ls),
(118,270,o),
(125,277,o),
(138,277,cs),
(330,277,ls),
(343,277,o),
(350,284,o),
(350,297,cs),
(350,315,ls),
(350,328,o),
(343,335,o),
(330,335,cs),
(72,335,ls),
(59,335,o),
(52,328,o),
(52,315,cs),
(52,20,ls),
(52,7,o),
(59,0,o),
(72,0,cs),
(330,0,ls),
(343,0,o),
(350,7,o),
(350,20,cs),
(350,38,ls),
(350,51,o),
(343,58,o),
(330,58,cs)
);
}
);
width = 600;
},
{
layerId = "EDF5EB54-295C-4C90-9A2F-67CD82979CFF";
shapes = (
{
closed = 1;
nodes = (
(127,38,ls),
(120,38,o),
(115,43,o),
(115,50,cs),
(115,149,l),
(300,149,ls),
(307,149,o),
(312,154,o),
(312,161,cs),
(312,174,ls),
(312,181,o),
(307,186,o),
(300,186,cs),
(115,186,l),
(115,285,ls),
(115,292,o),
(120,297,o),
(127,297,cs),
(330,297,ls),
(337,297,o),
(342,302,o),
(342,309,cs),
(342,323,ls),
(342,330,o),
(337,335,o),
(330,335,cs),
(82,335,ls),
(75,335,o),
(70,330,o),
(70,323,cs),
(70,12,ls),
(70,5,o),
(75,0,o),
(82,0,cs),
(330,0,ls),
(337,0,o),
(342,5,o),
(342,12,cs),
(342,26,ls),
(342,33,o),
(337,38,o),
(330,38,cs)
);
}
);
width = 600;
}
);
},
{
export = 0;
glyphname = F.half;
layers = (
{
layerId = "9ADF6715-3D0F-493D-8567-18A6FBCFC567";
shapes = (
{
closed = 1;
nodes = (
(106,0,ls),
(124,0,o),
(134,10,o),
(134,28,cs),
(134,112,l),
(298,112,ls),
(316,112,o),
(326,122,o),
(326,140,cs),
(326,164,ls),
(326,182,o),
(316,192,o),
(298,192,cs),
(134,192,l),
(134,227,ls),
(134,245,o),
(144,255,o),
(162,255,cs),
(328,255,ls),
(346,255,o),
(356,265,o),
(356,283,cs),
(356,307,ls),
(356,325,o),
(346,335,o),
(328,335,cs),
(76,335,ls),
(58,335,o),
(48,325,o),
(48,307,cs),
(48,28,ls),
(48,10,o),
(58,0,o),
(76,0,cs)
);
}
);
width = 600;
},
{
layerId = "CCC0BD40-BA8C-414E-B576-CF0B94E6C996";
shapes = (
{
closed = 1;
nodes = (
(108,0,ls),
(121,0,o),
(128,7,o),
(128,20,cs),
(128,133,l),
(310,133,ls),
(323,133,o),
(330,140,o),
(330,153,cs),
(330,171,ls),
(330,184,o),
(323,191,o),
(310,191,cs),
(128,191,l),
(128,257,ls),
(128,270,o),
(135,277,o),
(148,277,cs),
(340,277,ls),
(353,277,o),
(360,284,o),
(360,297,cs),
(360,315,ls),
(360,328,o),
(353,335,o),
(340,335,cs),
(82,335,ls),
(69,335,o),
(62,328,o),
(62,315,cs),
(62,20,ls),
(62,7,o),
(69,0,o),
(82,0,cs)
);
}
);
width = 600;
},
{
layerId = "EDF5EB54-295C-4C90-9A2F-67CD82979CFF";
shapes = (
{
closed = 1;
nodes = (
(113,0,ls),
(120,0,o),
(125,5,o),
(125,12,cs),
(125,143,l),
(310,143,ls),
(317,143,o),
(322,148,o),
(322,155,cs),
(322,169,ls),
(322,176,o),
(317,181,o),
(310,181,cs),
(125,181,l),
(125,285,ls),
(125,292,o),
(130,297,o),
(137,297,cs),
(340,297,ls),
(347,297,o),
(352,302,o),
(352,309,cs),
(352,323,ls),
(352,330,o),
(347,335,o),
(340,335,cs),
(92,335,ls),
(85,335,o),
(80,330,o),
(80,323,cs),
(80,12,ls),
(80,5,o),
(85,0,o),
(92,0,cs)
);
}
);
width = 600;
}
);
},
{
export = 0;
glyphname = G.half;
layers = (
{
layerId = "9ADF6715-3D0F-493D-8567-18A6FBCFC567";
shapes = (
{
closed = 1;
nodes = (
(22,69,o),
(101,-5,o),
(207,-5,cs),
(308,-5,o),
(384,69,o),
(384,167,cs),
(384,181,l),
(235,181,ls),
(217,181,o),
(207,171,o),
(207,153,cs),
(207,142,ls),
(207,124,o),
(217,114,o),
(235,114,cs),
(289,114,l),
(274,87,o),
(241,73,o),
(207,73,cs),
(152,73,o),
(110,113,o),
(110,167,cs),
(110,221,o),
(152,262,o),
(207,262,cs),
(242,262,o),
(276,251,o),
(291,234,c),
(379,234,l),
(358,295,o),
(284,340,o),
(207,340,cs),
(101,340,o),
(22,266,o),
(22,167,cs)
);
}
);
width = 600;
},
{
layerId = "CCC0BD40-BA8C-414E-B576-CF0B94E6C996";
shapes = (
{
closed = 1;
nodes = (
(32,69,o),
(107,-5,o),
(207,-5,cs),
(302,-5,o),
(374,65,o),
(374,167,cs),
(374,181,l),
(227,181,ls),
(214,181,o),
(207,174,o),
(207,161,cs),
(207,144,ls),
(207,131,o),
(214,124,o),
(227,124,cs),
(306,124,l),
(289,72,o),
(250,53,o),
(207,53,cs),
(146,53,o),
(100,101,o),
(100,167,cs),
(100,233,o),
(146,282,o),
(207,282,cs),
(248,282,o),
(286,260,o),
(301,234,c),
(369,234,l),
(348,294,o),
(283,340,o),
(207,340,cs),
(107,340,o),
(32,266,o),
(32,167,cs)
);
}
);
width = 600;
},
{
layerId = "EDF5EB54-295C-4C90-9A2F-67CD82979CFF";
shapes = (
{
closed = 1;
nodes = (
(39,65,o),
(108,-5,o),
(206,-5,cs),
(300,-5,o),
(368,63,o),
(368,167,cs),
(368,181,l),
(218,181,ls),
(211,181,o),
(206,176,o),
(206,169,cs),
(206,155,ls),
(206,148,o),
(211,143,o),
(218,143,cs),
(320,143,l),
(314,76,o),
(268,33,o),
(206,33,cs),
(136,33,o),
(86,88,o),
(86,167,cs),
(86,247,o),
(136,302,o),
(206,302,cs),
(261,302,o),
(299,273,o),
(311,241,c),
(357,241,l),
(343,299,o),
(281,340,o),
(206,340,cs),
(108,340,o),
(39,270,o),
(39,167,cs)
);
}
);
width = 600;
}
);
},
{
export = 0;
glyphname = H.half;
layers = (
{
layerId = "9ADF6715-3D0F-493D-8567-18A6FBCFC567";
shapes = (
{
closed = 1;
nodes = (
(93,0,ls),
(111,0,o),
(121,10,o),
(121,28,cs),
(121,133,l),
(279,133,l),
(279,28,ls),
(279,10,o),
(289,0,o),
(307,0,cs),
(337,0,ls),
(355,0,o),
(365,10,o),
(365,28,cs),
(365,307,ls),
(365,325,o),
(355,335,o),
(337,335,cs),
(307,335,ls),
(289,335,o),
(279,325,o),
(279,307,cs),
(279,213,l),
(121,213,l),
(121,307,ls),
(121,325,o),
(111,335,o),
(93,335,cs),
(63,335,ls),
(45,335,o),
(35,325,o),
(35,307,cs),
(35,28,ls),
(35,10,o),
(45,0,o),
(63,0,cs)
);
}
);
width = 600;
},
{
layerId = "CCC0BD40-BA8C-414E-B576-CF0B94E6C996";
shapes = (
{
closed = 1;
nodes = (
(91,0,ls),
(104,0,o),
(111,7,o),
(111,20,cs),
(111,143,l),
(289,143,l),
(289,20,ls),
(289,7,o),
(296,0,o),
(309,0,cs),
(335,0,ls),
(348,0,o),
(355,7,o),
(355,20,cs),
(355,315,ls),
(355,328,o),
(348,335,o),
(335,335,cs),
(309,335,ls),
(296,335,o),
(289,328,o),
(289,315,cs),
(289,203,l),
(111,203,l),
(111,315,ls),
(111,328,o),
(104,335,o),
(91,335,cs),
(65,335,ls),
(52,335,o),
(45,328,o),
(45,315,cs),
(45,20,ls),
(45,7,o),
(52,0,o),
(65,0,cs)
);
}
);
width = 600;
},
{
layerId = "EDF5EB54-295C-4C90-9A2F-67CD82979CFF";
shapes = (
{
closed = 1;
nodes = (
(89,0,ls),
(96,0,o),
(101,5,o),
(101,12,cs),
(101,154,l),
(299,154,l),
(299,12,ls),
(299,5,o),
(304,0,o),
(311,0,cs),
(333,0,ls),
(340,0,o),
(345,5,o),
(345,12,cs),
(345,323,ls),
(345,330,o),
(340,335,o),
(333,335,cs),
(311,335,ls),
(304,335,o),
(299,330,o),
(299,323,cs),
(299,192,l),
(101,192,l),
(101,323,ls),
(101,330,o),
(96,335,o),
(89,335,cs),
(67,335,ls),
(60,335,o),
(55,330,o),
(55,323,cs),
(55,12,ls),
(55,5,o),
(60,0,o),
(67,0,cs)
);
}
);
width = 600;
}
);
},
{
export = 0;
glyphname = I.half;
layers = (
{
layerId = "9ADF6715-3D0F-493D-8567-18A6FBCFC567";
shapes = (
{
closed = 1;
nodes = (
(330,0,ls),
(348,0,o),
(358,10,o),
(358,28,cs),
(358,50,ls),
(358,68,o),
(348,78,o),
(330,78,cs),
(243,78,l),
(243,257,l),
(330,257,ls),
(348,257,o),
(358,267,o),
(358,285,cs),
(358,307,ls),
(358,325,o),
(348,335,o),
(330,335,cs),
(70,335,ls),
(52,335,o),
(42,325,o),
(42,307,cs),
(42,285,ls),
(42,267,o),
(52,257,o),
(70,257,cs),
(157,257,l),
(157,78,l),
(70,78,ls),
(52,78,o),
(42,68,o),
(42,50,cs),
(42,28,ls),
(42,10,o),
(52,0,o),
(70,0,cs)
);
}
);
width = 600;
},
{
layerId = "CCC0BD40-BA8C-414E-B576-CF0B94E6C996";
shapes = (
{
closed = 1;
nodes = (
(338,0,ls),
(351,0,o),
(358,7,o),
(358,20,cs),
(358,40,ls),
(358,53,o),
(351,60,o),
(338,60,cs),
(233,60,l),
(233,275,l),
(338,275,ls),
(351,275,o),
(358,282,o),
(358,295,cs),
(358,315,ls),
(358,328,o),
(351,335,o),
(338,335,cs),
(62,335,ls),
(49,335,o),
(42,328,o),
(42,315,cs),
(42,295,ls),
(42,282,o),
(49,275,o),
(62,275,cs),
(167,275,l),
(167,60,l),
(62,60,ls),
(49,60,o),
(42,53,o),
(42,40,cs),
(42,20,ls),
(42,7,o),
(49,0,o),
(62,0,cs)
);
}
);
width = 600;
},
{
layerId = "EDF5EB54-295C-4C90-9A2F-67CD82979CFF";
shapes = (
{
closed = 1;
nodes = (
(336,0,ls),
(343,0,o),
(348,5,o),
(348,12,cs),
(348,26,ls),
(348,33,o),
(343,38,o),
(336,38,cs),
(223,38,l),
(223,297,l),
(336,297,ls),
(343,297,o),
(348,302,o),
(348,309,cs),
(348,323,ls),
(348,330,o),
(343,335,o),
(336,335,cs),
(64,335,ls),
(57,335,o),
(52,330,o),
(52,323,cs),
(52,309,ls),
(52,302,o),
(57,297,o),
(64,297,cs),
(177,297,l),
(177,38,l),
(64,38,ls),
(57,38,o),
(52,33,o),
(52,26,cs),
(52,12,ls),
(52,5,o),
(57,0,o),
(64,0,cs)
);
}
);
width = 600;
}
);
},
{
export = 0;
glyphname = K.half;
layers = (
{
layerId = "9ADF6715-3D0F-493D-8567-18A6FBCFC567";
shapes = (
{
closed = 1;
nodes = (
(93,0,ls),
(111,0,o),
(121,10,o),
(121,28,cs),
(121,133,l),
(185,133,l),
(269,17,ls),
(278,5,o),
(288,0,o),
(303,0,cs),
(338,0,ls),
(361,0,o),
(369,15,o),
(356,34,cs),
(254,176,l),
(345,301,ls),
(359,320,o),
(351,335,o),
(328,335,cs),
(297,335,ls),
(282,335,o),
(272,330,o),
(263,318,cs),
(185,211,l),
(121,211,l),
(121,307,ls),
(121,325,o),
(111,335,o),
(93,335,cs),
(63,335,ls),
(45,335,o),
(35,325,o),
(35,307,cs),
(35,28,ls),
(35,10,o),
(45,0,o),
(63,0,cs)
);
}
);
width = 600;
},
{
layerId = "CCC0BD40-BA8C-414E-B576-CF0B94E6C996";
shapes = (
{
closed = 1;
nodes = (
(91,0,ls),
(104,0,o),
(111,7,o),
(111,20,cs),
(111,143,l),
(190,143,l),
(283,12,ls),
(289,4,o),
(297,0,o),
(307,0,cs),
(340,0,ls),
(356,0,o),
(362,11,o),
(353,24,cs),
(247,174,l),
(343,311,ls),
(352,324,o),
(346,335,o),
(330,335,cs),
(301,335,ls),
(291,335,o),
(283,331,o),
(277,323,cs),
(190,201,l),
(111,201,l),
(111,315,ls),
(111,328,o),
(104,335,o),
(91,335,cs),
(65,335,ls),
(52,335,o),
(45,328,o),
(45,315,cs),
(45,20,ls),
(45,7,o),
(52,0,o),
(65,0,cs)
);
}
);
width = 600;
},
{
layerId = "EDF5EB54-295C-4C90-9A2F-67CD82979CFF";
shapes = (
{
closed = 1;
nodes = (
(89,0,ls),
(96,0,o),
(101,5,o),
(101,12,cs),
(101,153,l),
(189,153,l),
(298,7,ls),
(302,2,o),
(306,0,o),
(312,0,cs),
(342,0,ls),
(352,0,o),
(355,7,o),
(349,15,cs),
(231,174,l),
(339,320,ls),
(345,328,o),
(342,335,o),
(332,335,cs),
(307,335,ls),
(301,335,o),
(297,333,o),
(293,328,cs),
(190,191,l),
(101,191,l),
(101,323,ls),
(101,330,o),
(96,335,o),
(89,335,cs),
(67,335,ls),
(60,335,o),
(55,330,o),
(55,323,cs),
(55,12,ls),
(55,5,o),
(60,0,o),
(67,0,cs)
);
}
);
width = 600;
}
);
},
{
export = 0;
glyphname = L.half;
layers = (
{
anchors = (
{
name = topright;
pos = (580,730);
}
);
layerId = "9ADF6715-3D0F-493D-8567-18A6FBCFC567";
shapes = (
{
closed = 1;
nodes = (
(342,0,ls),
(360,0,o),
(370,10,o),
(370,28,cs),
(370,52,ls),
(370,70,o),
(360,80,o),
(342,80,cs),
(186,80,ls),
(168,80,o),
(158,90,o),
(158,108,cs),
(158,307,ls),
(158,325,o),
(148,335,o),
(130,335,cs),
(100,335,ls),
(82,335,o),
(72,325,o),
(72,307,cs),
(72,28,ls),
(72,10,o),
(82,0,o),
(100,0,cs)
);
}
);
width = 600;
},
{
anchors = (
{
name = topright;
pos = (580,730);
}
);
layerId = "CCC0BD40-BA8C-414E-B576-CF0B94E6C996";
shapes = (
{
closed = 1;
nodes = (
(350,0,ls),
(363,0,o),
(370,7,o),
(370,20,cs),
(370,40,ls),
(370,53,o),
(363,60,o),
(350,60,cs),
(168,60,ls),
(155,60,o),
(148,67,o),
(148,80,cs),
(148,315,ls),
(148,328,o),
(141,335,o),
(128,335,cs),
(102,335,ls),
(89,335,o),
(82,328,o),
(82,315,cs),
(82,20,ls),
(82,7,o),
(89,0,o),
(102,0,cs)
);
}
);
width = 600;
},
{
anchors = (
{
name = topright;
pos = (580,730);
}
);
layerId = "EDF5EB54-295C-4C90-9A2F-67CD82979CFF";
shapes = (
{
closed = 1;
nodes = (
(348,0,ls),
(355,0,o),
(360,5,o),
(360,12,cs),
(360,28,ls),
(360,35,o),
(355,40,o),
(348,40,cs),
(150,40,ls),
(143,40,o),
(138,45,o),
(138,52,cs),
(138,323,ls),
(138,330,o),
(133,335,o),
(126,335,cs),
(104,335,ls),
(97,335,o),
(92,330,o),
(92,323,cs),
(92,12,ls),
(92,5,o),
(97,0,o),
(104,0,cs)
);
}
);
width = 600;
}
);
},
{
export = 0;
glyphname = M.half;
layers = (
{
layerId = "CCC0BD40-BA8C-414E-B576-CF0B94E6C996";
shapes = (
{
closed = 1;
nodes = (
(75,0,ls),
(88,0,o),
(95,7,o),
(95,20,cs),
(95,95,ls),
(95,198,o),
(89,244,o),
(79,295,c),
(160,111,ls),
(164,101,o),
(173,96,o),
(184,96,cs),
(217,96,ls),
(228,96,o),
(237,100,o),
(241,111,cs),
(320,298,l),
(306,247,o),
(306,185,o),
(306,95,cs),
(306,20,ls),
(306,7,o),
(313,0,o),
(326,0,cs),
(350,0,ls),
(363,0,o),
(370,7,o),
(370,20,cs),
(370,315,ls),
(370,328,o),
(363,335,o),
(350,335,cs),
(297,335,ls),
(286,335,o),
(277,330,o),
(273,320,cs),
(227,213,ls),
(213,181,o),
(206,169,o),
(201,146,c),
(196,169,o),
(189,182,o),
(176,212,cs),
(128,320,ls),
(124,330,o),
(115,335,o),
(104,335,cs),
(50,335,ls),
(37,335,o),
(30,328,o),
(30,315,cs),
(30,20,ls),
(30,7,o),
(37,0,o),
(50,0,cs)
);
}
);
width = 600;
},
{
layerId = "EDF5EB54-295C-4C90-9A2F-67CD82979CFF";
shapes = (
{
closed = 1;
nodes = (
(73,0,ls),
(80,0,o),
(85,5,o),
(85,12,cs),
(85,95,ls),
(85,198,o),
(85,252,o),
(74,303,c),
(176,105,ls),
(179,99,o),
(184,96,o),
(190,96,cs),
(209,96,ls),
(215,96,o),
(220,99,o),
(223,105,cs),
(326,306,l),
(316,255,o),
(316,185,o),
(316,95,cs),
(316,12,ls),
(316,5,o),
(321,0,o),
(328,0,cs),
(348,0,ls),
(355,0,o),
(360,5,o),
(360,12,cs),
(360,323,ls),
(360,330,o),
(355,335,o),
(348,335,cs),
(310,335,ls),
(304,335,o),
(299,332,o),
(296,326,cs),
(222,183,ls),
(206,153,o),
(204,144,o),
(200,131,c),
(196,144,o),
(193,153,o),
(178,182,cs),
(105,326,ls),
(102,332,o),
(97,335,o),
(91,335,cs),
(52,335,ls),
(45,335,o),
(40,330,o),
(40,323,cs),
(40,12,ls),
(40,5,o),
(45,0,o),
(52,0,cs)
);
}
);
width = 600;
},
{
layerId = "9ADF6715-3D0F-493D-8567-18A6FBCFC567";
shapes = (
{
closed = 1;
nodes = (
(72,0,ls),
(90,0,o),
(100,10,o),
(100,28,cs),
(100,95,ls),
(100,198,o),
(100,235,o),
(90,286,c),
(150,119,ls),
(155,104,o),
(166,96,o),
(182,96,cs),
(220,96,ls),
(236,96,o),
(247,104,o),
(252,119,cs),
(309,289,l),
(300,238,o),
(300,185,o),
(300,95,cs),
(300,28,ls),
(300,10,o),
(310,0,o),
(328,0,cs),
(352,0,ls),
(370,0,o),
(380,10,o),
(380,28,cs),
(380,307,ls),
(380,325,o),
(370,335,o),
(352,335,cs),
(281,335,ls),
(265,335,o),
(254,327,o),
(249,312,cs),
(216,213,ls),
(205,180,o),
(204,169,o),
(202,153,c),
(200,169,o),
(198,180,o),
(187,212,cs),
(152,312,ls),
(147,327,o),
(136,335,o),
(120,335,cs),
(48,335,ls),
(30,335,o),
(20,325,o),
(20,307,cs),
(20,28,ls),
(20,10,o),
(30,0,o),
(48,0,cs)
);
}
);
width = 600;
}
);
},
{
export = 0;
glyphname = N.half;
layers = (
{
layerId = "9ADF6715-3D0F-493D-8567-18A6FBCFC567";
shapes = (
{
closed = 1;
nodes = (
(92,0,ls),
(110,0,o),
(120,10,o),
(120,28,cs),
(120,115,ls),
(120,188,o),
(115,204,o),
(105,255,c),
(244,19,ls),
(252,5,o),
(262,0,o),
(277,0,cs),
(337,0,ls),
(355,0,o),
(365,10,o),
(365,28,cs),
(365,307,ls),
(365,325,o),
(355,335,o),
(337,335,cs),
(308,335,ls),
(290,335,o),
(280,325,o),
(280,307,cs),
(280,230,ls),
(280,157,o),
(285,130,o),
(295,80,c),
(157,316,ls),
(149,330,o),
(139,335,o),
(124,335,cs),
(63,335,ls),
(45,335,o),
(35,325,o),
(35,307,cs),
(35,28,ls),
(35,10,o),
(45,0,o),
(63,0,cs)
);
}
);
width = 600;
},
{
layerId = "CCC0BD40-BA8C-414E-B576-CF0B94E6C996";
shapes = (
{
closed = 1;
nodes = (
(90,0,ls),
(103,0,o),
(110,7,o),
(110,20,cs),
(110,105,ls),
(110,195,o),
(108,209,o),
(97,265,c),
(266,13,ls),
(272,4,o),
(280,0,o),
(290,0,cs),
(335,0,ls),
(348,0,o),
(355,7,o),
(355,20,cs),
(355,315,ls),
(355,328,o),
(348,335,o),
(335,335,cs),
(310,335,ls),
(297,335,o),
(290,328,o),
(290,315,cs),
(290,230,ls),
(290,141,o),
(292,129,o),
(303,70,c),
(134,322,ls),
(128,331,o),
(120,335,o),
(110,335,cs),
(65,335,ls),
(52,335,o),
(45,328,o),
(45,315,cs),
(45,20,ls),
(45,7,o),
(52,0,o),
(65,0,cs)
);
}
);
width = 600;
},
{
layerId = "EDF5EB54-295C-4C90-9A2F-67CD82979CFF";
shapes = (
{
closed = 1;
nodes = (
(88,0,ls),
(95,0,o),
(100,5,o),
(100,12,cs),
(100,115,ls),
(100,218,o),
(100,244,o),
(89,295,c),
(285,8,ls),
(288,3,o),
(293,0,o),
(299,0,cs),
(333,0,ls),
(340,0,o),
(345,5,o),
(345,12,cs),
(345,323,ls),
(345,330,o),
(340,335,o),
(333,335,cs),
(312,335,ls),
(305,335,o),
(300,330,o),
(300,323,cs),
(300,230,ls),
(300,127,o),
(300,90,o),
(311,40,c),
(115,327,ls),
(112,332,o),
(107,335,o),
(101,335,cs),
(67,335,ls),
(60,335,o),
(55,330,o),
(55,323,cs),
(55,12,ls),
(55,5,o),
(60,0,o),
(67,0,cs)
);
}
);
width = 600;
}
);
},
{
export = 0;
glyphname = O.half;
layers = (
{
layerId = "EDF5EB54-295C-4C90-9A2F-67CD82979CFF";
shapes = (
{
closed = 1;
nodes = (
(295,-5,o),
(367,69,o),
(367,167,cs),
(367,266,o),
(295,340,o),
(200,340,cs),
(105,340,o),
(33,266,o),
(33,167,cs),
(33,69,o),
(105,-5,o),
(200,-5,cs)
);
},
{
closed = 1;
nodes = (
(131,33,o),
(80,90,o),
(80,167,cs),
(80,244,o),
(131,302,o),
(200,302,cs),
(269,302,o),
(320,244,o),
(320,167,cs),
(320,90,o),
(269,33,o),
(200,33,cs)
);
}
);
width = 400;
},
{
layerId = "CCC0BD40-BA8C-414E-B576-CF0B94E6C996";
shapes = (
{
closed = 1;
nodes = (
(300,-5,o),
(375,69,o),
(375,167,cs),
(375,266,o),
(300,340,o),
(200,340,cs),
(100,340,o),
(25,266,o),
(25,167,cs),
(25,69,o),
(100,-5,o),
(200,-5,cs)
);
},
{
closed = 1;
nodes = (
(140,53,o),
(93,102,o),
(93,167,cs),
(93,232,o),
(140,282,o),
(200,282,cs),
(260,282,o),
(307,232,o),
(307,167,cs),
(307,102,o),
(260,53,o),
(200,53,cs)
);
}
);
width = 400;
},
{
layerId = "9ADF6715-3D0F-493D-8567-18A6FBCFC567";
shapes = (
{
closed = 1;
nodes = (
(305,-5,o),
(383,69,o),
(383,167,cs),
(383,266,o),
(305,340,o),
(200,340,cs),
(95,340,o),
(16,266,o),
(16,167,cs),
(16,69,o),
(95,-5,o),
(200,-5,cs)
);
},
{
closed = 1;
nodes = (
(145,73,o),
(104,113,o),
(104,167,cs),
(104,221,o),
(145,262,o),
(200,262,cs),
(254,262,o),
(295,221,o),
(295,167,cs),
(295,113,o),
(254,73,o),
(200,73,cs)
);
}
);
width = 600;
}
);
},
{
export = 0;
glyphname = P.half;
layers = (
{
layerId = "9ADF6715-3D0F-493D-8567-18A6FBCFC567";
shapes = (
{
closed = 1;
nodes = (
(103,0,ls),
(121,0,o),
(131,10,o),
(131,28,cs),
(131,107,l),
(236,107,ls),
(321,107,o),
(380,153,o),
(380,220,cs),
(380,288,o),
(321,335,o),
(236,335,cs),
(73,335,ls),
(55,335,o),
(45,325,o),
(45,307,cs),
(45,28,ls),
(45,10,o),
(55,0,o),
(73,0,cs)
);
},
{
closed = 1;
nodes = (
(131,239,ls),
(131,257,o),
(141,267,o),
(159,267,cs),
(238,267,ls),
(271,267,o),
(293,248,o),
(293,220,cs),
(293,193,o),
(270,175,o),
(237,175,cs),
(131,175,l)
);
}
);
width = 600;
},
{
layerId = "CCC0BD40-BA8C-414E-B576-CF0B94E6C996";
shapes = (
{
closed = 1;
nodes = (
(101,0,ls),
(114,0,o),
(121,7,o),
(121,20,cs),
(121,117,l),
(246,117,ls),
(320,117,o),
(370,163,o),
(370,225,cs),
(370,288,o),
(320,335,o),
(246,335,cs),
(75,335,ls),
(62,335,o),
(55,328,o),
(55,315,cs),
(55,20,ls),
(55,7,o),
(62,0,o),
(75,0,cs)
);
},
{
closed = 1;
nodes = (
(121,257,ls),
(121,270,o),
(128,277,o),
(141,277,cs),
(248,277,ls),
(281,277,o),
(303,254,o),
(303,225,cs),
(303,197,o),
(280,175,o),
(247,175,cs),
(121,175,l)
);
}
);
width = 600;
},
{
layerId = "EDF5EB54-295C-4C90-9A2F-67CD82979CFF";
shapes = (
{
closed = 1;
nodes = (
(99,0,ls),
(106,0,o),
(111,5,o),
(111,12,cs),
(111,127,l),
(246,127,ls),
(314,127,o),
(360,169,o),
(360,230,cs),
(360,292,o),
(314,335,o),
(246,335,cs),
(77,335,ls),
(70,335,o),
(65,330,o),
(65,323,cs),
(65,12,ls),
(65,5,o),
(70,0,o),
(77,0,cs)
);
},
{
closed = 1;
nodes = (
(111,285,ls),
(111,292,o),
(116,297,o),
(123,297,cs),
(248,297,ls),
(287,297,o),
(313,270,o),
(313,230,cs),
(313,191,o),
(286,165,o),
(247,165,cs),
(111,165,l)
);
}
);
width = 600;
}
);
},
{
export = 0;
glyphname = Q.half;
layers = (
{
layerId = "9ADF6715-3D0F-493D-8567-18A6FBCFC567";
shapes = (
{
closed = 1;
nodes = (
(229,-5,o),
(267,5,o),
(290,18,c),
(256,89,l),
(241,80,o),
(217,73,o),
(200,73,cs),
(145,73,o),
(104,113,o),
(104,167,cs),
(104,221,o),
(145,261,o),
(200,261,cs),
(255,261,o),
(296,221,o),
(296,167,cs),
(296,162,o),
(295,156,o),
(294,150,cs),
(292,139,o),
(294,128,o),
(303,117,cs),
(326,89,ls),
(339,73,o),
(357,74,o),
(365,93,cs),
(377,117,o),
(384,145,o),
(384,167,cs),
(384,266,o),
(305,340,o),
(200,340,cs),
(95,340,o),
(16,266,o),
(16,167,cs),
(16,69,o),
(95,-5,o),
(200,-5,cs)
);
},
{
closed = 1;
nodes = (
(349,-58,ls),
(372,-58,o),
(379,-42,o),
(365,-24,cs),
(263,108,ls),
(254,119,o),
(243,125,o),
(229,125,cs),
(198,125,ls),
(175,125,o),
(168,109,o),
(182,91,cs),
(284,-41,ls),
(293,-52,o),
(304,-58,o),
(318,-58,cs)
);
}
);
width = 600;
},
{
layerId = "CCC0BD40-BA8C-414E-B576-CF0B94E6C996";
shapes = (
{
closed = 1;
nodes = (
(233,-5,o),
(264,3,o),
(290,18,c),
(256,69,l),
(240,59,o),
(221,53,o),
(200,53,cs),
(140,53,o),
(93,102,o),
(93,167,cs),
(93,232,o),
(140,281,o),
(200,281,cs),
(260,281,o),
(307,232,o),
(307,167,cs),
(307,155,o),
(305,143,o),
(302,132,cs),
(299,121,o),
(300,114,o),
(307,105,cs),
(327,81,ls),
(336,70,o),
(348,70,o),
(355,83,cs),
(368,108,o),
(375,137,o),
(375,167,cs),
(375,266,o),
(300,340,o),
(200,340,cs),
(100,340,o),
(25,266,o),
(25,167,cs),
(25,69,o),
(100,-5,o),
(200,-5,cs)
);
},
{
closed = 1;
nodes = (
(351,-58,ls),
(368,-58,o),
(373,-47,o),
(363,-34,cs),
(249,113,ls),
(243,121,o),
(235,125,o),
(225,125,cs),
(196,125,ls),
(179,125,o),
(174,114,o),
(184,101,cs),
(298,-46,ls),
(304,-54,o),
(312,-58,o),
(322,-58,cs)
);
}
);
width = 600;
},
{
layerId = "EDF5EB54-295C-4C90-9A2F-67CD82979CFF";
shapes = (
{
closed = 1;
nodes = (
(232,-5,o),
(261,2,o),
(285,16,c),
(258,48,l),
(241,38,o),
(221,33,o),
(200,33,cs),
(131,33,o),
(80,88,o),
(80,167,cs),
(80,246,o),
(131,302,o),
(200,302,cs),
(269,302,o),
(320,246,o),
(320,167,cs),
(320,143,o),
(315,120,o),
(309,106,cs),
(306,100,o),
(307,94,o),
(311,89,cs),
(327,72,ls),
(333,65,o),
(339,66,o),
(343,74,cs),
(358,100,o),
(367,133,o),
(367,167,cs),
(367,270,o),
(298,340,o),
(200,340,cs),
(102,340,o),
(33,270,o),
(33,167,cs),
(33,65,o),
(102,-5,o),
(200,-5,cs)
);
},
{
closed = 1;
nodes = (
(362,-58,ls),
(372,-58,o),
(375,-51,o),
(369,-43,cs),
(238,118,ls),
(234,123,o),
(229,125,o),
(223,125,cs),
(199,125,ls),
(189,125,o),
(186,118,o),
(192,110,cs),
(326,-51,ls),
(330,-56,o),
(335,-58,o),
(341,-58,cs)
);
}
);
width = 600;
}
);
},
{
export = 0;
glyphname = R.half;
layers = (
{
layerId = "9ADF6715-3D0F-493D-8567-18A6FBCFC567";
shapes = (
{
closed = 1;
nodes = (
(103,0,ls),
(121,0,o),
(131,10,o),
(131,28,cs),
(131,107,l),
(236,107,ls),
(321,107,o),
(380,153,o),
(380,220,cs),
(380,288,o),
(321,335,o),
(236,335,cs),
(73,335,ls),
(55,335,o),
(45,325,o),
(45,307,cs),
(45,28,ls),
(45,10,o),
(55,0,o),
(73,0,cs)
);
},
{
closed = 1;
nodes = (
(341,0,ls),
(364,0,o),
(372,16,o),
(358,34,cs),
(274,141,l),
(176,141,l),
(272,17,ls),
(281,6,o),
(292,0,o),
(306,0,cs)
);
},
{
closed = 1;
nodes = (
(131,239,ls),
(131,257,o),
(141,267,o),
(159,267,cs),
(238,267,ls),
(271,267,o),
(293,248,o),
(293,220,cs),
(293,193,o),
(270,175,o),
(237,175,cs),
(131,175,l)
);
}
);
width = 600;
},
{
layerId = "CCC0BD40-BA8C-414E-B576-CF0B94E6C996";
shapes = (
{
closed = 1;
nodes = (
(91,0,ls),
(104,0,o),
(111,7,o),
(111,20,cs),
(111,129,l),
(243,129,ls),
(317,129,o),
(367,165,o),
(367,227,cs),
(367,290,o),
(317,335,o),
(243,335,cs),
(65,335,ls),
(52,335,o),
(45,328,o),
(45,315,cs),
(45,20,ls),
(45,7,o),
(52,0,o),
(65,0,cs)
);
},
{
closed = 1;
nodes = (
(344,0,ls),
(361,0,o),
(366,11,o),
(356,24,cs),
(264,141,l),
(186,141,l),
(286,12,ls),
(292,4,o),
(300,0,o),
(310,0,cs)
);
},
{
closed = 1;
nodes = (
(111,257,ls),
(111,270,o),
(118,277,o),
(131,277,cs),
(245,277,ls),
(278,277,o),
(300,256,o),
(300,227,cs),
(300,199,o),
(277,179,o),
(244,179,cs),
(111,179,l)
);
}
);
width = 600;
},
{
layerId = "EDF5EB54-295C-4C90-9A2F-67CD82979CFF";
shapes = (
{
closed = 1;
nodes = (
(89,0,ls),
(96,0,o),
(101,5,o),
(101,12,cs),
(101,127,l),
(236,127,ls),
(304,127,o),
(350,169,o),
(350,230,cs),
(350,292,o),
(304,335,o),
(236,335,cs),
(67,335,ls),
(60,335,o),
(55,330,o),
(55,323,cs),
(55,12,ls),
(55,5,o),
(60,0,o),
(67,0,cs)
);
},
{
closed = 1;
nodes = (
(343,0,ls),
(353,0,o),
(356,7,o),
(350,15,cs),
(251,141,l),
(195,141,l),
(299,7,ls),
(303,2,o),
(308,0,o),
(314,0,cs)
);
},
{
closed = 1;
nodes = (
(101,285,ls),
(101,292,o),
(106,297,o),
(113,297,cs),
(238,297,ls),
(277,297,o),
(303,270,o),
(303,230,cs),
(303,191,o),
(276,165,o),
(237,165,cs),
(101,165,l)
);
}
);
width = 600;
}
);
},
{
export = 0;
glyphname = S.half;
layers = (
{
layerId = "9ADF6715-3D0F-493D-8567-18A6FBCFC567";
shapes = (
{
closed = 1;
nodes = (
(234,-3,ls),
(317,-3,o),
(369,37,o),
(369,102,cs),
(369,159,o),
(323,200,o),
(249,208,cs),
(158,218,ls),
(136,220,o),
(122,229,o),
(122,241,cs),
(122,256,o),
(137,268,o),
(160,268,cs),
(230,268,ls),
(245,268,o),
(257,265,o),
(266,260,cs),
(278,252,o),
(285,244,o),
(299,244,cs),
(331,244,ls),
(351,244,o),
(363,257,o),
(354,275,cs),
(334,315,o),
(289,338,o),
(230,338,cs),
(160,338,ls),
(84,338,o),
(36,301,o),
(36,241,cs),
(36,187,o),
(81,147,o),
(152,139,cs),
(240,129,ls),
(266,126,o),
(283,114,o),
(283,98,cs),
(283,81,o),
(264,67,o),
(234,67,cs),
(166,67,ls),
(147,67,o),
(131,73,o),
(122,83,cs),
(112,95,o),
(105,103,o),
(90,103,cs),
(59,103,ls),
(40,103,o),
(27,91,o),
(34,72,cs),
(53,25,o),
(101,-3,o),
(166,-3,cs)
);
}
);
width = 600;
},
{
layerId = "CCC0BD40-BA8C-414E-B576-CF0B94E6C996";
shapes = (
{
closed = 1;
nodes = (
(213,-4,ls),
(303,-4,o),
(359,37,o),
(359,102,cs),
(359,153,o),
(317,190,o),
(249,198,cs),
(161,208,ls),
(131,211,o),
(112,225,o),
(112,245,cs),
(112,267,o),
(139,281,o),
(183,281,cs),
(208,281,ls),
(242,281,o),
(268,273,o),
(281,258,cs),
(288,249,o),
(293,244,o),
(304,244,cs),
(331,244,ls),
(345,244,o),
(353,253,o),
(348,266,cs),
(329,311,o),
(278,339,o),
(208,339,cs),
(183,339,ls),
(99,339,o),
(46,301,o),
(46,241,cs),
(46,191,o),
(87,156,o),
(152,149,cs),
(240,139,ls),
(273,135,o),
(293,119,o),
(293,98,cs),
(293,71,o),
(262,54,o),
(213,54,cs),
(188,54,ls),
(149,54,o),
(120,66,o),
(108,87,cs),
(103,97,o),
(97,103,o),
(86,103,cs),
(59,103,ls),
(45,103,o),
(37,95,o),
(41,81,cs),
(58,28,o),
(112,-4,o),
(188,-4,cs)
);
}
);
width = 600;
},
{
layerId = "EDF5EB54-295C-4C90-9A2F-67CD82979CFF";
shapes = (
{
closed = 1;
nodes = (
(203,-4,ls),
(293,-4,o),
(349,36,o),
(349,99,cs),
(349,147,o),
(310,181,o),
(249,188,cs),
(161,198,ls),
(125,202,o),
(102,220,o),
(102,245,cs),
(102,279,o),
(137,301,o),
(193,301,cs),
(203,301,ls),
(250,301,o),
(285,283,o),
(295,254,cs),
(298,247,o),
(302,244,o),
(309,244,cs),
(331,244,ls),
(339,244,o),
(344,249,o),
(342,257,cs),
(329,307,o),
(277,339,o),
(203,339,cs),
(193,339,ls),
(109,339,o),
(56,302,o),
(56,243,cs),
(56,198,o),
(93,166,o),
(152,159,cs),
(240,149,ls),
(279,145,o),
(303,125,o),
(303,96,cs),
(303,58,o),
(264,34,o),
(203,34,cs),
(194,34,ls),
(142,34,o),
(105,56,o),
(95,92,cs),
(93,99,o),
(89,103,o),
(82,103,cs),
(60,103,ls),
(52,103,o),
(47,98,o),
(49,90,cs),
(60,32,o),
(115,-4,o),
(194,-4,cs)
);
}
);
width = 600;
}
);
},
{
export = 0;
glyphname = T.half;
layers = (
{
layerId = "9ADF6715-3D0F-493D-8567-18A6FBCFC567";
shapes = (
{
closed = 1;
nodes = (
(215,0,ls),
(233,0,o),
(243,10,o),
(243,28,cs),
(243,255,l),
(357,255,ls),
(375,255,o),
(385,265,o),
(385,283,cs),
(385,307,ls),
(385,325,o),
(375,335,o),
(357,335,cs),
(43,335,ls),
(25,335,o),
(15,325,o),
(15,307,cs),
(15,283,ls),
(15,265,o),
(25,255,o),
(43,255,cs),
(157,255,l),
(157,28,ls),
(157,10,o),
(167,0,o),
(185,0,cs)
);
}
);
width = 600;
},
{
layerId = "CCC0BD40-BA8C-414E-B576-CF0B94E6C996";
shapes = (
{
closed = 1;
nodes = (
(213,0,ls),
(226,0,o),
(233,7,o),
(233,20,cs),
(233,275,l),
(365,275,ls),
(378,275,o),
(385,282,o),
(385,295,cs),
(385,315,ls),
(385,328,o),
(378,335,o),
(365,335,cs),
(35,335,ls),
(22,335,o),
(15,328,o),
(15,315,cs),
(15,295,ls),
(15,282,o),
(22,275,o),
(35,275,cs),
(167,275,l),
(167,20,ls),
(167,7,o),
(174,0,o),
(187,0,cs)
);
}
);
width = 600;
},
{
layerId = "EDF5EB54-295C-4C90-9A2F-67CD82979CFF";
shapes = (
{
closed = 1;
nodes = (
(211,0,ls),
(218,0,o),
(223,5,o),
(223,12,cs),
(223,297,l),
(363,297,ls),
(370,297,o),
(375,302,o),
(375,309,cs),
(375,323,ls),
(375,330,o),
(370,335,o),
(363,335,cs),
(37,335,ls),
(30,335,o),
(25,330,o),
(25,323,cs),
(25,309,ls),
(25,302,o),
(30,297,o),
(37,297,cs),
(177,297,l),
(177,12,ls),
(177,5,o),
(182,0,o),
(189,0,cs)
);
}
);
width = 600;
}
);
},
{
export = 0;
glyphname = U.half;
layers = (
{
layerId = "9ADF6715-3D0F-493D-8567-18A6FBCFC567";
shapes = (
{
closed = 1;
nodes = (
(298,-10,o),
(365,53,o),
(365,144,cs),
(365,307,ls),
(365,325,o),
(355,335,o),
(337,335,cs),
(307,335,ls),
(289,335,o),
(279,325,o),
(279,307,cs),
(279,144,ls),
(279,100,o),
(247,70,o),
(200,70,cs),
(153,70,o),
(121,100,o),
(121,144,cs),
(121,307,ls),
(121,325,o),
(111,335,o),
(93,335,cs),
(63,335,ls),
(45,335,o),
(35,325,o),
(35,307,cs),
(35,144,ls),
(35,53,o),
(102,-10,o),
(200,-10,cs)
);
}
);
width = 600;
},
{
layerId = "CCC0BD40-BA8C-414E-B576-CF0B94E6C996";
shapes = (
{
closed = 1;
nodes = (
(292,-10,o),
(355,49,o),
(355,144,cs),
(355,315,ls),
(355,328,o),
(348,335,o),
(335,335,cs),
(309,335,ls),
(296,335,o),
(289,328,o),
(289,315,cs),
(289,144,ls),
(289,85,o),
(253,50,o),
(200,50,cs),
(147,50,o),
(111,85,o),
(111,144,cs),
(111,315,ls),
(111,328,o),
(104,335,o),
(91,335,cs),
(65,335,ls),
(52,335,o),
(45,328,o),
(45,315,cs),
(45,144,ls),
(45,49,o),
(108,-10,o),
(200,-10,cs)
);
}
);
width = 600;
},
{
layerId = "EDF5EB54-295C-4C90-9A2F-67CD82979CFF";
shapes = (
{
closed = 1;
nodes = (
(286,-10,o),
(345,49,o),
(345,134,cs),
(345,323,ls),
(345,330,o),
(340,335,o),
(333,335,cs),
(311,335,ls),
(304,335,o),
(299,330,o),
(299,323,cs),
(299,134,ls),
(299,72,o),
(259,30,o),
(200,30,cs),
(141,30,o),
(101,72,o),
(101,134,cs),
(101,323,ls),
(101,330,o),
(96,335,o),
(89,335,cs),
(67,335,ls),
(60,335,o),
(55,330,o),
(55,323,cs),
(55,134,ls),
(55,49,o),
(114,-10,o),
(200,-10,cs)
);
}
);
width = 600;
}
);
},
{
export = 0;
glyphname = V.half;
layers = (
{
layerId = "9ADF6715-3D0F-493D-8567-18A6FBCFC567";
shapes = (
{
closed = 1;
nodes = (
(103,314,ls),
(97,328,o),
(87,335,o),
(71,335,cs),
(41,335,ls),
(20,335,o),
(12,321,o),
(20,302,cs),
(144,21,ls),
(150,6,o),
(160,0,o),
(176,0,cs),
(224,0,ls),
(240,0,o),
(250,6,o),
(256,21,cs),
(381,302,ls),
(389,321,o),
(380,335,o),
(359,335,cs),
(328,335,ls),
(312,335,o),
(302,327,o),
(296,313,cs),
(219,129,ls),
(209,104,o),
(204,83,o),
(201,65,c),
(198,83,o),
(194,103,o),
(183,129,cs)
);
}
);
width = 600;
},
{
layerId = "CCC0BD40-BA8C-414E-B576-CF0B94E6C996";
shapes = (
{
closed = 1;
nodes = (
(91,320,ls),
(87,330,o),
(78,335,o),
(67,335,cs),
(41,335,ls),
(26,335,o),
(19,326,o),
(25,312,cs),
(156,15,ls),
(160,5,o),
(169,0,o),
(180,0,cs),
(220,0,ls),
(231,0,o),
(240,5,o),
(244,15,cs),
(375,312,ls),
(381,326,o),
(374,335,o),
(359,335,cs),
(330,335,ls),
(319,335,o),
(311,331,o),
(307,320,cs),
(226,129,ls),
(216,104,o),
(204,73,o),
(201,55,c),
(198,73,o),
(184,104,o),
(173,129,cs)
);
}
);
width = 600;
},
{
layerId = "EDF5EB54-295C-4C90-9A2F-67CD82979CFF";
shapes = (
{
closed = 1;
nodes = (
(76,326,ls),
(73,333,o),
(68,335,o),
(62,335,cs),
(41,335,ls),
(32,335,o),
(28,330,o),
(32,321,cs),
(175,9,ls),
(178,2,o),
(183,0,o),
(189,0,cs),
(211,0,ls),
(217,0,o),
(222,2,o),
(225,9,cs),
(368,321,ls),
(372,330,o),
(368,335,o),
(359,335,cs),
(335,335,ls),
(329,335,o),
(324,333,o),
(321,326,cs),
(234,129,ls),
(214,83,o),
(205,59,o),
(200,38,c),
(195,59,o),
(185,84,o),
(165,129,cs)
);
}
);
width = 600;
}
);
},
{
export = 0;
glyphname = X.half;
layers = (
{
layerId = "9ADF6715-3D0F-493D-8567-18A6FBCFC567";
shapes = (
{
closed = 1;
nodes = (
(99,0,ls),
(113,0,o),
(124,6,o),
(133,17,cs),
(186,86,ls),
(192,94,o),
(195,109,o),
(196,122,c),
(197,111,o),
(205,95,o),
(213,85,cs),
(265,17,ls),
(274,5,o),
(284,0,o),
(299,0,cs),
(336,0,ls),
(359,0,o),
(368,16,o),
(353,34,cs),
(246,167,l),
(353,301,ls),
(368,319,o),
(359,335,o),
(336,335,cs),
(301,335,ls),
(286,335,o),
(276,330,o),
(267,318,cs),
(216,249,ls),
(209,239,o),
(206,225,o),
(205,214,c),
(203,225,o),
(195,240,o),
(188,249,cs),
(135,318,ls),
(126,329,o),
(115,335,o),
(101,335,cs),
(65,335,ls),
(41,335,o),
(34,319,o),
(49,301,cs),
(155,169,l),
(47,34,ls),
(32,16,o),
(41,0,o),
(64,0,cs)
);
}
);
width = 600;
},
{
layerId = "CCC0BD40-BA8C-414E-B576-CF0B94E6C996";
shapes = (
{
closed = 1;
nodes = (
(92,0,ls),
(102,0,o),
(110,4,o),
(116,12,cs),
(173,86,ls),
(190,108,o),
(190,123,o),
(197,141,c),
(205,123,o),
(209,107,o),
(226,85,cs),
(282,12,ls),
(288,4,o),
(296,0,o),
(306,0,cs),
(340,0,ls),
(356,0,o),
(362,10,o),
(352,24,cs),
(245,167,l),
(352,311,ls),
(362,325,o),
(356,335,o),
(340,335,cs),
(308,335,ls),
(298,335,o),
(290,332,o),
(284,323,cs),
(229,249,ls),
(213,227,o),
(209,214,o),
(203,195,c),
(193,213,o),
(192,227,o),
(175,249,cs),
(118,323,ls),
(112,331,o),
(104,335,o),
(94,335,cs),
(62,335,ls),
(46,335,o),
(39,325,o),
(49,311,cs),
(156,169,l),
(48,24,ls),
(38,10,o),
(44,0,o),
(60,0,cs)
);
}
);
width = 600;
},
{
layerId = "EDF5EB54-295C-4C90-9A2F-67CD82979CFF";
shapes = (
{
closed = 1;
nodes = (
(88,0,ls),
(94,0,o),
(98,1,o),
(102,7,cs),
(161,88,ls),
(177,110,o),
(188,126,o),
(198,143,c),
(209,126,o),
(219,111,o),
(238,85,cs),
(297,7,ls),
(301,2,o),
(305,0,o),
(311,0,cs),
(342,0,ls),
(352,0,o),
(355,7,o),
(349,15,cs),
(233,168,l),
(349,320,ls),
(355,328,o),
(352,335,o),
(342,335,cs),
(312,335,ls),
(306,335,o),
(302,333,o),
(298,328,cs),
(238,247,ls),
(222,225,o),
(208,207,o),
(202,195,c),
(197,205,o),
(180,227,o),
(163,249,cs),
(103,328,ls),
(99,333,o),
(95,335,o),
(89,335,cs),
(59,335,ls),
(49,335,o),
(46,328,o),
(52,320,cs),
(168,169,l),
(51,15,ls),
(45,7,o),
(48,0,o),
(58,0,cs)
);
}
);
width = 600;
}
);
},
{
glyphname = a;
layers = (
{
anchors = (
{
name = bottom;
pos = (305,0);
},
{
name = ogonek;
pos = (460,0);
},
{
name = top;
pos = (305,550);
}
);
layerId = "EDF5EB54-295C-4C90-9A2F-67CD82979CFF";
shapes = (
{
closed = 1;
nodes = (
(374,-10,o),
(449,52,o),
(449,142,c),
(431,112,l),
(440,112,l),
(440,12,ls),
(440,5,o),
(445,0,o),
(452,0,cs),
(478,0,ls),
(485,0,o),
(490,5,o),
(490,12,cs),
(490,375,ls),
(490,494,o),
(424,560,o),
(305,560,cs),
(196,560,o),
(123,506,o),
(112,423,cs),
(111,415,o),
(116,410,o),
(124,410,cs),
(150,410,ls),
(157,410,o),
(161,414,o),
(162,421,cs),
(172,478,o),
(225,515,o),
(304,515,cs),
(391,515,o),
(440,465,o),
(440,375,cs),
(440,320,l),
(253,320,ls),
(152,320,o),
(84,253,o),
(84,159,cs),
(84,60,o),
(153,-10,o),
(266,-10,cs)
);
},
{
closed = 1;
nodes = (
(190,35,o),
(134,87,o),
(134,163,cs),
(134,228,o),
(182,276,o),
(252,276,cs),
(440,276,l),
(440,177,ls),
(440,89,o),
(378,35,o),
(280,35,cs)
);
}
);
width = 600;
},
{
anchors = (
{
name = bottom;
pos = (305,0);
},
{
name = ogonek;
pos = (465,0);
},
{
name = top;
pos = (305,550);
}
);
layerId = "CCC0BD40-BA8C-414E-B576-CF0B94E6C996";
shapes = (
{
closed = 1;
nodes = (
(355,-10,o),
(418,40,o),
(418,120,c),
(404,100,l),
(419,100,l),
(419,20,ls),
(419,7,o),
(426,0,o),
(439,0,cs),
(488,0,ls),
(501,0,o),
(508,7,o),
(508,20,cs),
(508,378,ls),
(508,493,o),
(434,560,o),
(301,560,cs),
(188,560,o),
(113,506,o),
(96,431,cs),
(93,418,o),
(102,410,o),
(115,410,cs),
(165,410,ls),
(177,410,o),
(183,416,o),
(187,428,cs),
(199,462,o),
(241,482,o),
(301,482,cs),
(380,482,o),
(418,447,o),
(418,375,cs),
(418,332,l),
(248,332,ls),
(141,332,o),
(67,263,o),
(67,162,cs),
(67,59,o),
(138,-10,o),
(252,-10,cs)
);
},
{
closed = 1;
nodes = (
(202,66,o),
(159,104,o),
(159,165,cs),
(159,223,o),
(199,262,o),
(258,262,cs),
(418,262,l),
(418,185,ls),
(418,112,o),
(362,66,o),
(274,66,cs)
);
}
);
width = 600;
},
{
anchors = (
{
name = bottom;
pos = (305,0);
},
{
name = ogonek;
pos = (440,0);
},
{
name = top;
pos = (305,550);
}
);
layerId = "9ADF6715-3D0F-493D-8567-18A6FBCFC567";
shapes = (
{
closed = 1;
nodes = (
(329,-10,o),
(392,42,o),
(392,125,c),
(365,109,l),
(389,109,l),
(389,28,ls),
(389,10,o),
(399,0,o),
(417,0,cs),
(506,0,ls),
(524,0,o),
(534,10,o),
(534,28,cs),
(534,370,ls),
(534,490,o),
(448,560,o),
(303,560,cs),
(177,560,o),
(95,503,o),
(77,412,cs),
(74,394,o),
(85,383,o),
(104,383,cs),
(191,383,ls),
(207,383,o),
(215,391,o),
(222,407,cs),
(234,430,o),
(262,442,o),
(301,442,cs),
(354,442,o),
(384,417,o),
(384,376,cs),
(384,341,l),
(276,341,ls),
(133,341,o),
(51,273,o),
(51,162,cs),
(51,59,o),
(120,-10,o),
(229,-10,cs)
);
},
{
closed = 1;
nodes = (
(227,110,o),
(196,139,o),
(196,181,cs),
(196,222,o),
(226,251,o),
(279,251,cs),
(384,251,l),
(384,195,ls),
(384,144,o),
(345,110,o),
(282,110,cs)
);
}
);
width = 600;
}
);
unicode = 97;
},
{
glyphname = aogonek;
layers = (
{
layerId = "EDF5EB54-295C-4C90-9A2F-67CD82979CFF";
shapes = (
{
closed = 1;
nodes = (
(535,-184,ls),
(542,-184,o),
(547,-179,o),
(547,-172,cs),
(547,-154,ls),
(547,-147,o),
(542,-142,o),
(535,-142,cs),
(483,-142,ls),
(451,-142,o),
(432,-123,o),
(432,-92,cs),
(432,-67,o),
(451,-33,o),
(482,0,cs),
(488,7,o),
(488,13,o),
(479,17,cs),
(476,18,ls),
(470,20,o),
(465,19,o),
(459,15,cs),
(413,-21,o),
(385,-65,o),
(385,-104,cs),
(385,-154,o),
(419,-184,o),
(474,-184,cs)
);
},
{
ref = a;
}
);
width = 600;
},
{
layerId = "CCC0BD40-BA8C-414E-B576-CF0B94E6C996";
shapes = (
{
closed = 1;
nodes = (
(552,-183,ls),
(565,-183,o),
(572,-176,o),
(572,-163,cs),
(572,-143,ls),
(572,-130,o),
(565,-123,o),
(552,-123,cs),
(512,-123,ls),
(478,-123,o),
(457,-102,o),
(457,-73,cs),
(457,-51,o),
(469,-28,o),
(497,-1,cs),
(510,11,o),
(506,22,o),
(490,25,cs),
(471,28,ls),
(461,30,o),
(453,28,o),
(445,21,cs),
(391,-19,o),
(372,-55,o),
(372,-90,cs),
(372,-144,o),
(420,-183,o),
(494,-183,cs)
);
},
{
ref = a;
}
);
width = 600;
},
{
layerId = "9ADF6715-3D0F-493D-8567-18A6FBCFC567";
shapes = (
{
closed = 1;
nodes = (
(576,-196,ls),
(594,-196,o),
(604,-186,o),
(604,-168,cs),
(604,-119,ls),
(604,-101,o),
(594,-91,o),
(576,-91,cs),
(535,-91,ls),
(506,-91,o),
(489,-74,o),
(489,-54,cs),
(489,-42,o),
(497,-26,o),
(519,-2,cs),
(535,16,o),
(531,32,o),
(508,35,cs),
(495,37,ls),
(482,39,o),
(471,38,o),
(459,32,cs),
(401,1,o),
(365,-43,o),
(365,-86,cs),
(365,-151,o),
(415,-196,o),
(496,-196,cs)
);
},
{
ref = a;
}
);
width = 600;
}
);
unicode = 261;
},
{
glyphname = ae;
layers = (
{
anchors = (
{
name = top;
pos = (300,550);
}
);
layerId = "9ADF6715-3D0F-493D-8567-18A6FBCFC567";
shapes = (
{
closed = 1;
nodes = (
(244,-10,o),
(294,25,o),
(301,81,c),
(308,25,o),
(361,-10,o),
(424,-10,cs),
(505,-10,o),
(561,46,o),
(569,129,cs),
(570,143,o),
(563,150,o),
(550,150,cs),
(470,150,ls),
(458,150,o),
(452,143,o),
(449,131,cs),
(445,103,o),
(429,87,o),
(406,87,cs),
(378,87,o),
(361,111,o),
(361,150,cs),
(361,250,l),
(550,250,ls),
(563,250,o),
(570,257,o),
(570,270,cs),
(570,400,ls),
(570,495,o),
(508,560,o),
(421,560,cs),
(358,560,o),
(308,525,o),
(301,468,c),
(294,525,o),
(245,560,o),
(181,560,cs),
(100,560,o),
(43,504,o),
(35,421,cs),
(34,407,o),
(41,400,o),
(54,400,cs),
(134,400,ls),
(146,400,o),
(152,407,o),
(155,419,cs),
(159,447,o),
(175,463,o),
(198,463,cs),
(226,463,o),
(243,439,o),
(243,400,cs),
(243,330,l),
(198,330,ls),
(97,330,o),
(28,260,o),
(28,159,cs),
(28,59,o),
(89,-10,o),
(178,-10,cs)
);
},
{
closed = 1;
nodes = (
(165,87,o),
(147,120,o),
(147,168,cs),
(147,217,o),
(165,250,o),
(198,250,cs),
(243,250,l),
(243,150,ls),
(243,111,o),
(225,87,o),
(197,87,cs)
);
},
{
closed = 1;
nodes = (
(361,400,ls),
(361,439,o),
(379,463,o),
(406,463,cs),
(434,463,o),
(451,439,o),
(451,400,cs),
(451,350,ls),
(451,337,o),
(444,330,o),
(431,330,cs),
(361,330,l)
);
}
);
width = 600;
},
{
anchors = (
{
name = top;
pos = (300,550);
}
);
layerId = "CCC0BD40-BA8C-414E-B576-CF0B94E6C996";
shapes = (
{
closed = 1;
nodes = (
(242,-10,o),
(293,27,o),
(304,80,c),
(315,27,o),
(362,-10,o),
(420,-10,cs),
(499,-10,o),
(555,41,o),
(564,116,cs),
(565,130,o),
(557,137,o),
(544,137,cs),
(500,137,ls),
(488,137,o),
(482,130,o),
(479,118,cs),
(472,86,o),
(447,65,o),
(412,65,cs),
(369,65,o),
(343,96,o),
(343,150,cs),
(343,256,l),
(545,256,ls),
(558,256,o),
(565,263,o),
(565,276,cs),
(565,400,ls),
(565,495,o),
(506,560,o),
(420,560,cs),
(358,560,o),
(311,524,o),
(304,471,c),
(297,524,o),
(247,560,o),
(182,560,cs),
(109,560,o),
(56,510,o),
(48,435,cs),
(47,421,o),
(55,414,o),
(68,414,cs),
(107,414,ls),
(119,414,o),
(125,421,o),
(128,433,cs),
(135,464,o),
(160,485,o),
(195,485,cs),
(238,485,o),
(263,454,o),
(263,399,cs),
(263,324,l),
(182,324,ls),
(92,324,o),
(31,257,o),
(31,159,cs),
(31,59,o),
(91,-10,o),
(178,-10,cs)
);
},
{
closed = 1;
nodes = (
(144,65,o),
(115,102,o),
(115,160,cs),
(115,219,o),
(142,256,o),
(184,256,cs),
(263,256,l),
(263,150,ls),
(263,98,o),
(235,65,o),
(191,65,cs)
);
},
{
closed = 1;
nodes = (
(343,400,ls),
(343,452,o),
(370,485,o),
(412,485,cs),
(454,485,o),
(481,452,o),
(481,400,cs),
(481,344,ls),
(481,331,o),
(474,324,o),
(461,324,cs),
(343,324,l)
);
}
);
width = 600;
},
{
anchors = (
{
name = top;
pos = (300,550);
}
);
layerId = "EDF5EB54-295C-4C90-9A2F-67CD82979CFF";
shapes = (
{
closed = 1;
nodes = (
(240,-10,o),
(293,25,o),
(303,75,c),
(314,25,o),
(364,-10,o),
(426,-10,cs),
(502,-10,o),
(556,44,o),
(561,125,cs),
(561,133,o),
(556,137,o),
(549,137,cs),
(525,137,ls),
(518,137,o),
(513,133,o),
(513,125,cs),
(508,71,o),
(472,34,o),
(423,34,cs),
(366,34,o),
(327,77,o),
(327,140,cs),
(327,269,l),
(548,269,ls),
(555,269,o),
(560,274,o),
(560,281,cs),
(560,410,ls),
(560,499,o),
(504,560,o),
(422,560,cs),
(362,560,o),
(314,525,o),
(303,474,c),
(295,525,o),
(248,560,o),
(187,560,cs),
(115,560,o),
(63,507,o),
(58,426,cs),
(58,418,o),
(63,414,o),
(70,414,cs),
(94,414,ls),
(101,414,o),
(106,418,o),
(106,426,cs),
(111,480,o),
(145,517,o),
(194,517,cs),
(244,517,o),
(279,473,o),
(279,410,cs),
(279,312,l),
(170,312,ls),
(93,312,o),
(40,248,o),
(40,155,cs),
(40,57,o),
(95,-10,o),
(174,-10,cs)
);
},
{
closed = 1;
nodes = (
(127,31,o),
(88,81,o),
(88,155,cs),
(88,223,o),
(121,269,o),
(170,269,cs),
(279,269,l),
(279,140,ls),
(279,75,o),
(240,31,o),
(183,31,cs)
);
},
{
closed = 1;
nodes = (
(327,410,ls),
(327,473,o),
(364,517,o),
(419,517,cs),
(474,517,o),
(512,473,o),
(512,410,cs),
(512,324,ls),
(512,317,o),
(507,312,o),
(500,312,cs),
(327,312,l)
);
}
);
width = 600;
}
);
unicode = 230;
},
{
glyphname = b;
layers = (
{
anchors = (
{
name = bottom;
pos = (300,0);
},
{
name = top;
pos = (300,730);
}
);
layerId = "CCC0BD40-BA8C-414E-B576-CF0B94E6C996";
shapes = (
{
closed = 1;
nodes = (
(442,-10,o),
(513,68,o),
(513,194,cs),
(513,355,ls),
(513,482,o),
(443,560,o),
(332,560,cs),
(242,560,o),
(180,507,o),
(180,424,c),
(200,445,l),
(180,445,l),
(182,570,l),
(182,730,l),
(92,730,l),
(92,0,l),
(182,0,l),
(182,105,l),
(200,105,l),
(182,126,l),
(182,42,o),
(241,-10,o),
(332,-10,cs)
);
},
{
closed = 1;
nodes = (
(228,68,o),
(182,117,o),
(182,200,cs),
(182,350,ls),
(182,433,o),
(228,482,o),
(302,482,cs),
(378,482,o),
(423,445,o),
(423,355,cs),
(423,195,ls),
(423,105,o),
(378,68,o),
(302,68,cs)
);
}
);
width = 600;
},
{
anchors = (
{
name = bottom;
pos = (300,0);
},
{
name = top;
pos = (300,730);
}
);
layerId = "EDF5EB54-295C-4C90-9A2F-67CD82979CFF";
shapes = (
{
closed = 1;
nodes = (
(423,-10,o),
(495,69,o),
(495,189,cs),
(495,360,ls),
(495,480,o),
(423,560,o),
(313,560,cs),
(217,560,o),
(150,501,o),
(150,410,c),
(178,455,l),
(160,455,l),
(160,580,l),
(160,730,l),
(110,730,l),
(110,0,l),
(160,0,l),
(160,95,l),
(175,95,l),
(150,140,l),
(150,49,o),
(217,-10,o),
(313,-10,cs)
);
},
{
closed = 1;
nodes = (
(213,33,o),
(160,91,o),
(160,189,cs),
(160,360,ls),
(160,458,o),
(212,517,o),
(303,517,cs),
(392,517,o),
(445,458,o),
(445,360,cs),
(445,189,ls),
(445,91,o),
(392,33,o),
(303,33,cs)
);
}
);
width = 600;
},
{
anchors = (
{
name = bottom;
pos = (300,0);
},
{
name = top;
pos = (300,730);
}
);
layerId = "9ADF6715-3D0F-493D-8567-18A6FBCFC567";
shapes = (
{
closed = 1;
nodes = (
(468,-10,o),
(540,74,o),
(540,205,cs),
(540,345,ls),
(540,476,o),
(468,560,o),
(362,560,cs),
(260,560,o),
(197,485,o),
(197,360,c),
(246,435,l),
(211,435,l),
(216,580,l),
(216,730,l),
(66,730,l),
(66,0,l),
(211,0,l),
(211,115,l),
(246,115,l),
(197,190,l),
(197,66,o),
(260,-10,o),
(362,-10,cs)
);
},
{
closed = 1;
nodes = (
(247,120,o),
(216,154,o),
(216,215,cs),
(216,335,ls),
(216,396,o),
(247,430,o),
(304,430,cs),
(359,430,o),
(390,398,o),
(390,340,cs),
(390,210,ls),
(390,152,o),
(359,120,o),
(304,120,cs)
);
}
);
width = 600;
}
);
unicode = 98;
},
{
glyphname = c;
layers = (
{
anchors = (
{
name = bottom;
pos = (309,0);
},
{
name = top;
pos = (309,550);
}
);
layerId = "9ADF6715-3D0F-493D-8567-18A6FBCFC567";
shapes = (
{
closed = 1;
nodes = (
(447,-10,o),
(538,60,o),
(551,177,cs),
(552,188,o),
(544,195,o),
(531,195,cs),
(424,195,ls),
(412,195,o),
(406,189,o),
(403,177,cs),
(392,140,o),
(357,120,o),
(309,120,cs),
(249,120,o),
(216,152,o),
(216,210,cs),
(216,340,ls),
(216,398,o),
(249,430,o),
(309,430,cs),
(356,430,o),
(391,409,o),
(403,373,cs),
(406,361,o),
(412,355,o),
(424,355,cs),
(531,355,ls),
(544,355,o),
(552,363,o),
(550,376,cs),
(536,490,o),
(446,560,o),
(309,560,cs),
(162,560,o),
(66,473,o),
(66,340,cs),
(66,210,ls),
(66,77,o),
(162,-10,o),
(309,-10,cs)
);
}
);
width = 600;
},
{
anchors = (
{
name = bottom;
pos = (308,0);
},
{
name = top;
pos = (308,550);
}
);
layerId = "CCC0BD40-BA8C-414E-B576-CF0B94E6C996";
shapes = (
{
closed = 1;
nodes = (
(428,-10,o),
(509,55,o),
(522,161,cs),
(523,173,o),
(515,180,o),
(502,180,cs),
(452,180,ls),
(440,180,o),
(433,174,o),
(431,161,cs),
(420,103,o),
(375,70,o),
(308,70,cs),
(229,70,o),
(178,117,o),
(178,200,cs),
(178,351,ls),
(178,433,o),
(229,480,o),
(308,480,cs),
(375,480,o),
(420,447,o),
(431,389,cs),
(433,376,o),
(440,370,o),
(452,370,cs),
(502,370,ls),
(515,370,o),
(523,378,o),
(521,391,cs),
(509,496,o),
(427,560,o),
(308,560,cs),
(175,560,o),
(88,481,o),
(88,350,cs),
(88,200,ls),
(88,69,o),
(175,-10,o),
(308,-10,cs)
);
}
);
visible = 1;
width = 600;
},
{
anchors = (
{
name = bottom;
pos = (309,0);
},
{
name = top;
pos = (309,550);
}
);
layerId = "EDF5EB54-295C-4C90-9A2F-67CD82979CFF";
shapes = (
{
closed = 1;
nodes = (
(426,-10,o),
(502,59,o),
(507,168,cs),
(507,176,o),
(502,180,o),
(495,180,cs),
(469,180,ls),
(462,180,o),
(457,176,o),
(457,168,cs),
(452,85,o),
(397,36,o),
(309,36,cs),
(218,36,o),
(162,94,o),
(162,190,cs),
(162,360,ls),
(162,457,o),
(218,514,o),
(309,514,cs),
(397,514,o),
(452,465,o),
(457,382,cs),
(457,374,o),
(462,370,o),
(469,370,cs),
(495,370,ls),
(502,370,o),
(507,374,o),
(507,382,cs),
(501,491,o),
(426,560,o),
(309,560,cs),
(189,560,o),
(112,481,o),
(112,360,cs),
(112,190,ls),
(112,68,o),
(188,-10,o),
(309,-10,cs)
);
}
);
width = 600;
}
);
unicode = 99;
},
{
glyphname = ccedilla;
layers = (
{
anchors = (
{
name = _bottom;
pos = (302,0);
}
);
layerId = "EDF5EB54-295C-4C90-9A2F-67CD82979CFF";
shapes = (
{
closed = 1;
nodes = (
(292,-195,ls),
(352,-195,o),
(392,-161,o),
(392,-118,cs),
(392,-61,o),
(329,-37,o),
(282,-34,c),
(300,12,ls),
(303,21,o),
(299,26,o),
(290,26,cs),
(273,26,ls),
(266,26,o),
(261,23,o),
(259,17,cs),
(233,-50,ls),
(230,-59,o),
(234,-64,o),
(243,-64,cs),
(306,-67,o),
(346,-88,o),
(346,-118,cs),
(346,-140,o),
(324,-160,o),
(292,-160,cs),
(224,-160,ls),
(217,-160,o),
(212,-165,o),
(212,-172,cs),
(212,-183,ls),
(212,-190,o),
(217,-195,o),
(224,-195,cs)
);
},
{
ref = c;
}
);
width = 600;
},
{
anchors = (
{
name = _bottom;
pos = (304,0);
}
);
layerId = "CCC0BD40-BA8C-414E-B576-CF0B94E6C996";
shapes = (
{
closed = 1;
nodes = (
(294,-203,ls),
(366,-203,o),
(414,-166,o),
(414,-120,cs),
(414,-68,o),
(346,-41,o),
(294,-35,c),
(307,3,ls),
(312,17,o),
(305,26,o),
(291,26,cs),
(275,26,ls),
(264,26,o),
(256,20,o),
(252,10,cs),
(231,-47,ls),
(226,-60,o),
(233,-69,o),
(248,-70,cs),
(299,-74,o),
(328,-92,o),
(328,-112,cs),
(328,-130,o),
(308,-148,o),
(279,-148,cs),
(229,-148,ls),
(216,-148,o),
(209,-155,o),
(209,-168,cs),
(209,-183,ls),
(209,-196,o),
(216,-203,o),
(229,-203,cs)
);
},
{
ref = c;
}
);
width = 600;
},
{
anchors = (
{
name = _bottom;
pos = (303,0);
}
);
layerId = "9ADF6715-3D0F-493D-8567-18A6FBCFC567";
shapes = (
{
closed = 1;
nodes = (
(303,-225,ls),
(387,-225,o),
(443,-182,o),
(443,-133,cs),
(443,-72,o),
(362,-43,o),
(301,-39,c),
(312,-7,ls),
(317,7,o),
(310,16,o),
(296,16,cs),
(264,16,ls),
(253,16,o),
(245,12,o),
(241,1,cs),
(221,-46,ls),
(216,-59,o),
(222,-69,o),
(237,-70,cs),
(295,-74,o),
(328,-92,o),
(328,-119,cs),
(328,-135,o),
(306,-155,o),
(273,-155,cs),
(213,-155,ls),
(200,-155,o),
(193,-162,o),
(193,-175,cs),
(193,-205,ls),
(193,-218,o),
(200,-225,o),
(213,-225,cs)
);
},
{
ref = c;
}
);
width = 600;
}
);
unicode = 231;
},
{
glyphname = d;
layers = (
{
anchors = (
{
name = bottom;
pos = (300,0);
},
{
name = center;
pos = (300,275);
},
{
name = top;
pos = (300,730);
},
{
name = topright;
pos = (580,550);
}
);
layerId = "EDF5EB54-295C-4C90-9A2F-67CD82979CFF";
shapes = (
{
closed = 1;
nodes = (
(383,-10,o),
(450,49,o),
(450,140,c),
(422,95,l),
(440,95,l),
(440,0,l),
(490,0,l),
(490,730,l),
(440,730,l),
(440,580,l),
(440,455,l),
(422,455,l),
(450,410,l),
(450,501,o),
(383,560,o),
(287,560,cs),
(177,560,o),
(105,480,o),
(105,360,cs),
(105,189,ls),
(105,69,o),
(177,-10,o),
(287,-10,cs)
);
},
{
closed = 1;
nodes = (
(208,33,o),
(155,91,o),
(155,189,cs),
(155,360,ls),
(155,458,o),
(208,517,o),
(297,517,cs),
(388,517,o),
(440,458,o),
(440,360,cs),
(440,189,ls),
(440,91,o),
(387,33,o),
(297,33,cs)
);
}
);
width = 600;
},
{
anchors = (
{
name = bottom;
pos = (300,0);
},
{
name = center;
pos = (300,275);
},
{
name = top;
pos = (300,730);
},
{
name = topright;
pos = (580,550);
}
);
layerId = "9ADF6715-3D0F-493D-8567-18A6FBCFC567";
shapes = (
{
closed = 1;
nodes = (
(340,-10,o),
(403,66,o),
(403,190,c),
(354,115,l),
(389,115,l),
(389,0,l),
(534,0,l),
(534,730,l),
(384,730,l),
(384,580,l),
(389,435,l),
(354,435,l),
(403,360,l),
(403,485,o),
(340,560,o),
(238,560,cs),
(132,560,o),
(60,476,o),
(60,345,cs),
(60,205,ls),
(60,74,o),
(132,-10,o),
(238,-10,cs)
);
},
{
closed = 1;
nodes = (
(241,120,o),
(210,152,o),
(210,210,cs),
(210,340,ls),
(210,398,o),
(241,430,o),
(296,430,cs),
(353,430,o),
(384,396,o),
(384,335,cs),
(384,215,ls),
(384,154,o),
(353,120,o),
(296,120,cs)
);
}
);
width = 600;
},
{
anchors = (
{
name = bottom;
pos = (300,0);
},
{
name = center;
pos = (300,275);
},
{
name = top;
pos = (300,730);
},
{
name = topright;
pos = (580,550);
}
);
layerId = "CCC0BD40-BA8C-414E-B576-CF0B94E6C996";
shapes = (
{
closed = 1;
nodes = (
(359,-10,o),
(418,42,o),
(418,126,c),
(400,105,l),
(418,105,l),
(418,0,l),
(508,0,l),
(508,730,l),
(418,730,l),
(418,570,l),
(420,445,l),
(400,445,l),
(420,424,l),
(420,507,o),
(358,560,o),
(268,560,cs),
(157,560,o),
(87,482,o),
(87,355,cs),
(87,194,ls),
(87,68,o),
(158,-10,o),
(268,-10,cs)
);
},
{
closed = 1;
nodes = (
(222,68,o),
(177,105,o),
(177,195,cs),
(177,355,ls),
(177,445,o),
(222,482,o),
(298,482,cs),
(372,482,o),
(418,433,o),
(418,350,cs),
(418,200,ls),
(418,117,o),
(372,68,o),
(298,68,cs)
);
}
);
width = 600;
}
);
unicode = 100;
},
{
glyphname = eth;
layers = (
{
layerId = "9ADF6715-3D0F-493D-8567-18A6FBCFC567";
shapes = (
{
closed = 1;
nodes = (
(459,0,o),
(560,96,o),
(560,251,cs),
(560,337,o),
(529,430,o),
(446,537,cs),
(393,606,l),
(477,636,ls),
(488,640,o),
(493,648,o),
(493,659,cs),
(493,723,ls),
(493,737,o),
(484,744,o),
(470,739,cs),
(329,688,l),
(305,718,ls),
(299,726,o),
(291,730,o),
(281,730,cs),
(160,730,ls),
(144,730,o),
(138,719,o),
(148,706,cs),
(198,640,l),
(122,613,ls),
(111,609,o),
(106,601,o),
(106,590,cs),
(106,526,ls),
(106,512,o),
(115,505,o),
(129,510,cs),
(261,558,l),
(314,489,ls),
(372,414,o),
(392,380,o),
(391,375,c),
(385,375,l),
(365,410,o),
(312,456,o),
(243,456,cs),
(122,456,o),
(40,368,o),
(40,236,cs),
(40,94,o),
(143,0,o),
(300,0,cs)
);
},
{
closed = 1;
nodes = (
(233,125,o),
(190,168,o),
(190,235,cs),
(190,302,o),
(233,345,o),
(300,345,cs),
(366,345,o),
(410,301,o),
(410,235,cs),
(410,168,o),
(367,125,o),
(300,125,cs)
);
}
);
width = 600;
},
{
layerId = "CCC0BD40-BA8C-414E-B576-CF0B94E6C996";
shapes = (
{
closed = 1;
nodes = (
(438,-10,o),
(530,83,o),
(530,223,cs),
(530,308,o),
(492,408,o),
(433,493,cs),
(355,606,l),
(446,648,ls),
(456,653,o),
(461,660,o),
(461,671,cs),
(461,709,ls),
(461,724,o),
(451,731,o),
(437,724,cs),
(313,666,l),
(278,717,ls),
(272,726,o),
(264,730,o),
(254,730,cs),
(195,730,ls),
(179,730,o),
(173,719,o),
(183,706,cs),
(237,631,l),
(132,582,ls),
(122,577,o),
(117,570,o),
(117,559,cs),
(117,521,ls),
(117,506,o),
(127,499,o),
(141,506,cs),
(280,571,l),
(345,480,ls),
(382,430,o),
(403,393,o),
(409,380,c),
(395,380,l),
(380,404,o),
(339,436,o),
(281,436,cs),
(154,436,o),
(70,348,o),
(70,215,cs),
(70,80,o),
(162,-10,o),
(299,-10,cs)
);
},
{
closed = 1;
nodes = (
(216,70,o),
(160,128,o),
(160,215,cs),
(160,302,o),
(216,360,o),
(299,360,cs),
(384,360,o),
(440,302,o),
(440,215,cs),
(440,128,o),
(384,70,o),
(299,70,cs)
);
}
);
width = 600;
},
{
layerId = "EDF5EB54-295C-4C90-9A2F-67CD82979CFF";
shapes = (
{
closed = 1;
nodes = (
(434,-10,o),
(520,78,o),
(520,213,cs),
(520,302,o),
(483,402,o),
(401,517,cs),
(332,615,l),
(452,671,ls),
(458,674,o),
(461,679,o),
(461,685,cs),
(461,699,ls),
(461,708,o),
(455,712,o),
(447,708,cs),
(310,645,l),
(255,722,ls),
(252,727,o),
(247,730,o),
(241,730,cs),
(202,730,ls),
(192,730,o),
(189,723,o),
(195,715,cs),
(262,623,l),
(126,559,ls),
(120,556,o),
(117,551,o),
(117,545,cs),
(117,531,ls),
(117,522,o),
(123,518,o),
(131,522,cs),
(284,593,l),
(358,491,ls),
(411,419,o),
(439,366,o),
(445,347,c),
(442,347,l),
(420,385,o),
(363,436,o),
(290,436,cs),
(161,436,o),
(80,350,o),
(80,215,cs),
(80,79,o),
(167,-10,o),
(300,-10,cs)
);
},
{
closed = 1;
nodes = (
(199,40,o),
(135,108,o),
(135,215,cs),
(135,322,o),
(199,390,o),
(300,390,cs),
(395,390,o),
(465,318,o),
(465,216,cs),
(465,109,o),
(400,40,o),
(300,40,cs)
);
}
);
width = 600;
}
);
unicode = 240;
},
{
glyphname = dcaron;
layers = (
{
layerId = "9ADF6715-3D0F-493D-8567-18A6FBCFC567";
shapes = (
{
closed = 1;
nodes = (
(280,-10,o),
(329,48,o),
(329,140,c),
(294,105,l),
(329,105,l),
(329,0,l),
(464,0,l),
(464,730,l),
(324,730,l),
(324,580,l),
(329,445,l),
(294,445,l),
(329,410,l),
(329,502,o),
(280,560,o),
(203,560,cs),
(103,560,o),
(40,479,o),
(40,351,cs),
(40,200,ls),
(40,71,o),
(103,-10,o),
(203,-10,cs)
);
},
{
closed = 1;
nodes = (
(209,110,o),
(180,145,o),
(180,205,cs),
(180,346,ls),
(180,405,o),
(209,440,o),
(257,440,cs),
(299,440,o),
(324,405,o),
(324,346,cs),
(324,205,ls),
(324,145,o),
(299,110,o),
(257,110,cs)
);
},
{
pos = (665,0);
ref = caroncomb.alt;
}
);
width = 600;
},
{
layerId = "CCC0BD40-BA8C-414E-B576-CF0B94E6C996";
shapes = (
{
closed = 1;
nodes = (
(311,-10,o),
(363,43,o),
(363,126,c),
(345,105,l),
(363,105,l),
(363,0,l),
(453,0,l),
(453,730,l),
(363,730,l),
(363,570,l),
(365,445,l),
(345,445,l),
(363,424,l),
(363,507,o),
(311,560,o),
(228,560,cs),
(127,560,o),
(63,483,o),
(63,360,cs),
(63,189,ls),
(63,67,o),
(127,-10,o),
(228,-10,cs)
);
},
{
closed = 1;
nodes = (
(192,68,o),
(153,115,o),
(153,195,cs),
(153,355,ls),
(153,435,o),
(192,482,o),
(258,482,cs),
(324,482,o),
(363,435,o),
(363,355,cs),
(363,195,ls),
(363,115,o),
(324,68,o),
(258,68,cs)
);
},
{
pos = (665,0);
ref = caroncomb.alt;
}
);
width = 600;
},
{
layerId = "EDF5EB54-295C-4C90-9A2F-67CD82979CFF";
shapes = (
{
closed = 1;
nodes = (
(356,-10,o),
(415,48,o),
(415,140,c),
(377,75,l),
(405,75,l),
(405,0,l),
(455,0,l),
(455,730,l),
(405,730,l),
(405,580,l),
(405,475,l),
(387,475,l),
(415,410,l),
(415,502,o),
(356,560,o),
(262,560,cs),
(157,560,o),
(90,483,o),
(90,360,cs),
(90,189,ls),
(90,67,o),
(157,-10,o),
(262,-10,cs)
);
},
{
closed = 1;
nodes = (
(191,33,o),
(140,93,o),
(140,189,cs),
(140,360,ls),
(140,456,o),
(191,517,o),
(272,517,cs),
(354,517,o),
(405,456,o),
(405,360,cs),
(405,189,ls),
(405,93,o),
(354,33,o),
(272,33,cs)
);
},
{
pos = (670,0);
ref = caroncomb.alt;
}
);
width = 600;
}
);
unicode = 271;
},
{
glyphname = dcroat;
layers = (
{
layerId = "9ADF6715-3D0F-493D-8567-18A6FBCFC567";
shapes = (
{
closed = 1;
nodes = (
(334,-10,o),
(389,45,o),
(389,140,c),
(354,105,l),
(389,105,l),
(389,0,l),
(534,0,l),
(534,730,l),
(384,730,l),
(384,520,l),
(389,385,l),
(354,385,l),
(389,350,l),
(389,445,o),
(334,500,o),
(243,500,cs),
(132,500,o),
(60,416,o),
(60,285,cs),
(60,205,ls),
(60,73,o),
(132,-10,o),
(243,-10,cs)
);
},
{
closed = 1;
nodes = (
(241,120,o),
(210,152,o),
(210,210,cs),
(210,280,ls),
(210,337,o),
(241,370,o),
(297,370,cs),
(352,370,o),
(384,337,o),
(384,280,cs),
(384,210,ls),
(384,152,o),
(352,120,o),
(297,120,cs)
);
},
{
closed = 1;
nodes = (
(600,555,l),
(600,645,l),
(240,645,l),
(240,555,l)
);
}
);
width = 600;
},
{
layerId = "CCC0BD40-BA8C-414E-B576-CF0B94E6C996";
shapes = (
{
closed = 1;
nodes = (
(359,-10,o),
(416,42,o),
(416,126,c),
(398,105,l),
(416,105,l),
(416,0,l),
(506,0,l),
(506,730,l),
(416,730,l),
(416,510,l),
(418,385,l),
(398,385,l),
(416,364,l),
(416,447,o),
(358,500,o),
(268,500,cs),
(157,500,o),
(90,422,o),
(90,295,cs),
(90,194,ls),
(90,68,o),
(158,-10,o),
(268,-10,cs)
);
},
{
closed = 1;
nodes = (
(222,68,o),
(180,115,o),
(180,200,cs),
(180,290,ls),
(180,375,o),
(222,422,o),
(298,422,cs),
(372,422,o),
(416,373,o),
(416,290,cs),
(416,200,ls),
(416,117,o),
(372,68,o),
(298,68,cs)
);
},
{
closed = 1;
nodes = (
(600,570,l),
(600,645,l),
(250,645,l),
(250,570,l)
);
}
);
width = 600;
},
{
layerId = "EDF5EB54-295C-4C90-9A2F-67CD82979CFF";
shapes = (
{
closed = 1;
nodes = (
(383,-10,o),
(450,49,o),
(450,140,c),
(412,75,l),
(440,75,l),
(440,0,l),
(490,0,l),
(490,730,l),
(440,730,l),
(440,520,l),
(440,415,l),
(422,415,l),
(450,350,l),
(450,441,o),
(383,500,o),
(287,500,cs),
(177,500,o),
(105,420,o),
(105,300,cs),
(105,189,ls),
(105,69,o),
(177,-10,o),
(287,-10,cs)
);
},
{
closed = 1;
nodes = (
(208,33,o),
(155,91,o),
(155,189,cs),
(155,300,ls),
(155,398,o),
(208,457,o),
(297,457,cs),
(388,457,o),
(440,398,o),
(440,300,cs),
(440,189,ls),
(440,91,o),
(387,33,o),
(297,33,cs)
);
},
{
closed = 1;
nodes = (
(590,586,l),
(590,631,l),
(260,631,l),
(260,586,l)
);
}
);
width = 600;
}
);
unicode = 273;
},
{
glyphname = e;
layers = (
{
anchors = (
{
name = bottom;
pos = (300,0);
},
{
name = ogonek;
pos = (345,0);
},
{
name = top;
pos = (300,550);
}
);
layerId = "9ADF6715-3D0F-493D-8567-18A6FBCFC567";
shapes = (
{
closed = 1;
nodes = (
(412,-10,o),
(499,46,o),
(527,131,cs),
(531,143,o),
(523,150,o),
(509,150,cs),
(401,150,ls),
(390,150,o),
(385,145,o),
(378,136,cs),
(364,118,o),
(335,110,o),
(301,110,cs),
(236,110,o),
(203,141,o),
(203,210,cs),
(203,238,l),
(520,238,ls),
(533,238,o),
(540,245,o),
(540,258,cs),
(540,340,ls),
(540,472,o),
(447,560,o),
(301,560,cs),
(154,560,o),
(60,472,o),
(60,340,cs),
(60,210,ls),
(60,78,o),
(154,-10,o),
(301,-10,cs)
);
},
{
closed = 1;
nodes = (
(407,329,l),
(203,327,l),
(203,340,ls),
(203,408,o),
(235,449,o),
(301,449,cs),
(366,449,o),
(397,410,o),
(397,342,cs),
(397,317,l)
);
}
);
width = 600;
},
{
anchors = (
{
name = bottom;
pos = (300,0);
},
{
name = ogonek;
pos = (355,0);
},
{
name = top;
pos = (300,550);
}
);
layerId = "EDF5EB54-295C-4C90-9A2F-67CD82979CFF";
shapes = (
{
closed = 1;
nodes = (
(399,-10,o),
(469,41,o),
(489,123,cs),
(490,131,o),
(486,135,o),
(478,135,cs),
(452,135,ls),
(445,135,o),
(441,131,o),
(439,124,cs),
(424,68,o),
(371,34,o),
(301,34,cs),
(208,34,o),
(155,94,o),
(155,190,cs),
(155,265,l),
(483,265,ls),
(490,265,o),
(495,270,o),
(495,277,cs),
(495,360,ls),
(495,481,o),
(422,560,o),
(301,560,cs),
(179,560,o),
(105,481,o),
(105,360,cs),
(105,190,ls),
(105,68,o),
(178,-10,o),
(301,-10,cs)
);
},
{
closed = 1;
nodes = (
(456,308,l),
(155,308,l),
(155,360,ls),
(155,457,o),
(207,516,o),
(301,516,cs),
(393,516,o),
(445,456,o),
(445,360,cs),
(445,299,l)
);
}
);
width = 600;
},
{
anchors = (
{
name = bottom;
pos = (300,0);
},
{
name = ogonek;
pos = (350,0);
},
{
name = top;
pos = (300,550);
}
);
layerId = "CCC0BD40-BA8C-414E-B576-CF0B94E6C996";
shapes = (
{
closed = 1;
nodes = (
(408,-10,o),
(489,41,o),
(509,122,cs),
(511,133,o),
(504,140,o),
(490,140,cs),
(439,140,ls),
(428,140,o),
(422,134,o),
(417,124,cs),
(401,89,o),
(358,68,o),
(300,68,cs),
(222,68,o),
(172,119,o),
(172,200,cs),
(172,252,l),
(496,252,ls),
(509,252,o),
(516,259,o),
(516,272,cs),
(516,350,ls),
(516,477,o),
(430,560,o),
(300,560,cs),
(170,560,o),
(84,477,o),
(84,340,cs),
(84,210,ls),
(84,73,o),
(170,-10,o),
(300,-10,cs)
);
},
{
closed = 1;
nodes = (
(435,322,l),
(172,322,l),
(172,350,ls),
(172,437,o),
(219,486,o),
(300,486,cs),
(381,486,o),
(428,437,o),
(428,350,cs),
(428,313,l)
);
}
);
width = 600;
}
);
unicode = 101;
},
{
glyphname = eogonek;
layers = (
{
anchors = (
{
name = top;
pos = (300,550);
}
);
layerId = "9ADF6715-3D0F-493D-8567-18A6FBCFC567";
shapes = (
{
closed = 1;
nodes = (
(468,-225,l),
(468,-120,l),
(399,-120,ls),
(370,-120,o),
(353,-103,o),
(353,-83,cs),
(353,-66,o),
(368,-42,o),
(394,-18,cs),
(445,29,l),
(489,58,o),
(522,99,o),
(535,150,c),
(388,150,l),
(379,122,o),
(350,105,o),
(303,105,cs),
(236,105,o),
(203,141,o),
(203,210,cs),
(203,240,l),
(540,240,l),
(540,340,ls),
(540,472,o),
(447,560,o),
(301,560,cs),
(154,560,o),
(60,472,o),
(60,340,cs),
(60,210,ls),
(60,78,o),
(154,-10,o),
(301,-10,cs),
(336,-10,o),
(359,9,o),
(359,29,c),
(272,-19,o),
(229,-68,o),
(229,-115,cs),
(229,-180,o),
(279,-225,o),
(360,-225,cs)
);
},
{
closed = 1;
nodes = (
(407,327,l),
(203,325,l),
(203,340,ls),
(203,408,o),
(235,447,o),
(301,447,cs),
(366,447,o),
(397,410,o),
(397,342,cs),
(397,317,l)
);
}
);
width = 600;
},
{
anchors = (
{
name = top;
pos = (300,550);
}
);
layerId = "CCC0BD40-BA8C-414E-B576-CF0B94E6C996";
shapes = (
{
closed = 1;
nodes = (
(451,-203,l),
(451,-143,l),
(391,-143,ls),
(357,-143,o),
(336,-122,o),
(336,-93,cs),
(336,-65,o),
(355,-36,o),
(400,1,cs),
(416,14,l),
(468,39,o),
(503,83,o),
(510,140,c),
(420,140,l),
(410,91,o),
(369,66,o),
(300,66,cs),
(218,66,o),
(176,113,o),
(176,200,cs),
(176,253,l),
(512,253,l),
(512,350,ls),
(512,477,o),
(430,560,o),
(300,560,cs),
(170,560,o),
(88,477,o),
(88,350,cs),
(88,200,ls),
(88,73,o),
(170,-10,o),
(300,-10,cs),
(303,-10,o),
(307,-10,o),
(310,-10,c),
(271,-45,o),
(251,-80,o),
(251,-110,cs),
(251,-164,o),
(299,-203,o),
(373,-203,cs)
);
},
{
closed = 1;
nodes = (
(464,321,l),
(176,321,l),
(176,350,ls),
(176,437,o),
(218,485,o),
(300,485,cs),
(382,485,o),
(424,437,o),
(424,350,cs),
(424,281,l)
);
}
);
width = 600;
},
{
anchors = (
{
name = top;
pos = (300,550);
}
);
layerId = "EDF5EB54-295C-4C90-9A2F-67CD82979CFF";
shapes = (
{
closed = 1;
nodes = (
(449,-195,l),
(449,-153,l),
(385,-153,ls),
(353,-153,o),
(334,-134,o),
(334,-103,cs),
(334,-75,o),
(357,-36,o),
(395,0,cs),
(422,24,l),
(459,50,o),
(483,88,o),
(494,135,c),
(444,135,l),
(425,72,o),
(375,34,o),
(301,34,cs),
(208,34,o),
(155,94,o),
(155,190,cs),
(155,265,l),
(495,265,l),
(495,360,ls),
(495,481,o),
(422,560,o),
(301,560,cs),
(179,560,o),
(105,481,o),
(105,360,cs),
(105,190,ls),
(105,68,o),
(178,-10,o),
(301,-10,cs),
(318,-10,o),
(335,-8,o),
(350,-5,c),
(305,-48,o),
(287,-84,o),
(287,-115,cs),
(287,-165,o),
(321,-195,o),
(376,-195,cs)
);
},
{
closed = 1;
nodes = (
(467,308,l),
(155,308,l),
(155,360,ls),
(155,457,o),
(207,516,o),
(301,516,cs),
(393,516,o),
(445,456,o),
(445,360,cs),
(445,286,l)
);
}
);
width = 600;
}
);
unicode = 281;
},
{
glyphname = schwa;
layers = (
{
layerId = "9ADF6715-3D0F-493D-8567-18A6FBCFC567";
shapes = (
{
closed = 1;
nodes = (
(446,-10,o),
(540,78,o),
(540,210,cs),
(540,340,ls),
(540,472,o),
(446,560,o),
(299,560,cs),
(190,560,o),
(104,506,o),
(72,423,cs),
(67,409,o),
(75,400,o),
(89,400,cs),
(196,400,ls),
(207,400,o),
(213,405,o),
(219,415,cs),
(232,434,o),
(259,445,o),
(297,445,cs),
(364,445,o),
(397,409,o),
(397,340,cs),
(397,310,l),
(80,310,ls),
(67,310,o),
(60,303,o),
(60,290,cs),
(60,210,ls),
(60,78,o),
(153,-10,o),
(299,-10,cs)
);
},
{
closed = 1;
nodes = (
(234,105,o),
(203,142,o),
(203,210,cs),
(203,235,l),
(193,225,l),
(397,225,l),
(397,210,ls),
(397,142,o),
(365,105,o),
(299,105,cs)
);
}
);
width = 600;
},
{
layerId = "CCC0BD40-BA8C-414E-B576-CF0B94E6C996";
shapes = (
{
closed = 1;
nodes = (
(430,-10,o),
(510,73,o),
(510,200,cs),
(510,350,ls),
(510,477,o),
(430,560,o),
(300,560,cs),
(193,560,o),
(117,511,o),
(96,432,cs),
(93,418,o),
(100,410,o),
(114,410,cs),
(164,410,ls),
(175,410,o),
(183,416,o),
(187,427,cs),
(202,465,o),
(239,484,o),
(300,484,cs),
(382,484,o),
(422,437,o),
(422,350,cs),
(422,297,l),
(110,297,ls),
(97,297,o),
(90,290,o),
(90,277,cs),
(90,200,ls),
(90,73,o),
(170,-10,o),
(300,-10,cs)
);
},
{
closed = 1;
nodes = (
(218,65,o),
(178,113,o),
(178,200,cs),
(178,237,l),
(171,229,l),
(422,229,l),
(422,200,ls),
(422,113,o),
(382,65,o),
(300,65,cs)
);
}
);
width = 600;
},
{
layerId = "EDF5EB54-295C-4C90-9A2F-67CD82979CFF";
shapes = (
{
closed = 1;
nodes = (
(421,-10,o),
(495,69,o),
(495,190,cs),
(495,360,ls),
(495,482,o),
(422,560,o),
(299,560,cs),
(201,560,o),
(133,510,o),
(109,428,cs),
(107,420,o),
(112,415,o),
(120,415,cs),
(146,415,ls),
(153,415,o),
(157,418,o),
(159,425,cs),
(180,482,o),
(229,516,o),
(299,516,cs),
(392,516,o),
(445,456,o),
(445,360,cs),
(445,285,l),
(117,285,ls),
(110,285,o),
(105,280,o),
(105,273,cs),
(105,190,ls),
(105,69,o),
(178,-10,o),
(299,-10,cs)
);
},
{
closed = 1;
nodes = (
(207,34,o),
(155,94,o),
(155,190,cs),
(155,251,l),
(144,242,l),
(445,242,l),
(445,190,ls),
(445,93,o),
(393,34,o),
(299,34,cs)
);
}
);
width = 600;
}
);
unicode = 601;
},
{
glyphname = f;
layers = (
{
anchors = (
{
name = bottom;
pos = (300,0);
},
{
name = top;
pos = (300,730);
}
);
layerId = "EDF5EB54-295C-4C90-9A2F-67CD82979CFF";
shapes = (
{
closed = 1;
nodes = (
(273,0,ls),
(280,0,o),
(285,5,o),
(285,12,cs),
(285,429,l),
(506,429,ls),
(513,429,o),
(518,434,o),
(518,441,cs),
(518,462,ls),
(518,469,o),
(513,474,o),
(506,474,cs),
(285,474,l),
(285,605,ls),
(285,656,o),
(314,685,o),
(365,685,cs),
(506,685,ls),
(513,685,o),
(518,690,o),
(518,697,cs),
(518,718,ls),
(518,725,o),
(513,730,o),
(506,730,cs),
(365,730,ls),
(284,730,o),
(235,683,o),
(235,605,cs),
(235,474,l),
(77,474,ls),
(70,474,o),
(65,469,o),
(65,462,cs),
(65,441,ls),
(65,434,o),
(70,429,o),
(77,429,cs),
(235,429,l),
(235,12,ls),
(235,5,o),
(240,0,o),
(247,0,cs)
);
}
);
width = 600;
},
{
anchors = (
{
name = bottom;
pos = (300,0);
},
{
name = top;
pos = (300,730);
}
);
layerId = "9ADF6715-3D0F-493D-8567-18A6FBCFC567";
shapes = (
{
closed = 1;
nodes = (
(320,0,ls),
(333,0,o),
(340,7,o),
(340,20,cs),
(340,340,l),
(521,340,ls),
(534,340,o),
(541,347,o),
(541,360,cs),
(541,455,ls),
(541,468,o),
(534,475,o),
(521,475,cs),
(340,475,l),
(340,555,ls),
(340,582,o),
(358,600,o),
(385,600,cs),
(521,600,ls),
(534,600,o),
(541,607,o),
(541,620,cs),
(541,710,ls),
(541,723,o),
(534,730,o),
(521,730,cs),
(380,730,ls),
(266,730,o),
(190,662,o),
(190,560,cs),
(190,475,l),
(64,475,ls),
(51,475,o),
(44,468,o),
(44,455,cs),
(44,360,ls),
(44,347,o),
(51,340,o),
(64,340,cs),
(190,340,l),
(190,20,ls),
(190,7,o),
(197,0,o),
(210,0,cs)
);
}
);
width = 600;
},
{
anchors = (
{
name = bottom;
pos = (300,0);
},
{
name = top;
pos = (300,730);
}
);
layerId = "CCC0BD40-BA8C-414E-B576-CF0B94E6C996";
shapes = (
{
closed = 1;
nodes = (
(285,0,ls),
(298,0,o),
(305,7,o),
(305,20,cs),
(305,393,l),
(510,393,ls),
(523,393,o),
(530,400,o),
(530,413,cs),
(530,455,ls),
(530,468,o),
(523,475,o),
(510,475,cs),
(305,475,l),
(305,590,ls),
(305,628,o),
(328,648,o),
(369,648,cs),
(510,648,ls),
(523,648,o),
(530,655,o),
(530,668,cs),
(530,710,ls),
(530,723,o),
(523,730,o),
(510,730,cs),
(369,730,ls),
(273,730,o),
(215,677,o),
(215,590,cs),
(215,475,l),
(75,475,ls),
(62,475,o),
(55,468,o),
(55,455,cs),
(55,413,ls),
(55,400,o),
(62,393,o),
(75,393,cs),
(215,393,l),
(215,20,ls),
(215,7,o),
(222,0,o),
(235,0,cs)
);
}
);
width = 600;
}
);
unicode = 102;
},
{
glyphname = g;
layers = (
{
anchors = (
{
name = bottom;
pos = (300,-270);
},
{
name = top;
pos = (297,550);
}
);
layerId = "EDF5EB54-295C-4C90-9A2F-67CD82979CFF";
shapes = (
{
closed = 1;
nodes = (
(319,-180,ls),
(431,-180,o),
(490,-124,o),
(490,-15,cs),
(490,550,l),
(440,550,l),
(440,455,l),
(427,455,l),
(447,410,l),
(447,501,o),
(383,560,o),
(287,560,cs),
(177,560,o),
(105,480,o),
(105,360,cs),
(105,239,ls),
(105,119,o),
(177,40,o),
(287,40,cs),
(383,40,o),
(447,99,o),
(447,190,c),
(422,145,l),
(440,145,l),
(440,30,l),
(440,-15,ls),
(440,-94,o),
(398,-135,o),
(319,-135,cs),
(174,-135,l),
(174,-180,l)
);
},
{
closed = 1;
nodes = (
(208,83,o),
(155,141,o),
(155,239,cs),
(155,360,ls),
(155,458,o),
(208,517,o),
(297,517,cs),
(388,517,o),
(440,458,o),
(440,360,cs),
(440,239,ls),
(440,141,o),
(387,83,o),
(297,83,cs)
);
}
);
width = 600;
},
{
anchors = (
{
name = bottom;
pos = (300,-270);
},
{
name = top;
pos = (297,550);
}
);
layerId = "9ADF6715-3D0F-493D-8567-18A6FBCFC567";
shapes = (
{
closed = 1;
nodes = (
(305,-180,ls),
(446,-180,o),
(534,-106,o),
(534,14,cs),
(534,550,l),
(389,550,l),
(389,455,l),
(354,455,l),
(409,360,l),
(409,484,o),
(346,560,o),
(243,560,cs),
(132,560,o),
(60,476,o),
(60,345,cs),
(60,245,ls),
(60,113,o),
(132,30,o),
(243,30,cs),
(346,30,o),
(409,106,o),
(409,230,c),
(354,165,l),
(389,165,l),
(387,40,l),
(387,19,ls),
(387,-31,o),
(356,-60,o),
(300,-60,cs),
(145,-60,l),
(145,-180,l)
);
},
{
closed = 1;
nodes = (
(241,160,o),
(210,192,o),
(210,250,cs),
(210,340,ls),
(210,397,o),
(241,430,o),
(297,430,cs),
(352,430,o),
(384,397,o),
(384,340,cs),
(384,250,ls),
(384,192,o),
(352,160,o),
(297,160,cs)
);
}
);
width = 600;
},
{
anchors = (
{
name = bottom;
pos = (300,-270);
},
{
name = top;
pos = (297,550);
}
);
layerId = "CCC0BD40-BA8C-414E-B576-CF0B94E6C996";
shapes = (
{
closed = 1;
nodes = (
(315,-180,ls),
(433,-180,o),
(507,-111,o),
(507,0,cs),
(507,550,l),
(418,550,l),
(418,455,l),
(401,455,l),
(418,430,l),
(418,510,o),
(360,560,o),
(271,560,cs),
(158,560,o),
(88,481,o),
(88,356,cs),
(88,240,ls),
(88,114,o),
(158,38,o),
(271,38,cs),
(360,38,o),
(418,85,o),
(418,165,c),
(401,140,l),
(419,140,l),
(417,50,l),
(417,0,ls),
(417,-60,o),
(378,-98,o),
(316,-98,cs),
(161,-98,l),
(161,-180,l)
);
},
{
closed = 1;
nodes = (
(222,113,o),
(178,160,o),
(178,235,cs),
(178,360,ls),
(178,435,o),
(222,482,o),
(298,482,cs),
(372,482,o),
(418,433,o),
(418,350,cs),
(418,245,ls),
(418,162,o),
(372,113,o),
(298,113,cs)
);
}
);
width = 600;
}
);
unicode = 103;
},
{
glyphname = h;
layers = (
{
anchors = (
{
name = bottom;
pos = (300,0);
},
{
name = center;
pos = (300,365);
},
{
name = top;
pos = (135,730);
}
);
layerId = "EDF5EB54-295C-4C90-9A2F-67CD82979CFF";
shapes = (
{
closed = 1;
nodes = (
(160,0,l),
(160,360,ls),
(160,457,o),
(215,517,o),
(303,517,cs),
(389,517,o),
(442,459,o),
(442,360,cs),
(442,0,l),
(492,0,l),
(492,367,ls),
(492,485,o),
(421,560,o),
(313,560,cs),
(217,560,o),
(153,501,o),
(153,410,c),
(177,460,l),
(160,460,l),
(160,580,l),
(160,730,l),
(110,730,l),
(110,0,l)
);
}
);
width = 600;
},
{
anchors = (
{
name = bottom;
pos = (300,0);
},
{
name = center;
pos = (300,365);
},
{
name = top;
pos = (142,730);
}
);
layerId = "9ADF6715-3D0F-493D-8567-18A6FBCFC567";
shapes = (
{
closed = 1;
nodes = (
(216,0,l),
(216,340,ls),
(216,397,o),
(248,430,o),
(301,430,cs),
(354,430,o),
(386,397,o),
(386,340,cs),
(386,0,l),
(536,0,l),
(536,355,ls),
(536,479,o),
(466,560,o),
(359,560,cs),
(269,560,o),
(207,499,o),
(206,410,c),
(255,445,l),
(211,445,l),
(216,550,l),
(216,730,l),
(66,730,l),
(66,0,l)
);
}
);
width = 600;
},
{
anchors = (
{
name = bottom;
pos = (300,0);
},
{
name = center;
pos = (300,365);
},
{
name = top;
pos = (137,730);
}
);
layerId = "CCC0BD40-BA8C-414E-B576-CF0B94E6C996";
shapes = (
{
closed = 1;
nodes = (
(182,0,l),
(182,350,ls),
(182,435,o),
(228,484,o),
(303,484,cs),
(375,484,o),
(420,438,o),
(420,355,cs),
(420,0,l),
(510,0,l),
(510,370,ls),
(510,487,o),
(439,560,o),
(329,560,cs),
(237,560,o),
(182,510,o),
(182,424,c),
(201,445,l),
(182,445,l),
(182,550,l),
(182,730,l),
(92,730,l),
(92,0,l)
);
}
);
width = 600;
}
);
unicode = 104;
},
{
glyphname = idotless;
layers = (
{
anchors = (
{
name = bottom;
pos = (320,0);
},
{
name = ogonek;
pos = (330,0);
},
{
name = top;
pos = (320,550);
}
);
layerId = "9ADF6715-3D0F-493D-8567-18A6FBCFC567";
shapes = (
{
closed = 1;
nodes = (
(540,0,ls),
(553,0,o),
(560,7,o),
(560,20,cs),
(560,115,ls),
(560,128,o),
(553,135,o),
(540,135,cs),
(422,135,ls),
(409,135,o),
(402,142,o),
(402,155,cs),
(402,530,ls),
(402,543,o),
(395,550,o),
(382,550,cs),
(110,550,ls),
(97,550,o),
(90,543,o),
(90,530,cs),
(90,435,ls),
(90,422,o),
(97,415,o),
(110,415,cs),
(232,415,ls),
(245,415,o),
(252,408,o),
(252,395,cs),
(252,155,ls),
(252,142,o),
(245,135,o),
(232,135,cs),
(90,135,ls),
(77,135,o),
(70,128,o),
(70,115,cs),
(70,20,ls),
(70,7,o),
(77,0,o),
(90,0,cs)
);
}
);
width = 600;
},
{
anchors = (
{
name = bottom;
pos = (315,0);
},
{
name = ogonek;
pos = (330,0);
},
{
name = top;
pos = (315,550);
}
);
layerId = "CCC0BD40-BA8C-414E-B576-CF0B94E6C996";
shapes = (
{
closed = 1;
nodes = (
(535,0,ls),
(548,0,o),
(555,7,o),
(555,20,cs),
(555,62,ls),
(555,75,o),
(548,82,o),
(535,82,cs),
(390,82,ls),
(377,82,o),
(370,89,o),
(370,102,cs),
(370,530,ls),
(370,543,o),
(363,550,o),
(350,550,cs),
(125,550,ls),
(112,550,o),
(105,543,o),
(105,530,cs),
(105,488,ls),
(105,475,o),
(112,468,o),
(125,468,cs),
(260,468,ls),
(273,468,o),
(280,461,o),
(280,448,cs),
(280,102,ls),
(280,89,o),
(273,82,o),
(260,82,cs),
(105,82,ls),
(92,82,o),
(85,75,o),
(85,62,cs),
(85,20,ls),
(85,7,o),
(92,0,o),
(105,0,cs)
);
}
);
width = 600;
},
{
anchors = (
{
name = bottom;
pos = (315,0);
},
{
name = ogonek;
pos = (330,0);
},
{
name = top;
pos = (315,550);
}
);
layerId = "EDF5EB54-295C-4C90-9A2F-67CD82979CFF";
shapes = (
{
closed = 1;
nodes = (
(523,0,ls),
(530,0,o),
(535,5,o),
(535,12,cs),
(535,33,ls),
(535,40,o),
(530,45,o),
(523,45,cs),
(358,45,ls),
(351,45,o),
(346,50,o),
(346,57,cs),
(346,538,ls),
(346,545,o),
(341,550,o),
(334,550,cs),
(132,550,ls),
(125,550,o),
(120,545,o),
(120,538,cs),
(120,517,ls),
(120,510,o),
(125,505,o),
(132,505,cs),
(284,505,ls),
(291,505,o),
(296,500,o),
(296,493,cs),
(296,57,ls),
(296,50,o),
(291,45,o),
(284,45,cs),
(107,45,ls),
(100,45,o),
(95,40,o),
(95,33,cs),
(95,12,ls),
(95,5,o),
(100,0,o),
(107,0,cs)
);
}
);
width = 600;
}
);
unicode = 305;
},
{
glyphname = ij;
layers = (
{
layerId = "EDF5EB54-295C-4C90-9A2F-67CD82979CFF";
shapes = (
{
closed = 1;
nodes = (
(281,-180,ls),
(403,-180,o),
(475,-109,o),
(475,10,cs),
(475,538,ls),
(475,545,o),
(470,550,o),
(463,550,cs),
(437,550,ls),
(430,550,o),
(425,545,o),
(425,538,cs),
(425,10,ls),
(425,-84,o),
(375,-135,o),
(281,-135,cs),
(139,-135,ls),
(132,-135,o),
(127,-140,o),
(127,-147,cs),
(127,-168,ls),
(127,-175,o),
(132,-180,o),
(139,-180,cs)
);
},
{
closed = 1;
nodes = (
(165,0,ls),
(172,0,o),
(177,5,o),
(177,12,cs),
(177,538,ls),
(177,545,o),
(172,550,o),
(165,550,cs),
(139,550,ls),
(132,550,o),
(127,545,o),
(127,538,cs),
(127,12,ls),
(127,5,o),
(132,0,o),
(139,0,cs)
);
},
{
pos = (452,0);
ref = dotaccentcomb;
},
{
pos = (748,0);
ref = dotaccentcomb;
}
);
width = 600;
},
{
layerId = "CCC0BD40-BA8C-414E-B576-CF0B94E6C996";
shapes = (
{
closed = 1;
nodes = (
(274,-180,ls),
(409,-180,o),
(495,-98,o),
(495,31,cs),
(495,530,ls),
(495,543,o),
(488,550,o),
(475,550,cs),
(425,550,ls),
(412,550,o),
(405,543,o),
(405,530,cs),
(405,31,ls),
(405,-51,o),
(357,-98,o),
(274,-98,cs),
(128,-98,ls),
(115,-98,o),
(108,-105,o),
(108,-118,cs),
(108,-160,ls),
(108,-173,o),
(115,-180,o),
(128,-180,cs)
);
},
{
closed = 1;
nodes = (
(178,0,ls),
(191,0,o),
(198,7,o),
(198,20,cs),
(198,530,ls),
(198,543,o),
(191,550,o),
(178,550,cs),
(128,550,ls),
(115,550,o),
(108,543,o),
(108,530,cs),
(108,20,ls),
(108,7,o),
(115,0,o),
(128,0,cs)
);
},
{
pos = (451,0);
ref = dotaccentcomb;
},
{
pos = (749,0);
ref = dotaccentcomb;
}
);
width = 600;
},
{
layerId = "9ADF6715-3D0F-493D-8567-18A6FBCFC567";
shapes = (
{
closed = 1;
nodes = (
(291,-180,ls),
(429,-180,o),
(515,-96,o),
(515,40,cs),
(515,530,ls),
(515,543,o),
(508,550,o),
(495,550,cs),
(385,550,ls),
(372,550,o),
(365,543,o),
(365,530,cs),
(365,45,ls),
(365,-9,o),
(331,-45,o),
(280,-45,cs),
(105,-45,ls),
(92,-45,o),
(85,-52,o),
(85,-65,cs),
(85,-160,ls),
(85,-173,o),
(92,-180,o),
(105,-180,cs)
);
},
{
closed = 1;
nodes = (
(215,65,ls),
(228,65,o),
(235,72,o),
(235,85,cs),
(235,530,ls),
(235,543,o),
(228,550,o),
(215,550,cs),
(105,550,ls),
(92,550,o),
(85,543,o),
(85,530,cs),
(85,85,ls),
(85,72,o),
(92,65,o),
(105,65,cs)
);
},
{
pos = (460,0);
ref = dotaccentcomb;
},
{
pos = (740,0);
ref = dotaccentcomb;
}
);
width = 600;
}
);
unicode = 307;
},
{
glyphname = ij_acute;
layers = (
{
layerId = "EDF5EB54-295C-4C90-9A2F-67CD82979CFF";
shapes = (
{
closed = 1;
nodes = (
(281,-180,ls),
(403,-180,o),
(475,-109,o),
(475,10,cs),
(475,538,ls),
(475,545,o),
(470,550,o),
(463,550,cs),
(437,550,ls),
(430,550,o),
(425,545,o),
(425,538,cs),
(425,10,ls),
(425,-84,o),
(375,-135,o),
(281,-135,cs),
(139,-135,ls),
(132,-135,o),
(127,-140,o),
(127,-147,cs),
(127,-168,ls),
(127,-175,o),
(132,-180,o),
(139,-180,cs)
);
},
{
closed = 1;
nodes = (
(165,0,ls),
(172,0,o),
(177,5,o),
(177,12,cs),
(177,538,ls),
(177,545,o),
(172,550,o),
(165,550,cs),
(139,550,ls),
(132,550,o),
(127,545,o),
(127,538,cs),
(127,12,ls),
(127,5,o),
(132,0,o),
(139,0,cs)
);
},
{
alignment = -1;
pos = (766,0);
ref = acutecomb;
},
{
alignment = -1;
pos = (471,0);
ref = acutecomb;
}
);
width = 600;
},
{
layerId = "CCC0BD40-BA8C-414E-B576-CF0B94E6C996";
shapes = (
{
closed = 1;
nodes = (
(274,-180,ls),
(409,-180,o),
(495,-98,o),
(495,31,cs),
(495,530,ls),
(495,543,o),
(488,550,o),
(475,550,cs),
(425,550,ls),
(412,550,o),
(405,543,o),
(405,530,cs),
(405,31,ls),
(405,-51,o),
(357,-98,o),
(274,-98,cs),
(128,-98,ls),
(115,-98,o),
(108,-105,o),
(108,-118,cs),
(108,-160,ls),
(108,-173,o),
(115,-180,o),
(128,-180,cs)
);
},
{
closed = 1;
nodes = (
(178,0,ls),
(191,0,o),
(198,7,o),
(198,20,cs),
(198,530,ls),
(198,543,o),
(191,550,o),
(178,550,cs),
(128,550,ls),
(115,550,o),
(108,543,o),
(108,530,cs),
(108,20,ls),
(108,7,o),
(115,0,o),
(128,0,cs)
);
},
{
alignment = -1;
pos = (765,0);
ref = acutecomb;
},
{
alignment = -1;
pos = (476,0);
ref = acutecomb;
}
);
width = 600;
},
{
layerId = "9ADF6715-3D0F-493D-8567-18A6FBCFC567";
shapes = (
{
closed = 1;
nodes = (
(291,-180,ls),
(429,-180,o),
(515,-96,o),
(515,40,cs),
(515,530,ls),
(515,543,o),
(508,550,o),
(495,550,cs),
(385,550,ls),
(372,550,o),
(365,543,o),
(365,530,cs),
(365,45,ls),
(365,-9,o),
(331,-45,o),
(280,-45,cs),
(105,-45,ls),
(92,-45,o),
(85,-52,o),
(85,-65,cs),
(85,-160,ls),
(85,-173,o),
(92,-180,o),
(105,-180,cs)
);
},
{
closed = 1;
nodes = (
(215,65,ls),
(228,65,o),
(235,72,o),
(235,85,cs),
(235,530,ls),
(235,543,o),
(228,550,o),
(215,550,cs),
(105,550,ls),
(92,550,o),
(85,543,o),
(85,530,cs),
(85,85,ls),
(85,72,o),
(92,65,o),
(105,65,cs)
);
},
{
alignment = -1;
pos = (760,0);
ref = acutecomb;
},
{
alignment = -1;
pos = (476,0);
ref = acutecomb;
}
);
width = 600;
}
);
},
{
glyphname = iogonek;
layers = (
{
layerId = "EDF5EB54-295C-4C90-9A2F-67CD82979CFF";
shapes = (
{
closed = 1;
nodes = (
(378,-195,ls),
(385,-195,o),
(390,-190,o),
(390,-183,cs),
(390,-165,ls),
(390,-158,o),
(385,-153,o),
(378,-153,cs),
(326,-153,ls),
(294,-153,o),
(275,-134,o),
(275,-103,cs),
(275,-75,o),
(298,-36,o),
(336,0,cs),
(347,10,l),
(310,10,l),
(259,-27,o),
(228,-74,o),
(228,-115,cs),
(228,-165,o),
(262,-195,o),
(317,-195,cs)
);
},
{
ref = idotless;
},
{
pos = (615,0);
ref = dotaccentcomb;
}
);
width = 600;
},
{
layerId = "CCC0BD40-BA8C-414E-B576-CF0B94E6C996";
shapes = (
{
closed = 1;
nodes = (
(380,-203,ls),
(393,-203,o),
(400,-196,o),
(400,-183,cs),
(400,-163,ls),
(400,-150,o),
(393,-143,o),
(380,-143,cs),
(340,-143,ls),
(306,-143,o),
(285,-122,o),
(285,-93,cs),
(285,-65,o),
(304,-36,o),
(349,1,cs),
(360,10,l),
(285,10,l),
(222,-34,o),
(200,-72,o),
(200,-110,cs),
(200,-164,o),
(248,-203,o),
(322,-203,cs)
);
},
{
ref = idotless;
},
{
pos = (615,0);
ref = dotaccentcomb;
}
);
width = 600;
},
{
layerId = "9ADF6715-3D0F-493D-8567-18A6FBCFC567";
shapes = (
{
closed = 1;
nodes = (
(404,-225,ls),
(417,-225,o),
(424,-218,o),
(424,-205,cs),
(424,-140,ls),
(424,-127,o),
(417,-120,o),
(404,-120,cs),
(355,-120,ls),
(326,-120,o),
(309,-103,o),
(309,-83,cs),
(309,-66,o),
(324,-42,o),
(350,-18,cs),
(382,11,l),
(296,11,l),
(228,-19,o),
(185,-68,o),
(185,-115,cs),
(185,-180,o),
(235,-225,o),
(316,-225,cs)
);
},
{
ref = idotless;
},
{
pos = (620,0);
ref = dotaccentcomb;
}
);
width = 600;
}
);
unicode = 303;
},
{
glyphname = jdotless;
layers = (
{
anchors = (
{
name = bottom;
pos = (300,-270);
},
{
name = top;
pos = (390,550);
}
);
layerId = "9ADF6715-3D0F-493D-8567-18A6FBCFC567";
shapes = (
{
closed = 1;
nodes = (
(246,-180,ls),
(384,-180,o),
(470,-96,o),
(470,40,cs),
(470,530,ls),
(470,543,o),
(463,550,o),
(450,550,cs),
(90,550,ls),
(77,550,o),
(70,543,o),
(70,530,cs),
(70,435,ls),
(70,422,o),
(77,415,o),
(90,415,cs),
(300,415,ls),
(313,415,o),
(320,408,o),
(320,395,cs),
(320,45,ls),
(320,-9,o),
(286,-45,o),
(235,-45,cs),
(95,-45,ls),
(82,-45,o),
(75,-52,o),
(75,-65,cs),
(75,-160,ls),
(75,-173,o),
(82,-180,o),
(95,-180,cs)
);
}
);
width = 600;
},
{
anchors = (
{
name = bottom;
pos = (295,-270);
},
{
name = top;
pos = (380,550);
}
);
layerId = "CCC0BD40-BA8C-414E-B576-CF0B94E6C996";
shapes = (
{
closed = 1;
nodes = (
(214,-180,ls),
(349,-180,o),
(435,-98,o),
(435,31,cs),
(435,530,ls),
(435,543,o),
(428,550,o),
(415,550,cs),
(105,550,ls),
(92,550,o),
(85,543,o),
(85,530,cs),
(85,488,ls),
(85,475,o),
(92,468,o),
(105,468,cs),
(325,468,ls),
(338,468,o),
(345,461,o),
(345,448,cs),
(345,31,ls),
(345,-51,o),
(297,-98,o),
(214,-98,cs),
(110,-98,ls),
(97,-98,o),
(90,-105,o),
(90,-118,cs),
(90,-160,ls),
(90,-173,o),
(97,-180,o),
(110,-180,cs)
);
}
);
width = 600;
},
{
anchors = (
{
name = bottom;
pos = (296,-270);
},
{
name = top;
pos = (380,550);
}
);
layerId = "EDF5EB54-295C-4C90-9A2F-67CD82979CFF";
shapes = (
{
closed = 1;
nodes = (
(226,-180,ls),
(348,-180,o),
(420,-109,o),
(420,10,cs),
(420,538,ls),
(420,545,o),
(415,550,o),
(408,550,cs),
(117,550,ls),
(110,550,o),
(105,545,o),
(105,538,cs),
(105,517,ls),
(105,510,o),
(110,505,o),
(117,505,cs),
(358,505,ls),
(365,505,o),
(370,500,o),
(370,493,cs),
(370,10,ls),
(370,-84,o),
(320,-135,o),
(226,-135,cs),
(122,-135,ls),
(115,-135,o),
(110,-140,o),
(110,-147,cs),
(110,-168,ls),
(110,-175,o),
(115,-180,o),
(122,-180,cs)
);
}
);
width = 600;
}
);
unicode = 567;
},
{
glyphname = k;
layers = (
{
anchors = (
{
name = bottom;
pos = (300,0);
},
{
name = top;
pos = (300,730);
}
);
layerId = "EDF5EB54-295C-4C90-9A2F-67CD82979CFF";
shapes = (
{
closed = 1;
nodes = (
(153,0,ls),
(160,0,o),
(165,5,o),
(165,12,cs),
(165,264,l),
(295,264,l),
(469,8,ls),
(472,3,o),
(477,0,o),
(483,0,cs),
(515,0,ls),
(524,0,o),
(528,7,o),
(523,15,cs),
(339,288,l),
(513,535,ls),
(518,543,o),
(515,550,o),
(505,550,cs),
(474,550,ls),
(468,550,o),
(464,548,o),
(460,542,cs),
(294,309,l),
(165,309,l),
(165,718,ls),
(165,725,o),
(160,730,o),
(153,730,cs),
(127,730,ls),
(120,730,o),
(115,725,o),
(115,718,cs),
(115,12,ls),
(115,5,o),
(120,0,o),
(127,0,cs)
);
}
);
width = 600;
},
{
anchors = (
{
name = bottom;
pos = (300,0);
},
{
name = top;
pos = (300,730);
}
);
layerId = "CCC0BD40-BA8C-414E-B576-CF0B94E6C996";
shapes = (
{
closed = 1;
nodes = (
(167,0,ls),
(180,0,o),
(187,7,o),
(187,20,cs),
(187,245,l),
(294,245,l),
(445,13,ls),
(451,4,o),
(460,0,o),
(470,0,cs),
(530,0,ls),
(546,0,o),
(552,11,o),
(543,24,cs),
(372,288,l),
(533,526,ls),
(542,539,o),
(536,550,o),
(520,550,cs),
(461,550,ls),
(451,550,o),
(443,546,o),
(437,537,cs),
(292,323,l),
(187,323,l),
(187,710,ls),
(187,723,o),
(180,730,o),
(167,730,cs),
(117,730,ls),
(104,730,o),
(97,723,o),
(97,710,cs),
(97,20,ls),
(97,7,o),
(104,0,o),
(117,0,cs)
);
}
);
width = 600;
},
{
anchors = (
{
name = bottom;
pos = (300,0);
},
{
name = top;
pos = (300,730);
}
);
layerId = "9ADF6715-3D0F-493D-8567-18A6FBCFC567";
shapes = (
{
closed = 1;
nodes = (
(201,0,ls),
(214,0,o),
(221,7,o),
(221,20,cs),
(221,216,l),
(296,216,l),
(404,14,ls),
(409,5,o),
(417,0,o),
(428,0,cs),
(553,0,ls),
(568,0,o),
(574,11,o),
(567,24,cs),
(424,281,l),
(563,526,ls),
(571,539,o),
(565,550,o),
(549,550,cs),
(428,550,ls),
(417,550,o),
(409,546,o),
(404,536,cs),
(297,342,l),
(221,342,l),
(221,710,ls),
(221,723,o),
(214,730,o),
(201,730,cs),
(91,730,ls),
(78,730,o),
(71,723,o),
(71,710,cs),
(71,20,ls),
(71,7,o),
(78,0,o),
(91,0,cs)
);
}
);
width = 600;
}
);
unicode = 107;
},
